<svg xmlns="http://www.w3.org/2000/svg" viewBox="0 0 512 512"><defs><style>.cls-1{fill:#fda25c;}.cls-2,.cls-4{fill:#29aefd;}.cls-3{fill:#a9dffe;}.cls-10,.cls-11,.cls-13,.cls-4,.cls-6,.cls-7,.cls-8,.cls-9{fill-rule:evenodd;}.cls-5{fill:#b7c066;}.cls-12,.cls-6{fill:#074785;}.cls-7{fill:#54befd;}.cls-8{fill:#ffa4ac;}.cls-9{fill:#f9d555;}.cls-10{fill:#7befe5;}.cls-11{fill:#fd6085;}.cls-13,.cls-14{fill:#fff;}.cls-15{fill:#074783;}</style></defs><g id="_03" data-name="03"><path class="cls-1" d="M54.67,248.82c9.88-3.72,22.6,3.86,28.47,17.36L153.34,431c5.86,13.47-1.3,29.69-16.18,35.33q-15.21,5.76-30.68,10.85c-15.12,5-30.88-3.16-34.78-17.32l-49-172.31C18.8,273.36,23.92,259.46,34,256.15Q44.39,252.72,54.67,248.82Z"/><path class="cls-2" d="M36.43,225.15c3.43-1.24,7.07-.78,8.12,1.11l12.3,23.12c1,1.88-2.29,5.05-7.46,6.93q-5.3,1.94-10.62,3.75c-5.21,1.79-9.79,1.43-10.16-.69q-2.49-12.87-5-25.72c-.37-2.13,2.17-4.78,5.62-6C31.66,226.86,34.05,226,36.43,225.15Z"/><path class="cls-3" d="M136.09,390.49l-37-87L33.81,326.59q12.93,45.46,25.85,90.92Z"/><path class="cls-4" d="M71.92,468.16c-.94-5,.44-9.78,3-10.66l74.49-25.14c2.6-.88,6.77,2.07,9.25,6.57l6.14,11.14c2.48,4.48,2.38,8.88-.23,9.75l-84,28.26c-2.6.87-5.49-2.49-6.42-7.47Z"/><path class="cls-5" d="M151.42,50.4c.22,0,.44,0,.66,0l.27,0Z"/><path class="cls-5" d="M241.22,38.36c-24.2-18-53.67.6-77.31,10.07l-1.53-26.07c-.13-4.15-4.81-6.65-10.4-5.36l-1.66.39c-5.59,1.32-8.67,5.65-6.94,9.42L154.08,52c-24.22,8-49.93,10.87-74.27,18.39C64.4,75.15,49.55,81.45,36.6,91.22,23.86,100.83,14.31,113.71,7.18,128c-11.35,22.7-11.06,49.5,14.28,60.66,38.94,17.15,90.11-6.26,125.46-23.1,38.42-18.3,73.67-44.52,95.94-81.42C250.14,72,255.12,49,241.22,38.36Z"/><path class="cls-6" d="M466.57,240.49c-29.84-28.06-52.43-.53-82,4.86-32.65,6.34-59.91-8.07-46.86-43.2,10.25-27.91,26.79-52.49-11.24-52.59C264.14,147.69,184,175,153.89,230.92,94.93,340.19,191.56,483.17,310,501.23c66.35,10.11,141.5-19.66,178-73C525.09,374.08,520.15,290.87,466.57,240.49ZM281.84,230.21c-13.81,2.26-27.36-6.5-30.26-19.56s5.94-25.46,19.75-27.72,27.36,6.51,30.26,19.57S295.65,228,281.84,230.21Z"/><path class="cls-7" d="M454.93,224.38c-29.84-28.07-52.43-.53-82,4.85C340.24,235.57,313,221.17,326,186c10.25-27.91,26.79-52.49-11.24-52.59-62.29-1.86-142.38,25.47-172.54,81.37-59,109.26,37.67,252.25,156.08,270.3,66.34,10.12,141.5-19.66,178-72.95C513.45,358,508.51,274.76,454.93,224.38ZM270.2,214.1c-13.81,2.25-27.35-6.51-30.26-19.56s5.94-25.47,19.76-27.72,27.35,6.51,30.25,19.56S284,211.85,270.2,214.1Z"/><path class="cls-8" d="M451.85,380c3.39,18.72-9.74,36.77-29.32,40.31s-38.19-8.78-41.57-27.5,9.74-36.77,29.32-40.31S448.47,361.29,451.85,380Z"/><path class="cls-9" d="M347.85,420c3.39,18.73-9.74,36.77-29.32,40.31s-38.19-8.78-41.57-27.5,9.74-36.77,29.32-40.31S344.47,401.25,347.85,420Z"/><path class="cls-10" d="M262.45,365.89c3.38,18.72-9.74,36.77-29.32,40.31s-38.19-8.78-41.57-27.5,9.74-36.77,29.32-40.31S259.07,347.16,262.45,365.89Z"/><path class="cls-6" d="M416.73,252.5c1.43-.84,2.92-1.59,4.28-2.53a381.41,381.41,0,0,0,40.56-31.75,311.26,311.26,0,0,0,48.9-55.53,8.83,8.83,0,0,0,1.53-4.53,5.12,5.12,0,0,0-7.73-4.45c-6.76,3.58-13.49,7.22-20.06,11.16a250.57,250.57,0,0,0-34.67,24.71c-10.37,8.9-20.37,18.27-30.25,27.74-5.58,5.36-10.6,11.33-15.86,17a11.73,11.73,0,0,0-.92,1.34Z"/><path class="cls-11" d="M384,258c3.56,1.95,5.56,5.33,7.57,8.7.24.4.44.83.66,1.25q10.78-6.63,21.57-13.28c1-.63,1.94-1.43,2.91-2.15l-14.22-16.8c-2.54,2.91-5.15,5.77-7.6,8.75C391.23,248.91,387.65,253.47,384,258Z"/><path class="cls-9" d="M316,369.38a8.79,8.79,0,0,1-3.67-.8c-3.72-1.72-5-5.17-5.58-6.83l-.11-.31c-4.83-12-3.52-26.34-2.47-37.86.1-1.11.2-2.2.29-3.26,1.57-18.09,7.52-34.49,17.22-47.42A70.07,70.07,0,0,1,363.52,246a35.12,35.12,0,0,1,7.39-.78,38.25,38.25,0,0,1,28.93,13.48,34,34,0,0,1,7.58,28.19c-2.48,14.27-12.74,21.75-20.25,26.14-5.48,3.21-11.19,5.83-16.71,8.37C362,325.29,354,329,347.19,334.44s-11.95,13.5-17.29,21.92c-1.59,2.49-3.23,5.07-4.91,7.58-2.36,3.5-5.56,5.44-9,5.44Z"/><path class="cls-12" d="M277.55,240.29c13.5-1.8,23.05,7.3,25.3,20.21,1.15,6.6-9,8.9-10.15,2.26-1.26-7.23-4.82-12.42-12.59-12.29-8.54.14-12.05,6.84-10,14.49,1.76,6.49-8.4,8.73-10.15,2.26C256.41,254,264,242.1,277.55,240.29Z"/><path class="cls-12" d="M170.11,253.32c13.54-1.41,22.83,7.95,24.71,20.93,1,6.63-9.24,8.63-10.2,2-1.06-7.27-4.47-12.56-12.24-12.65-8.54-.1-12.24,6.49-10.39,14.19,1.56,6.55-8.65,8.49-10.21,2C148.59,266.44,156.46,254.74,170.11,253.32Z"/><path class="cls-12" d="M209.92,281.09c-.73-2.75-.06-5.63,2.81-6.84,2.36-1,6.05.05,6.78,2.8,1.05,4,2.92,10.84,7.73,11.59,6.82,1.07,8.64-7.32,8.31-12.3-.44-6.68,9.86-8.07,10.31-1.34.73,11.14-4.14,22.32-16.19,23.95C218.81,300.43,212.36,290.29,209.92,281.09Z"/><path class="cls-13" d="M120.71,377.43c-7.49-14.24-12.69-29.54-20.61-43.58-2.8-5-10.43-.5-7.63,4.46,7.92,14,13.13,29.33,20.62,43.58C115.74,386.93,123.36,382.47,120.71,377.43Z"/><path class="cls-13" d="M89.22,317c-5.7,0-5.7,8.83,0,8.83S94.92,317,89.22,317Z"/><path class="cls-13" d="M483.3,374.62c4-15.55,6.29-31.5,4.48-47.55s-8.09-31.5-15.6-45.81c-1.45-2.77-4.33-4.44-7.45-3.18-2.68,1.07-4.64,4.68-3.19,7.45,7.08,13.5,13,27.61,14.85,42.84,1.85,15-.72,30.05-4.43,44.57-.78,3,2,6.08,4.83,6.51C480.12,379.94,482.52,377.64,483.3,374.62Z"/><path class="cls-13" d="M474,392.51c-2.75-6.86-13.39-2.59-10.63,4.27S476.79,399.37,474,392.51Z"/><path class="cls-13" d="M461.79,261.55c-2.75-6.86-13.39-2.59-10.63,4.27S464.55,268.41,461.79,261.55Z"/><path class="cls-13" d="M346.72,264.55c-8.78,7.5-16.75,15.94-22.34,26.12s-8.28,21.9-9.8,33.44c-.29,2.23.72,4.4,3.07,5,2,.48,4.67-.83,5-3.07,1.42-10.88,3.8-21.62,9-31.37,5.13-9.59,12.88-17.38,21.08-24.39,1.71-1.47,1.36-4.4-.15-5.83C350.8,262.73,348.42,263.09,346.72,264.55Z"/><path class="cls-13" d="M359.59,257.86c-1.22,5.17,6.81,7.07,8,1.89S360.81,252.68,359.59,257.86Z"/><path class="cls-13" d="M312.53,340c-1.22,5.18,6.81,7.07,8,1.9S313.75,334.83,312.53,340Z"/><path class="cls-13" d="M46.67,175.66c16,1.53,32.09,1.36,47.67-2.89s29.87-12.86,42.86-22.49c2.51-1.85,3.71-5,2-7.85-1.48-2.48-5.34-3.86-7.86-2-12.25,9.08-25.28,17.07-40,21.28-14.53,4.14-29.8,3.92-44.72,2.49-3.11-.3-5.7,2.89-5.68,5.77C40.92,173.34,43.57,175.36,46.67,175.66Z"/><path class="cls-13" d="M27.56,169.27c6.35-3.78.5-13.63-5.86-9.85S21.21,173,27.56,169.27Z"/><path class="cls-13" d="M155.07,137c6.36-3.77.5-13.63-5.86-9.85S148.72,140.76,155.07,137Z"/><path class="cls-14" d="M93.47,105.57c-.68-.65-2.11-9.76-3.33-9.67s-2.22,9.14-2.79,9.74c-1.14,1.2-9.54,2.11-9.46,3.27s8.34,1.64,9.51,2.76c.66.62,2.1,9.76,3.33,9.68s2.2-9.11,2.79-9.73c1.1-1.17,9.57-2.13,9.49-3.29S94.59,106.65,93.47,105.57Z"/><path class="cls-14" d="M419.42,381.05c-.67-.64-2.1-9.75-3.32-9.67s-2.22,9.14-2.79,9.74c-1.14,1.21-9.54,2.12-9.47,3.28s8.35,1.63,9.52,2.75c.66.63,2.1,9.76,3.33,9.68s2.2-9.11,2.79-9.73c1.1-1.16,9.57-2.13,9.49-3.29S420.55,382.14,419.42,381.05Z"/><path class="cls-14" d="M236.15,366.32c-.68-.64-2.1-9.75-3.33-9.67s-2.22,9.14-2.79,9.74c-1.14,1.2-9.54,2.12-9.46,3.28s8.34,1.63,9.52,2.75c.65.63,2.09,9.76,3.32,9.68s2.2-9.11,2.79-9.73c1.1-1.16,9.57-2.13,9.49-3.29S237.28,367.41,236.15,366.32Z"/><path class="cls-14" d="M55.17,287.33c-.68-.65-2.1-9.76-3.32-9.67s-2.23,9.13-2.79,9.73c-1.14,1.21-9.55,2.12-9.47,3.28s8.34,1.64,9.52,2.76c.66.62,2.1,9.76,3.33,9.68s2.2-9.11,2.79-9.74c1.1-1.16,9.56-2.12,9.49-3.28S56.3,288.41,55.17,287.33Z"/><path class="cls-15" d="M380.73,283.73c-.68-.65-2.1-9.76-3.33-9.68s-2.22,9.14-2.79,9.74c-1.14,1.2-9.54,2.12-9.46,3.28s8.34,1.64,9.52,2.76c.65.62,2.1,9.76,3.32,9.67s2.2-9.11,2.79-9.73c1.1-1.16,9.57-2.12,9.49-3.29S381.86,284.81,380.73,283.73Z"/><path class="cls-15" d="M174.2,326.59c-.68-.65-2.1-9.76-3.32-9.67s-2.22,9.13-2.79,9.73c-1.14,1.21-9.55,2.13-9.47,3.28s8.34,1.64,9.52,2.76c.66.62,2.1,9.76,3.33,9.68s2.19-9.12,2.79-9.74c1.1-1.16,9.56-2.12,9.49-3.28S175.33,327.67,174.2,326.59Z"/><path class="cls-15" d="M215.42,70.82c-.68-.64-2.1-9.75-3.32-9.67s-2.22,9.14-2.79,9.74c-1.14,1.2-9.54,2.12-9.47,3.28s8.35,1.63,9.52,2.75c.66.63,2.1,9.76,3.33,9.68s2.2-9.11,2.79-9.73c1.1-1.16,9.56-2.12,9.49-3.29S216.55,71.91,215.42,70.82Z"/></g></svg>