<svg xmlns="http://www.w3.org/2000/svg" viewBox="0 0 500 500"><defs><style>.cls-1,.cls-8{fill:#074785;}.cls-1,.cls-10,.cls-12,.cls-2,.cls-4,.cls-5,.cls-6,.cls-7,.cls-9{fill-rule:evenodd;}.cls-2{fill:#ffa4ac;}.cls-3,.cls-9{fill:#fd6085;}.cls-4{fill:#54befd;}.cls-5{fill:#fd809d;}.cls-6{fill:#f9d555;}.cls-7{fill:#f1854f;}.cls-10{fill:#fadd77;}.cls-11{fill:#29aefd;}.cls-12{fill:#fff;}</style></defs><g id="OBJECTS"><path class="cls-1" d="M307.94,410.22c3.74,9.76.17,20.35-8,23.67h0c-8.16,3.32-17.81-1.9-21.55-11.66L199.49,216.72c-3.75-9.76-.17-20.35,8-23.67h0c8.15-3.32,17.8,1.89,21.55,11.65Z"/><path class="cls-2" d="M314.56,376.13c5.88,15.9-3.32,34.27-20.56,41s-36-.64-41.86-16.54"/><path class="cls-3" d="M97.77,267.49c-1.07-1.07-3.24-16.14-5.2-16s-3.68,15.06-4.6,16c-1.85,2-15.34,3.37-15.23,5.29S86.1,275.62,88,277.48c1,1,3.24,16.15,5.21,16s3.65-15,4.6-16c1.79-1.91,15.38-3.38,15.27-5.3S99.58,269.29,97.77,267.49Z"/><path class="cls-3" d="M371.76,367.59c-1.08-1.07-3.25-16.14-5.21-16s-3.68,15.06-4.6,16.05c-1.85,2-15.34,3.37-15.23,5.29s13.36,2.81,15.23,4.67c1.05,1.05,3.25,16.15,5.21,16s3.65-15,4.61-16c1.78-1.91,15.38-3.38,15.27-5.3S373.56,369.39,371.76,367.59Z"/><path class="cls-3" d="M347.24,159C346.16,158,344,142.88,342,143s-3.68,15.07-4.6,16.05c-1.85,2-15.34,3.37-15.23,5.29s13.36,2.81,15.23,4.68c1.05,1,3.25,16.14,5.21,16s3.65-15,4.61-16c1.78-1.91,15.38-3.38,15.27-5.3S349,160.83,347.24,159Z"/><path class="cls-4" d="M76.87,453.43c-2.86,1.55-6.31-.08-7.73-3.64q-18.91-47.85-37.85-95.7c-1.41-3.56,0-7.21,3.05-8.15L180,301.09c3.09-.94,6.43.37,7.44,2.94l27.42,69.3c1,2.56-.48,5.9-3.34,7.45Z"/><path class="cls-1" d="M158.69,409.27l8.6-4.64-35.13-88.82-9.31,2.87Z"/><path class="cls-1" d="M111.22,434.89l8.61-4.65-39-98.62-9.32,2.87Z"/><polygon class="cls-1" points="231.44 322.75 49.05 398.99 52 406.45 234.9 331.12 231.44 322.75"/><path class="cls-4" d="M430,180.87c2.83-1.6,6.31,0,7.78,3.51q19.69,47.52,39.38,95c1.47,3.53.16,7.21-2.92,8.21L329.4,334.93c-3.08,1-6.43-.26-7.49-2.81L293.39,263.3c-1.05-2.55.39-5.91,3.22-7.5Z"/><path class="cls-1" d="M348.94,226.41l-8.53,4.79L377,319.41l9.27-3Z"/><path class="cls-1" d="M396,200l-8.54,4.79L428,302.72l9.27-3Z"/><polygon class="cls-1" points="277.59 314.16 458.73 234.83 455.66 227.41 273.99 305.84 277.59 314.16"/><path class="cls-5" d="M322.45,380a6.59,6.59,0,0,1-3.5,8.49L255,415.14a6.27,6.27,0,0,1-8.25-3.6L196.37,283.22a6.6,6.6,0,0,1,3.5-8.51l63.9-26.61a6.29,6.29,0,0,1,8.26,3.61Z"/><path class="cls-2" d="M276.36,326.7a2.69,2.69,0,0,1-1.43,3.46L249,341a2.56,2.56,0,0,1-3.36-1.46l-20.48-52.14a2.69,2.69,0,0,1,1.42-3.46l26-10.81a2.55,2.55,0,0,1,3.35,1.47Z"/><path class="cls-6" d="M291.35,368.59a16.54,16.54,0,1,1-16.53-17A16.78,16.78,0,0,1,291.35,368.59Z"/><path class="cls-7" d="M78.42,181.73S90,157.17,179.31,122c82.76-32.62,118.81-21.87,118.81-21.87l-34.25,54.19-125.93,34.3-45,1.26"/><path class="cls-8" d="M261.91,126.2,172.2,78.66a3.62,3.62,0,0,0-3.09-.21,4,4,0,0,0-4.91,2.32q-18.9,47.06-37.77,94.08c-1.84,4.58,5.32,6.72,7.14,2.2l34.5-85.94q14,36.18,28.06,72.39c1.78,4.58,8.28.81,6.52-3.73q-13.76-35.48-27.5-70.94L258,132.73C262.26,135,266.18,128.46,261.91,126.2Z"/><path class="cls-9" d="M178.2,70.34a12.93,12.93,0,1,1-12.64-13.59A13.11,13.11,0,0,1,178.2,70.34Z"/><path class="cls-10" d="M78.42,181.73s55.06-3.31,116.86-26.9,102.84-54.75,102.84-54.75,14.51,115-69.86,142.62C132.2,274.21,78.42,181.73,78.42,181.73Z"/><path class="cls-8" d="M165,181.71c-8.38,3-11.07,12.07-8.33,21.45,1.4,4.81,8,3.2,6.59-1.62-1.54-5.26-1.1-9.86,3.44-12.19,5-2.55,9.12.86,10.32,6.65,1,4.92,7.6,3.26,6.59-1.63C181.49,184.38,173.39,178.71,165,181.71Z"/><path class="cls-8" d="M231.24,157.11c-8.28,3.25-10.73,12.44-7.76,21.75,1.52,4.77,8.05,2.94,6.53-1.84-1.67-5.22-1.35-9.84,3.12-12.31,4.91-2.72,9.12.56,10.46,6.32,1.14,4.89,7.67,3,6.53-1.84C247.81,159.25,239.59,153.83,231.24,157.11Z"/><path class="cls-8" d="M219.2,190.15c-.56-2-1.95-3.67-4-3.44a3.51,3.51,0,0,0-2.78,4.24c.81,3,2.19,8.09-.22,10.29-3.41,3.12-7.38-1.67-8.95-5-2.11-4.5-8.33-1.72-6.2,2.81,3.52,7.5,10.16,13,17.44,9.78C221.08,205.88,221.09,197,219.2,190.15Z"/><path class="cls-3" d="M268.71,178c1.78,4.44-1.86,10.29-8.12,13.07s-12.8,1.44-14.59-3,1.86-10.29,8.13-13.08S266.93,173.59,268.71,178Z"/><path class="cls-3" d="M173.13,213.42c1.78,4.43-1.85,10.29-8.12,13.07s-12.8,1.45-14.58-3,1.85-10.29,8.12-13.08S171.35,209,173.13,213.42Z"/><path class="cls-11" d="M183.37,51.6c-6-8.63-15.89-13.65-26.21-11.13s-16.25,12.6-16.35,23.1c0,3.89,5.83,3.89,5.86,0,.07-7.89,4.05-15,11.68-17.19s15.49,1.85,20,8.26C180.49,57.77,185.57,54.76,183.37,51.6Z"/><path class="cls-11" d="M199.26,48.13a44.78,44.78,0,0,0-13.63-15.48,39.88,39.88,0,0,0-18.22-6.44c-6.79-.77-14.33-.29-20.75,2.2a33,33,0,0,0-15.29,12.52c-5.42,8-7.22,18.21-5.68,27.76.47,2.89,4.72,1.66,4.26-1.21-2.09-12.92,3.59-26.74,14.84-33.21,6-3.41,13.13-4,19.82-3.73A36.32,36.32,0,0,1,182.44,36a38.86,38.86,0,0,1,13,14.48C196.85,53,200.67,50.69,199.26,48.13Z"/><path class="cls-12" d="M48.35,352.2c-5.06,1.22-3.22,9.3,1.84,8.08S53.41,351,48.35,352.2Z"/><path class="cls-12" d="M107,333c-14.81,4.73-29.53,9.79-44.34,14.52-4.85,1.55-2.52,9.29,2.33,7.74,14.81-4.73,29.53-9.79,44.34-14.52C114.14,339.17,111.81,331.43,107,333Z"/><path class="cls-12" d="M121.79,328c-4.94,1.19-3.15,9.08,1.8,7.89S126.73,326.78,121.79,328Z"/><path class="cls-12" d="M351.09,239.78c-4.7,2.27-1.28,9.78,3.43,7.51S355.8,237.51,351.09,239.78Z"/><path class="cls-12" d="M404.56,208.47c-13.53,7.79-26.91,15.88-40.45,23.67-4.43,2.55-.6,9.63,3.84,7.08,13.53-7.8,26.91-15.88,40.45-23.67C412.83,213,409,205.92,404.56,208.47Z"/><path class="cls-12" d="M418.06,200.4c-4.59,2.23-1.25,9.56,3.35,7.34S422.66,198.18,418.06,200.4Z"/><path class="cls-12" d="M292.48,320.06c-1.34-4.38-7.93-2.25-6.6,2.13S293.81,324.43,292.48,320.06Z"/><path class="cls-12" d="M312.17,370.44c-4.87-12.74-10-25.38-14.88-38.12-1.6-4.17-7.88-1.63-6.28,2.54,4.87,12.75,10,25.38,14.88,38.12C307.48,377.15,313.77,374.61,312.17,370.44Z"/><path class="cls-12" d="M291.43,142.55c0-2.42-2.8-4.06-4.89-3.74-2.54.4-3.67,2.62-3.63,5,.19,10.63-3.05,21.92-6.82,31.72-2,5.31,6,8.62,8,3.3C288.46,167.49,291.65,154.85,291.43,142.55Z"/><path class="cls-12" d="M289.93,123.43c-5.15-2.13-8.36,6.09-3.21,8.22S295.09,125.56,289.93,123.43Z"/><path class="cls-12" d="M277.13,186.93c-5.16-2.13-8.37,6.1-3.21,8.23S282.28,189.06,277.13,186.93Z"/><path class="cls-12" d="M157.77,237.91c1.89.37,3.62-1.63,3.72-3.41.12-2.16-1.43-3.46-3.32-3.83-8.3-1.61-16.54-6.14-23.54-10.87-3.79-2.57-7.69,3.47-3.89,6C138.86,231.33,148.17,236.05,157.77,237.91Z"/><path class="cls-12" d="M172.9,239.85c2.51-3.9-3.36-7.91-5.87-4S170.38,243.74,172.9,239.85Z"/></g></svg>