<svg xmlns="http://www.w3.org/2000/svg" viewBox="0 0 512 512"><defs><style>.cls-1{fill:#fd809d;}.cls-2{fill:#f49d72;}.cls-3{fill:#ffa4ac;}.cls-4,.cls-9{fill:#fff;}.cls-5,.cls-6{fill:#074785;}.cls-6,.cls-7,.cls-8,.cls-9{fill-rule:evenodd;}.cls-7{fill:#7fcefe;}.cls-8{fill:#7befe5;}.cls-10{fill:#074783;}</style></defs><g id="_03" data-name="03"><path class="cls-1" d="M488.9,303.89c0,14.7-27.11,31.55-71.28,48.55-44.14,16.37-105.37,32.89-173.16,32.27-67.78.62-129-15.9-173.15-32.27C27.14,335.43.06,318.59,0,303.89s27.11-31.55,71.28-48.56c44.14-16.36,105.37-32.89,173.15-32.27,67.79-.61,129,15.91,173.16,32.28C461.79,272.34,488.87,289.19,488.9,303.89Z"/><path class="cls-2" d="M244.46,36c-55.67-.7-106.63,32-143.26,74.09-36.69,43.12-59.06,95.55-58.9,158.77,130.67,54.35,273.66,54.35,404.33,0,.16-63.23-22.21-115.65-58.9-158.77C351.1,68,300.14,35.3,244.46,36Z"/><path class="cls-3" d="M451.83,277.21a736.7,736.7,0,0,1-414.19,0l4.53-20.06a720.43,720.43,0,0,0,405.12,0Q449.56,267.18,451.83,277.21Z"/><path class="cls-3" d="M161.28,59.52l45.91,234.17h76.68L324.59,57.78C300,44,272.82,35.64,244.46,36,214.93,35.63,186.72,44.67,161.28,59.52Z"/><path class="cls-4" d="M240.68,165.23a55.89,55.89,0,1,1-54.27-57.46A55.88,55.88,0,0,1,240.68,165.23Z"/><path class="cls-5" d="M230.55,164.94a41.32,41.32,0,1,1-40.12-42.5A41.32,41.32,0,0,1,230.55,164.94Z"/><path class="cls-4" d="M222.84,147.11c-4.64-6.58-10.3-12-17.93-14.88-3.42-1.3-5.06,4.14-1.66,5.43,6.12,2.33,10.88,6.88,14.61,12.17C219.93,152.78,224.94,150.11,222.84,147.11Z"/><path class="cls-4" d="M195.94,128.57c-.88-.2-1.75-.44-2.63-.64a2.84,2.84,0,1,0-1.67,5.42l2.63.65a2.89,2.89,0,0,0,3.55-1.88A2.86,2.86,0,0,0,195.94,128.57Z"/><path class="cls-4" d="M226.71,157.06a2.84,2.84,0,0,0-3.85-1.13,2.89,2.89,0,0,0-1.13,3.84v-.09a2.84,2.84,0,1,0,5.67.15A7,7,0,0,0,226.71,157.06Z"/><path class="cls-4" d="M221.71,159.76a.59.59,0,0,1,0,.13v-.12C221.41,159,221.65,159.57,221.71,159.76Z"/><path class="cls-4" d="M221.73,159.89c0,.42,0,.22,0,0Z"/><polygon class="cls-4" points="221.73 159.78 221.73 159.77 221.73 159.77 221.73 159.78"/><path class="cls-4" d="M362,157.38a55.88,55.88,0,1,1-54.26-57.47A55.87,55.87,0,0,1,362,157.38Z"/><path class="cls-5" d="M343.8,157.89a41.32,41.32,0,1,1-40.11-42.48A41.31,41.31,0,0,1,343.8,157.89Z"/><path class="cls-4" d="M336.09,140.06c-4.63-6.57-10.3-12-17.91-14.87-3.44-1.3-5.07,4.14-1.67,5.43,6.12,2.32,10.88,6.88,14.6,12.17C333.19,145.74,338.2,143.06,336.09,140.06Z"/><path class="cls-4" d="M309.2,121.53c-.88-.2-1.75-.44-2.63-.64a2.89,2.89,0,0,0-3.55,1.87,2.86,2.86,0,0,0,1.88,3.55c.88.21,1.76.44,2.63.64a2.89,2.89,0,0,0,3.55-1.88A2.85,2.85,0,0,0,309.2,121.53Z"/><path class="cls-4" d="M340,150a2.84,2.84,0,0,0-3.85-1.12,2.88,2.88,0,0,0-1.13,3.84s0-.06,0-.1a2.88,2.88,0,0,0,2.76,2.91,2.83,2.83,0,0,0,2.91-2.75A6.9,6.9,0,0,0,340,150Z"/><path class="cls-4" d="M335,152.72a.5.5,0,0,1,0,.13.48.48,0,0,1,0-.12C334.67,152,334.91,152.53,335,152.72Z"/><path class="cls-4" d="M335,152.85c0,.42,0,.21,0,0Z"/><path class="cls-4" d="M335,152.74h0Z"/><path class="cls-6" d="M266.91,211c-1.54-7-12.82-6.14-11.26,1,1.24,5.64,1.29,11.88-5.74,12.4-6.68.5-7.78-5.61-8.3-10.91-.71-7.24-12-6.29-11.26,1,1.22,12.44,7.21,21.2,20.53,21.2S269.37,222.19,266.91,211Z"/><path class="cls-7" d="M301.08,466.7c-16.37,0-31.47-10.7-35.14-24.87a41,41,0,0,1,2.51-27.23q3.72-8.49,7.45-17,41.22-93.76,81.69-187.86c19.31-44.66-6.77-98.41,22.15-139.52,6.86-9.75,16.85-18.25,28.63-21.08,7.24-1.73,24.18-5.16,20.48,7.72-1.7,5.91-5.21,11.05-7.75,16.6-3.32,7.27-5.47,15-9,22.21-8,16.33,33.66,34.62,45.54,27.38a13.11,13.11,0,0,0,5.58-7.28c4.4-12.12,9.2-24.08,14.19-36,1.58-3.75,3-9.26,8.09-9.26,15.61,0,22.84,20,25.29,32.31,3.25,16.39-.76,33.12-8.6,47.63-8.57,15.88-24.4,26.59-37.46,38.56-7.73,7.09-15.72,14.41-23.3,21.84-7.78,7.61-12.73,17.61-16.18,25.47-16.92,38.6-33.49,77.35-50.24,116q-12.5,28.83-25.17,57.57c-6.74,15.19-12.39,35.59-24.86,47.25A34.38,34.38,0,0,1,301.08,466.7Z"/><path class="cls-6" d="M316.27,425.88A7.84,7.84,0,0,1,306,430l-6-2.54a7.84,7.84,0,0,1-4.17-10.27l74.8-176.78a7.84,7.84,0,0,1,10.27-4.17l6,2.55a7.83,7.83,0,0,1,4.16,10.27Z"/><path class="cls-8" d="M510.79,102.89c-2.45-12.36-9.68-32.31-25.29-32.31-5,0-6.51,5.51-8.09,9.26-5,11.89-9.79,23.85-14.19,36a13.11,13.11,0,0,1-5.58,7.28c-11.88,7.24-53.57-11-45.54-27.38,3.53-7.18,5.68-14.94,9-22.21,2.54-5.55,6-10.69,7.75-16.6,3.7-12.88-13.24-9.45-20.48-7.72a40.24,40.24,0,0,0-9.21,3.51c-5.45,12.77-6.94,29.71-7.41,40.54-.66,22.85,3.91,39.83,19.58,56.81,16.29,17.24,48.37,25.34,74.37,20.71,6.44-6,12.32-12.51,16.49-20.23C510,136,514,119.28,510.79,102.89Z"/><path class="cls-9" d="M242.28,61.58c8.11-.55,7.92-13.26-.82-12.69C232.61,49.72,234.07,62.35,242.28,61.58Z"/><path class="cls-9" d="M150.9,98.58c20.85-14.35,43.89-25.48,68-31.9,7.78-2,5.32-14.14-3.07-12-25.48,6.78-49.85,18.51-71.9,33.67C136.68,93.44,144.18,103.32,150.9,98.58Z"/><path class="cls-9" d="M131,114.53c6.59-4.88-.28-15.21-7.38-10C116.6,110,124.49,119.59,131,114.53Z"/><path class="cls-9" d="M108.38,334.13c-7-4.2-14.1,6.33-6.6,10.87C109.5,349.39,115.55,338.21,108.38,334.13Z"/><path class="cls-9" d="M204.46,356.21c-25.31-.2-50.57-4.29-74-12.84C123,340.52,118,351.9,126.1,355c24.76,9,51.46,13.41,78.21,13.64C213.17,368.57,212.68,356.18,204.46,356.21Z"/><path class="cls-9" d="M229.92,354.57c-8.19.21-8.48,12.62.34,12.4C239.12,366.52,238.14,354.15,229.92,354.57Z"/><path class="cls-4" d="M409.46,192.14c-.67-.64-2.09-9.72-3.31-9.64s-2.22,9.11-2.78,9.7c-1.14,1.2-9.51,2.12-9.43,3.27s8.31,1.63,9.48,2.75c.66.62,2.09,9.72,3.31,9.64s2.2-9.08,2.78-9.7c1.1-1.16,9.54-2.12,9.46-3.27S410.59,193.22,409.46,192.14Z"/><path class="cls-10" d="M101.59,222.15c-.67-.64-2.09-9.72-3.31-9.63s-2.22,9.1-2.78,9.7c-1.14,1.2-9.51,2.11-9.43,3.27s8.31,1.63,9.48,2.74c.66.63,2.09,9.73,3.32,9.65s2.19-9.08,2.78-9.7c1.09-1.16,9.53-2.12,9.45-3.27S102.72,223.23,101.59,222.15Z"/><path class="cls-10" d="M445.05,302.92c-.67-.65-2.09-9.73-3.31-9.64s-2.21,9.1-2.78,9.7c-1.14,1.2-9.51,2.11-9.43,3.27s8.31,1.63,9.48,2.75c.66.62,2.09,9.72,3.32,9.64s2.19-9.08,2.78-9.7c1.09-1.16,9.53-2.11,9.45-3.27S446.18,304,445.05,302.92Z"/><path class="cls-4" d="M299.78,449.66a4.59,4.59,0,1,1-4.62-4.54A4.58,4.58,0,0,1,299.78,449.66Z"/></g></svg>