<svg xmlns="http://www.w3.org/2000/svg" viewBox="0 0 500 500"><defs><style>.cls-1{fill:#ffa4ac;}.cls-2{fill:#f1854f;}.cls-3{fill:#fadd77;}.cls-4,.cls-8{fill:#074785;}.cls-11,.cls-4,.cls-5,.cls-6,.cls-9{fill-rule:evenodd;}.cls-5{fill:#a089e4;}.cls-10,.cls-6{fill:#f9d555;}.cls-7,.cls-9{fill:#fff;}.cls-11,.cls-12{fill:#fd6085;}</style></defs><g id="OBJECTS"><path class="cls-1" d="M456.21,77l-.86,12.72c-124-4.41-244.64-8.25-356.15-.69-10.15.69-20.32,10.48-22.71,21.65C59,194,45.23,274.58,42.91,349.88L29.43,344s15.57,19.67,23,22.37h0a23.07,23.07,0,0,0,10.69,3.05c125.75,4.49,248.08,8.53,361.07.87,10.15-.69,20.31-10.48,22.71-21.66,17.58-83.5,31.32-164.32,33.59-239.8A16.4,16.4,0,0,0,478,99.63v0C475.1,94.1,456.21,77,456.21,77Z"/><path class="cls-2" d="M406.47,352.22c10.16-.69,20.31-10.49,22.7-21.66,17.6-83.51,31.33-164.32,33.61-239.8.3-10.08-8.92-18.49-20.25-18.93C316.77,67.35,194.44,63.31,81.46,71c-10.16.69-20.32,10.49-22.71,21.66C41.16,176.13,27.42,257,25.15,332.42c-.31,10.08,8.91,18.49,20.25,18.93C171.15,355.84,293.49,359.87,406.47,352.22Z"/><path class="cls-3" d="M367.63,324.31c8.13-.64,16.12-8.64,17.86-17.69,12.78-67.59,22.27-133,23.16-194.13.13-8.17-7.37-14.92-16.49-15.19-101.09-2.73-199.52-5.56-289.93,1.57-8.13.64-16.11,8.64-17.86,17.69-12.77,67.59-22.26,133-23.16,194.13-.12,8.18,7.38,14.92,16.5,15.2C178.79,328.61,277.23,331.45,367.63,324.31Z"/><path class="cls-4" d="M324.62,294.77q-2.94-3.93-5.89-7.83l-.08-.12a12.58,12.58,0,0,0-1.17-1.63,3.3,3.3,0,0,1-.28-.35l-3.08-4.27c-.6-.79-1.17-1.61-1.76-2.48-.9-1.32-1.83-2.67-3-4.11-3-4.32-7.74-2.72-10.2-.58a10.63,10.63,0,0,0-3.73,7.48c0,.54,0,1,0,1.24s.26,10,.26,10l.08,1.65c0,.86.08,1.72.11,2.59l.24,7.15.11,3.26q.09,2.91.19,5.83a6.88,6.88,0,0,0,.64,3.28l19.12,58.44q14.85-.18,29.53-.55l5-.27-24.93-76.44A5.89,5.89,0,0,0,324.62,294.77Z"/><path class="cls-5" d="M417.19,421.52a9.3,9.3,0,0,0-.94-2.9s-4.45-7.94-7.52-13.44a3.31,3.31,0,0,0-.31-.66c-.27-.46-.55-.91-.82-1.36L405.85,400a3.1,3.1,0,0,0-.65-.83C344.59,299,337.31,287,336.39,285.48a8.77,8.77,0,0,0-2.28-2.67c-5.53-4.8-10.76-9.93-16.5-14.55a10.93,10.93,0,0,0-7.44-2.85,13,13,0,0,0-8.1,2.92,10.19,10.19,0,0,0-3.89,9.25,9.44,9.44,0,0,0,.27,1.26c1.65,7.26,3.36,14.5,5.08,21.73a8.16,8.16,0,0,0,1.56,3.63l70.7,116.52c.09.15.2.29.31.44l8.37,14.14c.92,1.63,3.71,5.31,10,5.31a17.53,17.53,0,0,0,3.6-.39,24,24,0,0,0,5.19-1.76c.93-.42,1.86-.89,2.75-1.39a25.78,25.78,0,0,0,9.21-7.93A10.68,10.68,0,0,0,417.19,421.52Z"/><path class="cls-6" d="M408.73,405.18a3.31,3.31,0,0,0-.31-.66c-.27-.46-.55-.91-.82-1.36L405.85,400a3.1,3.1,0,0,0-.65-.83q-1.83-3-3.61-6a7.26,7.26,0,0,0-1.94.82l-7.51,4.64a118.19,118.19,0,0,1-14.89,7.21l-7.38,3a7.6,7.6,0,0,0-1,.49l6.91,11.38c.09.15.2.29.31.44l4.9,8.27a7.59,7.59,0,0,0,1.44-.36l6.45-2.31c14.47-5.18,20.93-10.32,22.07-11.29l2.39-2Z"/><path class="cls-7" d="M379.18,369.46c-7.54-11.45-13.84-23.57-21-35.24-2.41-3.91-9.28.61-6.91,4.48,7.16,11.66,13.46,23.78,21,35.23C374.81,377.78,381.69,373.28,379.18,369.46Z"/><path class="cls-7" d="M386.21,383.15c2.42-4.34-4.82-7-7.25-2.64S383.78,387.49,386.21,383.15Z"/><path class="cls-7" d="M352.49,325.38c2.43-4.34-4.81-7-7.24-2.65S350.06,329.72,352.49,325.38Z"/><path class="cls-7" d="M78.18,221.45c-.16,12.94-2.57,26-2.74,38.92-.07,5.83,10.17,4.2,10.24-1.61.17-12.94,2.58-26,2.74-38.91C88.5,214,78.26,215.64,78.18,221.45Z"/><path class="cls-7" d="M79.79,203.34c-2.92,5.5,6.3,8.64,9.22,3.13S82.71,197.83,79.79,203.34Z"/><path class="cls-7" d="M73.86,276.54c-2.92,5.5,6.3,8.64,9.22,3.13S76.78,271,73.86,276.54Z"/><path class="cls-7" d="M384.65,196c-.94,12.91-4.13,25.81-5.07,38.73-.42,5.82,9.9,4.68,10.32-1.11.94-12.92,4.13-25.82,5.07-38.73C395.4,189.08,385.07,190.22,384.65,196Z"/><path class="cls-7" d="M387.34,178c-3.24,5.35,5.78,8.92,9,3.57S390.59,172.65,387.34,178Z"/><path class="cls-7" d="M377,250.82c-3.25,5.36,5.76,8.93,9,3.57S380.28,245.47,377,250.82Z"/><path class="cls-1" d="M70,108.35a5.81,5.81,0,0,0-5.84,4.33c-3.86,12.46-7.44,25-8.59,37.69-.53,5.82,9.62,6.3,10.15.42,1.16-12.68,4.73-25.22,8.59-37.69C75,110.66,72.48,108.46,70,108.35Z"/><path class="cls-1" d="M53.71,166.33c-2.7,5.57,6.67,8.39,9.37,2.82S56.41,160.75,53.71,166.33Z"/><path class="cls-8" d="M440.59,219.34c-.76,6.45-7.09,11.67-14.14,11.67s-12.15-5.22-11.39-11.67,7.09-11.67,14.13-11.67S441.34,212.9,440.59,219.34Z"/><path class="cls-8" d="M191.41,131.79a7.12,7.12,0,0,0,4.41-7.73,7.46,7.46,0,0,0-7.76-6.3,80.06,80.06,0,0,0-28.62,6.13c-4.08,1.69-5.88,5.82-4.25,9.63a7.51,7.51,0,0,0,10,3.79,63.61,63.61,0,0,1,23.13-4.89,8.38,8.38,0,0,0,3.07-.63Z"/><path class="cls-8" d="M305,133.25c-2.84-1.32-3.88-4.42-2.58-7.73a10,10,0,0,1,9.24-6.3,69.19,69.19,0,0,1,27.17,6.13c3.68,1.69,4.51,5.83,2,9.63s-7.24,5.46-10.91,3.79a55.11,55.11,0,0,0-22-4.89,7.19,7.19,0,0,1-2.92-.63Z"/><path class="cls-9" d="M355.24,196.53c-3.69,31.44-31.4,56.92-61.87,56.92S241.2,228,244.89,196.53s31.4-56.91,61.87-56.91S358.94,165.1,355.24,196.53Z"/><path class="cls-4" d="M337.16,196.53c-2.43,20.62-20.59,37.33-40.57,37.33s-34.21-16.71-31.79-37.33,20.59-37.31,40.57-37.31S339.58,175.93,337.16,196.53Z"/><polygon class="cls-6" points="260.43 241.04 331.94 218.08 358.7 242.5 280.25 260.75 260.43 241.04"/><path class="cls-10" d="M267.66,246c10.24-7.43,23.24-11.84,35.75-14.47,13.91-2.92,28.48-3.26,41.56.19,7.59,2,12.19-8.83,4.62-10.83-15.24-4-32.06-3.46-48.26-.19-14.68,3-29.57,8.59-41.66,17.36-6.65,4.82,1.37,12.74,8,7.94Z"/><path class="cls-9" d="M128.29,196.53c-3.7,31.44,18,56.92,48.48,56.92s58.17-25.48,61.87-56.92-18-56.91-48.48-56.91S132,165.1,128.29,196.53Z"/><path class="cls-4" d="M146.38,196.53c-2.43,20.62,11.8,37.33,31.78,37.33s38.14-16.71,40.57-37.33-11.81-37.31-31.79-37.31S148.8,175.93,146.38,196.53Z"/><polygon class="cls-6" points="212.63 241.04 146.53 218.08 114.02 242.5 188.17 260.75 212.63 241.04"/><path class="cls-10" d="M205.57,245.54c-8.49-7.43-20.46-11.85-32.34-14.47a91.69,91.69,0,0,0-41.61.19c-8.07,2-10.11-8.83-2.07-10.83,16.18-4,32.87-3.46,48.3-.19,14,3,27.55,8.59,37.58,17.35,5.51,4.83-4.37,12.74-9.86,7.95Z"/><path class="cls-7" d="M210.72,197.35c-.6-8.18-2.94-15.73-8.75-21.81-2.61-2.74-7.54,1.6-5,4.31,4.67,4.89,6.62,11.25,7.11,17.83C204.38,201.35,211,201.08,210.72,197.35Z"/><path class="cls-7" d="M195.28,168.14c-.75-.58-1.47-1.18-2.22-1.77a3.69,3.69,0,0,0-4.67.18c-1.28,1.11-1.57,3.14-.28,4.13.74.59,1.46,1.19,2.22,1.77a3.69,3.69,0,0,0,4.67-.17C196.27,171.16,196.56,169.13,195.28,168.14Z"/><path class="cls-7" d="M208.51,208.34c.25-1.6-1.46-2.85-3.13-2.76a3.61,3.61,0,0,0-3.46,3.07.9.9,0,0,1,.05-.09,2.62,2.62,0,0,0,1,3.94,3.8,3.8,0,0,0,4.58-1.27A7.29,7.29,0,0,0,208.51,208.34Z"/><path class="cls-7" d="M201.9,208.64l-.06.13a.62.62,0,0,0,.08-.12C202.05,207.81,202,208.43,201.9,208.64Z"/><path class="cls-7" d="M201.84,208.77c-.24.4-.09.21,0,0Z"/><path class="cls-7" d="M201.91,208.66h0Z"/><path class="cls-7" d="M332.14,195.62c-.6-8.19-2.94-15.74-8.75-21.82-2.61-2.73-7.55,1.6-5,4.31,4.66,4.89,6.62,11.25,7.1,17.83C325.8,199.61,332.41,199.34,332.14,195.62Z"/><path class="cls-7" d="M316.7,166.41c-.75-.59-1.47-1.19-2.22-1.77a3.67,3.67,0,0,0-4.67.17c-1.28,1.12-1.57,3.14-.28,4.13.74.59,1.46,1.19,2.22,1.77a3.66,3.66,0,0,0,4.67-.17C317.7,169.42,318,167.4,316.7,166.41Z"/><path class="cls-7" d="M329.93,206.6c.25-1.59-1.46-2.85-3.13-2.76a3.64,3.64,0,0,0-3.47,3.07l.06-.08a2.61,2.61,0,0,0,1,3.93,3.78,3.78,0,0,0,4.57-1.27A7.1,7.1,0,0,0,329.93,206.6Z"/><path class="cls-7" d="M323.32,206.9l-.06.13a.63.63,0,0,0,.07-.12C323.47,206.08,323.38,206.7,323.32,206.9Z"/><path class="cls-7" d="M323.26,207c-.24.4-.09.22,0,0Z"/><path class="cls-7" d="M323.33,206.92h0Z"/><path class="cls-4" d="M203.35,279.89a16.64,16.64,0,0,1-7-15c.54-4.72,1.5-10.43,6.16-14.24A22.34,22.34,0,0,1,220.19,246a24.11,24.11,0,0,1,9.7,3.75c3.66,2.61,6.6.92,10.5-1.1,3.69-1.9,7.38-3.78,11.84-4,7.88-.31,14.81,4.8,16.88,9.87,2.31,5.62.14,11.55-3.14,17.1-1.81,3.05-5.36,5.64-8.12,8.43A83.7,83.7,0,0,0,203.35,279.89Z"/><path class="cls-11" d="M203.35,279.89c20.9-11.58,36.08-11.53,54.5.19C239.33,293.05,218.92,293,203.35,279.89Z"/><path class="cls-12" d="M184.31,245.88c-1,8.21-13.1,14.87-27.09,14.87s-24.56-6.66-23.59-14.87S146.72,231,160.71,231,185.27,237.67,184.31,245.88Z"/><path class="cls-12" d="M343.1,247c-1,8.21-13.09,14.87-27.09,14.87s-24.55-6.66-23.59-14.87,13.1-14.88,27.09-14.88S344.07,238.81,343.1,247Z"/><path class="cls-7" d="M384.28,142c-1-.87-3-13-4.86-12.93S376,141.23,375.12,142c-1.71,1.59-14.3,2.72-14.2,4.26s12.47,2.27,14.21,3.78c1,.84,3,13,4.86,12.93s3.4-12.12,4.29-12.94c1.67-1.54,14.35-2.72,14.25-4.27S386,143.46,384.28,142Z"/><path class="cls-7" d="M121.54,269.62c-1-.86-3-13-4.85-12.92s-3.44,12.15-4.3,12.95c-1.71,1.59-14.3,2.71-14.2,4.26s12.46,2.27,14.21,3.78c1,.83,3,13,4.86,12.93s3.4-12.12,4.29-12.94c1.66-1.54,14.35-2.73,14.24-4.28S123.22,271.08,121.54,269.62Z"/><path class="cls-2" d="M124.19,306.19H95.72c-8.75,0-8.75,12.08,0,12.08h28.47C132.93,318.27,132.93,306.19,124.19,306.19Z"/><path class="cls-2" d="M159.49,305.58a77,77,0,0,1-10.41.05c-3.67-.34-7.23,1.09-8.1,4.57a6.07,6.07,0,0,0,5.13,7.22,102.65,102.65,0,0,0,14,.22c3.69-.16,6.62-3,6.44-6.32S163.18,305.42,159.49,305.58Z"/><path class="cls-2" d="M130.57,103.6a83,83,0,0,1-11,.06c-3.9-.37-7.67,1.15-8.6,4.85a6.45,6.45,0,0,0,5.44,7.65,107.25,107.25,0,0,0,14.89.23c3.92-.16,7-3.21,6.84-6.7S134.49,103.43,130.57,103.6Z"/><path class="cls-7" d="M328,76.16c-32,0-63.92-.33-95.88-.34-7.42,0-7.42,10.24,0,10.25,32,0,63.92.33,95.88.34C335.46,86.41,335.46,76.16,328,76.16Z"/><path class="cls-7" d="M348,77.19c-7.43,0-7.43,10.24,0,10.24S355.41,77.19,348,77.19Z"/><path class="cls-7" d="M211.06,76.16c-7.42,0-7.42,10.25,0,10.25S218.48,76.16,211.06,76.16Z"/><path class="cls-7" d="M241.86,336.4c-29,0-58-.31-86.94-.31a4.66,4.66,0,1,0,0,9.29c29,0,58,.3,86.94.31A4.66,4.66,0,1,0,241.86,336.4Z"/><path class="cls-7" d="M260,337.33a4.66,4.66,0,1,0,0,9.29A4.66,4.66,0,1,0,260,337.33Z"/><path class="cls-7" d="M135.79,336.4a4.66,4.66,0,1,0,0,9.29A4.66,4.66,0,1,0,135.79,336.4Z"/><path class="cls-1" d="M442.08,125.78c.64-6.59-10.83-7.43-11.47-.85-.94,9.7-2.92,19.32-3.28,29.06-.24,6.58,11.23,7.46,11.47.85C439.16,145.09,441.14,135.48,442.08,125.78Z"/><path class="cls-1" d="M430,168.58c-3.12-.23-5.94,1.9-6.2,4.68l-.76,8.17c-.26,2.79,2.13,5.3,5.25,5.53s6-1.9,6.21-4.68l.76-8.17C435.53,171.33,433.14,168.81,430,168.58Z"/><path class="cls-8" d="M329.68,287.23c-2.26,6.54-13.87,10.07-20.81,9.14-3.64-.48-5.2,4.46-1.54,4.94,10.16,1.35,24.62-3.23,27.9-12.72C336.32,285.43,330.77,284.08,329.68,287.23Z"/></g></svg>