<svg xmlns="http://www.w3.org/2000/svg" viewBox="0 0 500 500"><defs><style>.cls-1{fill:#9c85e0;}.cls-2{fill:#c6b8ef;}.cls-10,.cls-3{fill:#074785;}.cls-4,.cls-9{fill:#fff;}.cls-5{fill:#7befe5;}.cls-6{fill:#b3a1e9;}.cls-7{fill:#95f2ea;}.cls-8{fill:#29aefd;}.cls-10,.cls-9{fill-rule:evenodd;}</style></defs><g id="OBJECTS"><path class="cls-1" d="M320.89,418.67c1.63,9.45-4.89,17.18-14.48,17.18H204c-9.59,0-16.1-7.73-14.47-17.18l16-93c1.62-9.45,10.79-17.18,20.38-17.18h58.6c9.59,0,18.76,7.73,20.39,17.18Z"/><path class="cls-2" d="M320.89,418.67c1.63,9.45-4.89,17.18-14.48,17.18H204c-9.59,0-16.1-7.73-14.47-17.18l16-93c1.62-9.45,10.79-17.18,20.38-17.18h58.6c9.59,0,18.76,7.73,20.39,17.18Z"/><path class="cls-3" d="M310.17,356.44l-5.29-30.73c-1.63-9.45-10.8-17.18-20.39-17.18h-58.6c-9.59,0-18.76,7.73-20.38,17.18l-5.33,30.91C236.81,357.22,273.56,357.15,310.17,356.44Z"/><path class="cls-4" d="M213.22,364.29c-2.72-.57-6.07,1.27-6.45,4.22-1,8-3.63,15.67-5.07,23.6-1.24,6.91,9.42,9.14,10.67,2.23,1.43-7.93,4-15.59,5.07-23.6C217.82,367.8,216.3,364.93,213.22,364.29Z"/><path class="cls-4" d="M203,404.75c-7,.44-6.34,11.31.68,10.88S210,404.31,203,404.75Z"/><path class="cls-5" d="M306.78,386.08c-1.06-6.18-2.7-12.29-3.43-18.52-.35-2.95-2.22-5.45-5.45-5.45-2.7,0-5.8,2.49-5.45,5.45.86,7.22,2.6,14.26,3.83,21.42.5,2.93,4.05,4.53,6.7,3.8C306.05,391.94,307.28,389,306.78,386.08Z"/><path class="cls-6" d="M456.29,302.2c-1.86,15.76-16.42,29.51-31.76,30.51a3056.2,3056.2,0,0,1-349.06,0c-15.34-1-29.9-14.75-31.76-30.51a1046.45,1046.45,0,0,1,0-222.82c1.86-15.76,16.42-29.52,31.76-30.52a3060.8,3060.8,0,0,1,349.06,0c15.34,1,29.9,14.76,31.76,30.52A1047.77,1047.77,0,0,1,456.29,302.2Z"/><path class="cls-7" d="M419.69,289.51c-.83,5.84-6.24,10.87-11.95,11.24a2835.94,2835.94,0,0,1-322.57,0c-5.72-.37-11.12-5.4-12-11.24a774.26,774.26,0,0,1,0-200c.83-5.84,6.23-10.88,12-11.24a2835.94,2835.94,0,0,1,322.57,0c5.71.36,11.11,5.4,11.95,11.24A775.15,775.15,0,0,1,419.69,289.51Z"/><path class="cls-3" d="M271.41,61.31a3.88,3.88,0,0,1-4,3.73H242.56a3.88,3.88,0,0,1-4-3.73V55.66a3.88,3.88,0,0,1,4-3.72h24.86a3.87,3.87,0,0,1,4,3.72Z"/><path class="cls-4" d="M388.85,110.35c-.94-.92-2.83-13.69-4.54-13.59s-3.22,12.78-4,13.61c-1.61,1.68-13.4,2.86-13.3,4.48s11.67,2.39,13.3,4c.92.88,2.83,13.7,4.55,13.6s3.18-12.74,4-13.6c1.56-1.62,13.43-2.87,13.33-4.5S390.42,111.88,388.85,110.35Z"/><path class="cls-4" d="M108.72,215.2c-.94-.92-2.83-13.69-4.54-13.59s-3.22,12.78-4,13.61c-1.6,1.68-13.38,2.86-13.28,4.49s11.66,2.38,13.29,4c.92.88,2.83,13.69,4.55,13.59s3.19-12.74,4-13.6c1.56-1.62,13.43-2.87,13.33-4.49S110.3,216.73,108.72,215.2Z"/><path class="cls-3" d="M204.41,109.88c2.66-1.31,3.92-4.41,3.11-7.71A7.82,7.82,0,0,0,200,95.88a60.23,60.23,0,0,0-24.8,6.11c-3.45,1.7-4.61,5.82-2.77,9.62s5.87,5.45,9.3,3.78a47.77,47.77,0,0,1,20.05-4.87,6.35,6.35,0,0,0,2.66-.64Z"/><path class="cls-3" d="M305.57,111.34c-2.66-1.31-3.92-4.41-3.11-7.71A7.82,7.82,0,0,1,310,97.34a60.15,60.15,0,0,1,24.79,6.11c3.45,1.7,4.62,5.82,2.78,9.62s-5.87,5.45-9.31,3.79a47.63,47.63,0,0,0-20-4.88,6.43,6.43,0,0,1-2.66-.64Z"/><path class="cls-8" d="M195.89,263.45c-2.21,6.68-12.36,9.32-22.65,5.91s-16.86-11.6-14.64-18.27,12.35-9.33,22.65-5.92S198.1,256.77,195.89,263.45Z"/><path class="cls-8" d="M314,263.45c2.21,6.68,12.36,9.32,22.65,5.91s16.85-11.6,14.63-18.28-12.35-9.32-22.65-5.91S311.8,256.77,314,263.45Z"/><path class="cls-9" d="M242.74,181.31c0,31.77-24.25,57.53-54.17,57.53s-54.17-25.76-54.17-57.53,24.25-57.53,54.17-57.53S242.74,149.54,242.74,181.31Z"/><path class="cls-10" d="M227.4,181.31c0,23.54-17.61,42.62-39.32,42.62s-39.31-19.08-39.31-42.62,17.6-42.62,39.31-42.62S227.4,157.77,227.4,181.31Z"/><path class="cls-5" d="M191.13,204.64c1.56,4.07.78,9-3.91,10.6-3.48,1.21-7.67-1.46-9.39-6s-.27-9.14,3.2-10.36C185.68,197.3,189.57,200.56,191.13,204.64Z"/><path class="cls-4" d="M163.83,169.89c-1.58,7.12-2.12,15,2.06,21.43,2.22,3.41,8.07,6,11.24,3.56,9-6.9,13.3-18.47,14-29.19.18-2.91-.15-6.77-1.66-9.38-1.06-1.86-3.41-4.32-5.66-4.91-10.75-2.83-17.94,9.6-19.86,17.83Z"/><path class="cls-5" d="M217.22,194.77c-1.48,3.58-4.31,6.72-7.26,6.83-4.83.2-4.3-7.76-3.26-10.5,1-2.52,3-5.73,5.8-6.57C218.86,182.64,218.56,191.51,217.22,194.77Z"/><path class="cls-9" d="M365.08,181.31c0,31.77-24.42,57.53-54.55,57.53S256,213.08,256,181.31s24.43-57.53,54.55-57.53S365.08,149.54,365.08,181.31Z"/><path class="cls-10" d="M349.62,181.31c0,23.54-17.72,42.62-39.58,42.62s-39.58-19.08-39.58-42.62,17.72-42.62,39.58-42.62S349.62,157.77,349.62,181.31Z"/><path class="cls-5" d="M307.45,204.64c1.56,4.07.78,9-3.91,10.6-3.47,1.21-7.68-1.46-9.38-6s-.28-9.14,3.19-10.36C302,197.3,305.9,200.56,307.45,204.64Z"/><path class="cls-4" d="M280.15,169.89c-1.58,7.12-2.12,15,2.06,21.43,2.23,3.41,8.07,6,11.23,3.56,9-6.9,13.31-18.47,14-29.19.19-2.91-.15-6.77-1.65-9.38-1.07-1.86-3.42-4.32-5.66-4.91-10.76-2.83-17.95,9.6-19.86,17.83C280.25,169.45,280.2,169.67,280.15,169.89Z"/><path class="cls-5" d="M333.54,194.77c-1.47,3.58-4.31,6.72-7.26,6.83-4.83.2-4.3-7.76-3.26-10.5,1-2.52,3-5.73,5.8-6.57C335.19,182.64,334.89,191.51,333.54,194.77Z"/><path class="cls-3" d="M268.63,229.39c0-5-7.76-5-7.75,0,0,8.4,1.2,31-12.64,28.87a7.23,7.23,0,0,1-5.18-3.56A24.07,24.07,0,0,1,240,246c-1.17-6-1-12.28-.67-18.34.3-5-7.46-5-7.76,0-.73,12.08-.95,35.65,15.09,38.14,9.26,1.44,16.33-4.2,19.47-12.52C269,245.81,268.64,237.26,268.63,229.39Z"/><path class="cls-5" d="M259.76,317.09A8,8,0,1,0,256.14,328,8.11,8.11,0,0,0,259.76,317.09Z"/><path class="cls-4" d="M390.61,248.33c-.52-.5-1.56-7.55-2.51-7.49s-1.77,7-2.22,7.5c-.88.92-7.37,1.58-7.32,2.47s6.43,1.32,7.33,2.19c.5.49,1.56,7.55,2.5,7.49s1.76-7,2.22-7.49c.86-.9,7.4-1.58,7.34-2.48S391.47,249.17,390.61,248.33Z"/><path class="cls-4" d="M112.27,140.81c-.52-.51-1.56-7.55-2.5-7.49s-1.78,7-2.22,7.5c-.89.92-7.38,1.57-7.33,2.47s6.43,1.31,7.33,2.19c.51.48,1.56,7.54,2.51,7.48s1.76-7,2.22-7.49c.85-.89,7.39-1.58,7.34-2.47S113.14,141.65,112.27,140.81Z"/><path class="cls-9" d="M93.18,357.07a3.43,3.43,0,0,1-3.06,3.83l-8.25.78A3.56,3.56,0,0,1,78,358.5l-.94-8.45a3.43,3.43,0,0,1,3.06-3.83l8.25-.78a3.56,3.56,0,0,1,3.84,3.18Z"/><path class="cls-4" d="M119,67.45c22.61-1.4,45.22-3.13,67.89-2.39,3,.1,5.27-3,5.09-5.78-.19-3.17-2.8-5-5.77-5.09-22.66-.75-45.28,1-67.88,2.39C111.35,57,112,67.89,119,67.45Z"/><path class="cls-4" d="M100.38,69.24c7-.43,6.33-11.31-.68-10.87S93.37,69.68,100.38,69.24Z"/><path class="cls-4" d="M206.34,66.18c7-.44,6.34-11.31-.68-10.88S199.33,66.61,206.34,66.18Z"/><path class="cls-4" d="M437.09,150.13c.56,22.64,1.44,45.31-.16,67.92-.2,3,2.83,5.38,5.58,5.32,3.18-.08,5.1-2.62,5.31-5.58,1.59-22.62.72-45.29.16-67.93C447.81,142.84,436.91,143.11,437.09,150.13Z"/><path class="cls-4" d="M436,131.42c.17,7,11.07,6.76,10.89-.27S435.83,124.4,436,131.42Z"/><path class="cls-4" d="M435.09,237.42c.17,7,11.06,6.76,10.89-.27S434.92,230.4,435.09,237.42Z"/><path class="cls-8" d="M277.59,287.06H262.34c-7,0-7,10.89,0,10.89h15.25C284.61,298,284.61,287.06,277.59,287.06Z"/><path class="cls-8" d="M299.37,287.06H296.1a5.45,5.45,0,0,0,0,10.89h3.27a5.45,5.45,0,1,0,0-10.89Z"/><path class="cls-8" d="M127.85,95.8c6-.2,12.18-.7,18.17.33a5.52,5.52,0,0,0,6.58-4c.66-2.74-1.08-6.08-4-6.59-7-1.2-14-.86-21.08-.63S120.83,96,127.85,95.8Z"/><path class="cls-8" d="M96.88,92.48a5.42,5.42,0,0,0,2.6,3.17,5.85,5.85,0,0,0,4.21.42c-1.6.3-.33.07,0,0s.75-.07,1.13-.09c.86-.07,1.72-.09,2.58-.12A5.45,5.45,0,0,0,107.08,85a44.47,44.47,0,0,0-6.61.67C97.55,86.2,96.08,89.89,96.88,92.48Z"/><path class="cls-8" d="M416.2,163.25c1.54-6.05.08-12,.61-18.06.25-2.95-1.13-5.78-4.27-6.41-2.67-.53-6.16,1.32-6.42,4.27-.52,6,.89,12.19-.6,18.07C403.78,168,414.48,170,416.2,163.25Z"/><path class="cls-5" d="M46.94,184.23c.13,3,3.55,5,6.23,4.53,3.18-.5,4.66-3.27,4.53-6.24a172.39,172.39,0,0,1,2-31.93c1-7-9.83-8.16-10.82-1.22A186.49,186.49,0,0,0,46.94,184.23Z"/><path class="cls-5" d="M56.45,136.89a5.5,5.5,0,0,0,6-4.8l.67-6a5.44,5.44,0,0,0-10.82-1.22l-.67,6A5.49,5.49,0,0,0,56.45,136.89Z"/><path class="cls-8" d="M371.15,287.24c-6.09,1.73-8.67,8.33-7.21,14.14,1.27,5.11,9.15,2.94,7.88-2.17a4.12,4.12,0,0,1,.16-2.85c0-.06.08-.15.14-.26a2.07,2.07,0,0,0,.14-.31l.23-.23c.38-.42.24-.28.83-.44C378.38,293.67,376.22,285.79,371.15,287.24Z"/><path class="cls-4" d="M98,264.31c-6.74.76-13.42,2-20.15,2.73-3.45.39-3.49,5.83,0,5.44,6.73-.75,13.42-2,20.15-2.72C101.46,269.37,101.5,263.92,98,264.31Z"/><path class="cls-4" d="M106.54,263.23c-3.51,0-3.51,5.44,0,5.44S110.06,263.23,106.54,263.23Z"/><path class="cls-3" d="M329.19,428.52a6.56,6.56,0,0,1-6,7.11,798.54,798.54,0,0,1-136.92,0,6.56,6.56,0,0,1-6-7.11c.08-.88.17-1.77.25-2.65a6.59,6.59,0,0,1,7.14-5.91,783.34,783.34,0,0,0,134.22,0,6.59,6.59,0,0,1,7.14,5.91C329,426.75,329.11,427.64,329.19,428.52Z"/></g></svg>