<svg xmlns="http://www.w3.org/2000/svg" viewBox="0 0 512 512"><defs><style>.cls-1{fill:#074785;}.cls-2{fill:#f9b882;}.cls-3{fill:#9bdb71;fill-rule:evenodd;}.cls-4{fill:#fff;}</style></defs><g id="_02" data-name="02"><path class="cls-1" d="M185.23,475.87a9.32,9.32,0,0,1-1.89-.19,9,9,0,0,1-6.8-6.16L133.91,331.09a8.9,8.9,0,0,1,3.86-10.2L493.09,101.13a9.25,9.25,0,0,1,4.83-1.37,9.1,9.1,0,0,1,3.32.63l1.9.73a9,9,0,0,1,5.5,6.21,8.89,8.89,0,0,1-2,8L192.09,472.79A9.15,9.15,0,0,1,185.23,475.87Z"/><path class="cls-2" d="M185.31,476.41a9.25,9.25,0,0,1-8.55-12.8l51.45-124.18a9.25,9.25,0,0,1,8.54-5.71,9.11,9.11,0,0,1,1.47.12l76.66,12.25a9.25,9.25,0,0,1,4.63,16.11L191.4,474.13A9.26,9.26,0,0,1,185.31,476.41Z"/><path class="cls-3" d="M503,94c-16.29-2.71-49.61,11.14-55.64,13.69C410,123.45,371.61,137.08,334,152.47c-87.35,35.77-175.7,69.14-263.26,104.41-20.31,8.18-40.69,16.2-61,24.28C.31,285-.15,291.46.08,294.07S2,303,12.13,305.14L131,329.88a9.32,9.32,0,0,0,6.8-1.22l319.29-200.1-227.5,207a9.25,9.25,0,0,0,4.76,16l172,27.56a23.05,23.05,0,0,0,3.62.29c9.49,0,17.91-5.71,20.47-13.89,0,0,79.94-254.59,80.46-256.23C514,99.49,510.15,95.15,503,94Z"/><path class="cls-1" d="M142.93,214c-18.83,8.15-24.2,27.32-17.22,45.7,3.58,9.42,18.46,4.49,14.86-5-3.91-10.31-3.3-19.76,6.86-25.63,11.14-6.45,20.81-.56,24,10.91,2.71,9.75,17.55,4.73,14.85-5C180.78,215.24,161.89,205.73,142.93,214Z"/><path class="cls-1" d="M300.18,150.93c-19.06,7.62-25,26.6-18.52,45.19,3.29,9.52,18.3,5,15-4.53-3.62-10.42-2.73-19.85,7.59-25.42,11.32-6.12,20.81.05,23.68,11.61,2.42,9.81,17.41,5.23,15-4.53C338,153.3,319.38,143.26,300.18,150.93Z"/><path class="cls-1" d="M260.37,215.81c-1-3.64-3.75-6.45-7.86-5.86-3.36.49-6.89,4.22-5.86,7.87,1.49,5.24,4,14.37-1,18.54-7.07,5.9-14.86-2.4-17.86-8.31-4-7.92-16.78-2.41-12.7,5.58,6.73,13.2,19.89,22.58,34.79,16.15C263.35,244,263.83,228,260.37,215.81Z"/><path class="cls-4" d="M441.33,281.76l30.1-87.14c3.38-9.8-11.82-15.05-15.2-5.25l-30.1,87.14C422.74,286.31,437.94,291.56,441.33,281.76Z"/><path class="cls-4" d="M479,169.45c3.38-9.8-11.81-15-15.2-5.25S475.6,179.25,479,169.45Z"/><path class="cls-4" d="M433.11,308.85c3.38-9.8-11.81-15.06-15.2-5.25S429.72,318.65,433.11,308.85Z"/><path class="cls-4" d="M174.78,406.85,159.61,350c-1.7-6.39-11.62-3.75-9.91,2.64l15.17,56.85C166.58,415.89,176.49,413.25,174.78,406.85Z"/><path class="cls-4" d="M154.63,334c-1.71-6.39-11.62-3.75-9.92,2.65S156.34,340.38,154.63,334Z"/><path class="cls-4" d="M180.1,424.12c-1.7-6.39-11.62-3.75-9.91,2.64S181.81,430.51,180.1,424.12Z"/><path class="cls-1" d="M340.21,307.13c-.82-.8-2.47-11.92-4-11.83s-2.8,11.12-3.5,11.85c-1.4,1.45-11.65,2.49-11.56,3.9s10.15,2.07,11.57,3.45c.79.77,2.46,11.92,4,11.83s2.77-11.08,3.5-11.83c1.35-1.41,11.68-2.5,11.6-3.92S341.58,308.46,340.21,307.13Z"/><path class="cls-4" d="M400.65,218.37c-.82-.79-2.46-11.91-4-11.83s-2.8,11.12-3.49,11.85c-1.4,1.46-11.66,2.49-11.58,3.9s10.16,2.08,11.58,3.45c.79.77,2.46,11.92,4,11.84s2.77-11.09,3.5-11.84c1.35-1.41,11.68-2.49,11.6-3.91S402,219.7,400.65,218.37Z"/><path class="cls-4" d="M139.33,288.36c-.81-.79-2.46-11.91-4-11.83s-2.8,11.12-3.5,11.85c-1.4,1.46-11.65,2.49-11.57,3.9s10.15,2.08,11.57,3.45c.8.77,2.47,11.92,4,11.84s2.77-11.09,3.5-11.84c1.35-1.41,11.69-2.49,11.6-3.91S140.7,289.69,139.33,288.36Z"/><path class="cls-4" d="M47.08,282.15a5.61,5.61,0,1,1-5.61-5.62A5.61,5.61,0,0,1,47.08,282.15Z"/><path class="cls-4" d="M212.4,344.53a5.62,5.62,0,1,1-5.61-5.61A5.62,5.62,0,0,1,212.4,344.53Z"/><path class="cls-4" d="M235.79,413.17a5.61,5.61,0,1,1-5.61-5.61A5.61,5.61,0,0,1,235.79,413.17Z"/><path class="cls-4" d="M270.94,382.26a5.61,5.61,0,1,1-5.61-5.61A5.61,5.61,0,0,1,270.94,382.26Z"/><path class="cls-4" d="M255,292a5.62,5.62,0,1,1-5.61-5.61A5.61,5.61,0,0,1,255,292Z"/><path class="cls-4" d="M326.8,235a5.62,5.62,0,1,1-5.62-5.61A5.61,5.61,0,0,1,326.8,235Z"/><path class="cls-4" d="M387.24,152a5.62,5.62,0,1,1-5.62-5.61A5.62,5.62,0,0,1,387.24,152Z"/><path class="cls-4" d="M392.85,344.67a5.62,5.62,0,1,1-5.61-5.61A5.61,5.61,0,0,1,392.85,344.67Z"/><path class="cls-4" d="M404.07,270.34a5.61,5.61,0,1,1-5.61-5.61A5.62,5.62,0,0,1,404.07,270.34Z"/><path class="cls-4" d="M276.55,330.32a5.61,5.61,0,1,1-5.61-5.61A5.61,5.61,0,0,1,276.55,330.32Z"/><path class="cls-4" d="M201.17,264.73a5.61,5.61,0,1,1-5.61-5.61A5.61,5.61,0,0,1,201.17,264.73Z"/><path class="cls-4" d="M96.07,287a5.61,5.61,0,1,1-5.61-5.61A5.61,5.61,0,0,1,96.07,287Z"/><path class="cls-4" d="M482.61,123.7a5.61,5.61,0,1,1-5.61-5.61A5.61,5.61,0,0,1,482.61,123.7Z"/></g></svg>