<?xml version="1.0" encoding="utf-8"?>
<!-- Generator: Adobe Illustrator 26.0.3, SVG Export Plug-In . SVG Version: 6.00 Build 0)  -->
<svg version="1.1" xmlns="http://www.w3.org/2000/svg" xmlns:xlink="http://www.w3.org/1999/xlink" x="0px" y="0px"
	 viewBox="0 0 500 500" style="enable-background:new 0 0 500 500;" xml:space="preserve">
<style type="text/css">
	.st0{fill-rule:evenodd;clip-rule:evenodd;fill:#FFB6BD;}
	.st1{fill-rule:evenodd;clip-rule:evenodd;fill:#FD809D;}
	.st2{fill:#FFFFFF;}
	.st3{fill:#074785;}
	.st4{fill:#FD6085;}
	.st5{fill-rule:evenodd;clip-rule:evenodd;fill:#FD6085;}
	.st6{fill-rule:evenodd;clip-rule:evenodd;fill:#FFA4AC;}
	.st7{fill-rule:evenodd;clip-rule:evenodd;fill:#FFFFFF;}
	.st8{fill-rule:evenodd;clip-rule:evenodd;fill:#074785;}
	.st9{fill-rule:evenodd;clip-rule:evenodd;fill:#54BEFD;}
	.st10{fill-rule:evenodd;clip-rule:evenodd;fill:#F9D555;}
	.st11{fill-rule:evenodd;clip-rule:evenodd;fill:#95F2EA;}
	.st12{fill-rule:evenodd;clip-rule:evenodd;fill:#29AEFD;}
</style>
<g id="BACKGROUND">
</g>
<g id="OBJECTS">
	<g>
		<g>
			<path class="st0" d="M43.7,56.2c0-7.2,5.8-10.9,12.9-8.2l120,45.6c7.1,2.7,18.6,2.5,25.6-0.4l106.4-44.7c7-2.9,18.5-2.9,25.5,0
				l119.3,49.8c7,2.9,12.7,11.2,12.7,18.4v301c0,7.2-5.8,10.8-12.8,8l-119.1-47.2c-7.1-2.8-18.7-2.9-25.8-0.2l-106.7,40.2
				c-7.1,2.7-18.7,2.6-25.8-0.1L56.6,372c-7.1-2.8-12.9-10.9-12.9-18.1V56.2z"/>
			<path class="st1" d="M321.4,46.3c-4.6,0-9.2,0.7-12.7,2.2L202.3,93.2c-4.6,1.9-11.1,2.7-17,2.2v324.9c5.8,0.5,12-0.1,16.5-1.8
				l106.7-40.2c3.6-1.3,8.3-2,12.9-1.9V46.3z"/>
			<path class="st2" d="M296.6,88.3c0,3.6-3,6.6-6.6,6.6c-3.6,0-6.6-3-6.6-6.6c0-3.6,3-6.6,6.6-6.6
				C293.6,81.7,296.6,84.7,296.6,88.3z"/>
			<path class="st2" d="M88,346.6c0,3.6-3,6.6-6.6,6.6c-3.6,0-6.6-3-6.6-6.6c0-3.6,3-6.6,6.6-6.6C85,340,88,343,88,346.6z"/>
			<path class="st2" d="M228.6,388.6c0,2.3-1.8,4.1-4.1,4.1c-2.3,0-4.1-1.8-4.1-4.1s1.8-4.1,4.1-4.1
				C226.8,384.6,228.6,386.4,228.6,388.6z"/>
			<path class="st2" d="M130,327.1c0,2.3-1.8,4.1-4.1,4.1c-2.3,0-4.1-1.8-4.1-4.1c0-2.3,1.8-4.1,4.1-4.1
				C128.2,323,130,324.8,130,327.1z"/>
			<path class="st2" d="M92.1,220.4c0,2.3-1.8,4.1-4.1,4.1c-2.3,0-4.1-1.8-4.1-4.1c0-2.3,1.8-4.1,4.1-4.1
				C90.2,216.3,92.1,218.2,92.1,220.4z"/>
			<path class="st2" d="M100.2,92.6c0,2.3-1.8,4.1-4.1,4.1c-2.3,0-4.1-1.8-4.1-4.1s1.8-4.1,4.1-4.1C98.4,88.5,100.2,90.3,100.2,92.6
				z"/>
			<path class="st2" d="M373.9,288.7c0,2.3-1.8,4.1-4.1,4.1c-2.3,0-4.1-1.8-4.1-4.1c0-2.3,1.8-4.1,4.1-4.1
				C372,284.6,373.9,286.4,373.9,288.7z"/>
			<path class="st2" d="M397,227.1c0,2.3-1.8,4.1-4.1,4.1c-2.3,0-4.1-1.8-4.1-4.1c0-2.3,1.8-4.1,4.1-4.1
				C395.2,223,397,224.9,397,227.1z"/>
			<path class="st2" d="M348.9,81.7c0,2.3-1.8,4.1-4.1,4.1c-2.3,0-4.1-1.8-4.1-4.1c0-2.3,1.8-4.1,4.1-4.1
				C347.1,77.6,348.9,79.4,348.9,81.7z"/>
			<path class="st2" d="M246.6,92.6c0,2.3-1.8,4.1-4.1,4.1c-2.3,0-4.1-1.8-4.1-4.1s1.8-4.1,4.1-4.1
				C244.8,88.5,246.6,90.3,246.6,92.6z"/>
			<path class="st2" d="M71.8,304c0,2.3-1.8,4.1-4.1,4.1c-2.3,0-4.1-1.8-4.1-4.1c0-2.3,1.8-4.1,4.1-4.1
				C70,299.9,71.8,301.8,71.8,304z"/>
			<path class="st2" d="M207,360.9c0,2.3-1.8,4.1-4.1,4.1c-2.3,0-4.1-1.8-4.1-4.1c0-2.3,1.8-4.1,4.1-4.1
				C205.2,356.8,207,358.7,207,360.9z"/>
			<path class="st2" d="M418.1,380.5c0,2.3-1.8,4.1-4.1,4.1c-2.3,0-4.1-1.8-4.1-4.1c0-2.3,1.8-4.1,4.1-4.1
				C416.3,376.4,418.1,378.2,418.1,380.5z"/>
			<path class="st2" d="M165.1,116.1c0,2.3-1.8,4.1-4.1,4.1c-2.3,0-4.1-1.8-4.1-4.1c0-2.3,1.8-4.1,4.1-4.1
				C163.3,112.1,165.1,113.9,165.1,116.1z"/>
			<path class="st3" d="M435,222.9c-0.6-0.6-1.8-8.7-2.9-8.6c-1.1,0.1-2,8.1-2.5,8.6c-1,1.1-8.5,1.8-8.4,2.8c0.1,1,7.4,1.5,8.4,2.5
				c0.6,0.6,1.8,8.7,2.9,8.6c1.1-0.1,2-8.1,2.5-8.6c1-1,8.5-1.8,8.4-2.9C443.4,224.3,436,223.8,435,222.9z"/>
			<path class="st3" d="M150.5,367.8c-0.6-0.6-1.8-8.7-2.9-8.6c-1.1,0.1-2,8.1-2.5,8.6c-1,1.1-8.5,1.8-8.4,2.8
				c0.1,1,7.4,1.5,8.4,2.5c0.6,0.6,1.8,8.7,2.9,8.6c1.1-0.1,2-8.1,2.5-8.6c1-1,8.5-1.8,8.4-2.8C158.9,369.2,151.5,368.7,150.5,367.8
				z"/>
			<path class="st2" d="M361.3,125.6c-0.6-0.6-1.8-8.7-2.9-8.6c-1.1,0.1-2,8.1-2.5,8.6c-1,1.1-8.5,1.8-8.4,2.8
				c0.1,1,7.4,1.5,8.4,2.5c0.6,0.6,1.8,8.7,2.9,8.6c1.1-0.1,2-8.1,2.5-8.6c1-1,8.5-1.8,8.4-2.8C369.7,127.1,362.3,126.5,361.3,125.6
				z"/>
			<path class="st2" d="M117.5,147.8c-0.6-0.6-1.8-8.7-2.9-8.6c-1.1,0.1-2,8.1-2.5,8.6c-1,1.1-8.5,1.8-8.4,2.8
				c0.1,1,7.4,1.5,8.4,2.5c0.6,0.6,1.8,8.7,2.9,8.6c1.1-0.1,2-8.1,2.5-8.6c1-1,8.5-1.8,8.4-2.8C125.8,149.3,118.4,148.8,117.5,147.8
				z"/>
			<path class="st2" d="M355,341.8c-0.6-0.6-1.8-8.7-2.9-8.6c-1.1,0.1-2,8.1-2.5,8.6c-1,1.1-8.5,1.8-8.4,2.8c0.1,1,7.4,1.5,8.4,2.5
				c0.6,0.6,1.8,8.7,2.9,8.6c1.1-0.1,2-8.1,2.5-8.6c1-1,8.5-1.8,8.4-2.8C363.4,343.3,356,342.8,355,341.8z"/>
			<g>
				<path class="st2" d="M72.3,167.5l-0.1-61.6c0-6.9-10.8-6.9-10.7,0l0.1,61.6C61.6,174.4,72.4,174.4,72.3,167.5z"/>
				<path class="st2" d="M71.5,88.3c0-6.9-10.8-6.9-10.7,0C60.7,95.2,71.5,95.2,71.5,88.3z"/>
				<path class="st2" d="M73.1,186.4c0-6.9-10.8-6.9-10.7,0C62.4,193.3,73.1,193.3,73.1,186.4z"/>
			</g>
			<g>
				<path class="st2" d="M447.3,370.8l-0.1-61.6c0-6.9-10.8-6.9-10.7,0l0.1,61.6C436.6,377.8,447.3,377.8,447.3,370.8z"/>
				<path class="st2" d="M446.5,291.7c0-6.9-10.8-6.9-10.7,0C435.7,298.6,446.5,298.6,446.5,291.7z"/>
				<path class="st2" d="M448.1,389.7c0-6.9-10.8-6.9-10.7,0C437.4,396.7,448.1,396.7,448.1,389.7z"/>
			</g>
			<path class="st4" d="M381.9,310.3c0.1-1.2,6.6-1.9,10.2-2.8c-1.4-3.5-4.7-9.3-3.7-10c0.8-0.6,4.2,2.8,7,5.2c0.9-3.7,2-8.7,3-8.6
				c1.2,0.1,2.2,6.4,3,10.1c3.5-1.5,9.3-4.4,10-3.5c0.6,0.9-2.7,4.6-5.2,7.5c3.7,0.9,8.4,1.7,8.3,2.7c-0.1,1.2-6.7,1.9-10.2,2.8
				c1.4,3.5,4.7,9.3,3.7,10c-0.8,0.6-4.2-2.7-7-5.1c-0.9,3.7-2,8.7-3,8.6c-1.2-0.1-2.2-6.4-3-10.1c-3.5,1.5-9.3,4.4-10,3.5
				c-0.6-0.9,2.8-4.6,5.2-7.5C386.5,312.2,381.8,311.3,381.9,310.3z"/>
			<path class="st4" d="M75.7,264.5c0.1-1.2,6.6-1.9,10.2-2.8c-1.4-3.5-4.7-9.3-3.7-10c0.8-0.6,4.2,2.8,7,5.2c0.9-3.7,2-8.7,3-8.6
				c1.2,0.1,2.2,6.4,3,10.1c3.5-1.5,9.3-4.4,10-3.5c0.6,0.9-2.7,4.6-5.2,7.5c3.7,0.9,8.4,1.7,8.3,2.7c-0.1,1.2-6.7,1.9-10.2,2.8
				c1.4,3.5,4.7,9.3,3.7,10c-0.8,0.6-4.2-2.7-7-5.1c-0.9,3.7-2,8.7-3,8.6c-1.2-0.1-2.2-6.4-3-10.1c-3.5,1.5-9.3,4.4-10,3.5
				c-0.6-0.8,2.8-4.6,5.2-7.5C80.4,266.4,75.7,265.5,75.7,264.5z"/>
		</g>
		<g>
			<g>
				<path class="st5" d="M459.3,65.9c-3.6-23-24.4-33.9-45.3-33.1c-20.9-0.8-41.7,10.1-45.2,33.1c-3.2,20.9,8.4,42.7,15.4,61.7
					c0,0,19.4,47.3,27,62.7c0.4,0.8,2,3.3,2.9,3.3c0.9,0,2.3-2.5,2.7-3.3c7.5-15.4,27.1-62.7,27.1-62.7
					C450.9,108.6,462.5,86.7,459.3,65.9z"/>
			</g>
			<path class="st6" d="M441.9,76.7c0,15.4-12.5,27.8-27.8,27.8c-15.4,0-27.8-12.5-27.8-27.8c0-15.4,12.5-27.8,27.8-27.8
				C429.4,48.9,441.9,61.3,441.9,76.7z"/>
			<path class="st7" d="M407.1,158.9c-3.7-12-9-23.5-12.1-35.7c-0.9-3.8-6.8-2.2-5.8,1.6c3.1,12.2,8.4,23.7,12.1,35.7
				C402.4,164.2,408.3,162.6,407.1,158.9z"/>
			<path class="st7" d="M390,110.1c-3.9,0-3.9,6,0,6C393.9,116.1,393.9,110.1,390,110.1z"/>
			<path class="st7" d="M409.4,165.4c-3.9,0-3.9,6,0,6C413.3,171.5,413.3,165.4,409.4,165.4z"/>
			<path class="st5" d="M435.8,70.7c-0.6-1.9-3.5-1.1-2.9,0.8c2.8,9.4-0.3,20.3-10,24.1c-1.8,0.7-1,3.6,0.8,2.9
				C434.9,94.2,439.1,81.8,435.8,70.7z"/>
		</g>
		<path class="st2" d="M425.9,128.3c0,2.3-1.8,4.1-4.1,4.1c-2.3,0-4.1-1.8-4.1-4.1c0-2.3,1.8-4.1,4.1-4.1
			C424.1,124.2,425.9,126,425.9,128.3z"/>
		<g>
			<path class="st8" d="M239.7,305.2c7.4-0.8,14.5-2.3,21.5-4.7c7-2.4,13.6-5.4,19.9-9.3c0.2,0.4,0.4,0.8,0.5,1.2
				c7.8,22.9,15.6,45.8,23.3,68.8c2.8,8.2,1.1,15.8-4.8,22.1c-5.9,6.3-13.4,8.4-21.8,6.1c-7.1-1.9-12.2-6.5-14.7-13.5
				c-8-23.3-15.9-46.7-23.8-70.1C239.7,305.6,239.7,305.5,239.7,305.2z"/>
			<path class="st9" d="M353.7,260.8c-18.5,62.2-83.9,97.2-146.4,78.6c-61.9-18.5-97.1-83.8-78.6-145.8
				c18.6-62.2,83.8-97.5,146-78.8C337,133.4,372.2,198.6,353.7,260.8z"/>
			<path class="st10" d="M303,466.1c-1.1-0.2-2.3-0.4-3.4-0.8c-9.8-2.7-16.6-9-19.9-18.3c-6.7-19.2-13.4-38.8-19.8-57.7
				c-2.4-7.1-4.9-14.3-7.3-21.4c-0.2-0.5-0.2-0.9-0.3-1.1c0-0.1,0-0.2,0-0.3c-0.2-1.3,0.1-2.6,0.9-3.7c0.8-1.1,2-1.7,3.3-1.9
				c8.2-0.9,15.8-2.5,23.3-5c7.5-2.5,14.6-5.8,21.6-10c1-0.6,2.1-0.8,3.3-0.6c0.2,0,0.5,0.1,0.7,0.2c1.3,0.4,2.4,1.4,2.9,2.7
				c0.1,0.1,0.1,0.3,0.2,0.4c0.2,0.4,0.3,0.8,0.5,1.2c2.4,7,4.8,14,7.2,21c6.4,18.5,12.9,37.7,19.3,56.6c3.7,11.1,1.5,21.3-6.4,29.8
				C322,464.7,313,467.8,303,466.1z"/>
			<path class="st11" d="M214.5,316.6c-49.4-14.8-77.5-67-62.7-116.5c14.7-49,67-77.1,116.3-62.3c49.4,14.8,77.4,66.9,62.5,116.5
				C315.8,303.3,263.6,331.3,214.5,316.6z"/>
			<g>
				<path class="st7" d="M344.2,200.2c-7.7,0.8-6.5,12.7,1.2,11.9C353.1,211.4,351.9,199.5,344.2,200.2z"/>
				<path class="st7" d="M306.4,304.6c-7.7,0.8-6.5,12.7,1.2,11.9C315.3,315.8,314.1,303.8,306.4,304.6z"/>
				<path class="st7" d="M341.9,224.9c-0.1,24.8-6.6,51.7-25.2,69.3c-4.3,4.1,2.2,10.6,6.5,6.5c20.2-19.2,27.8-48.7,27.8-75.8
					C351.1,218.9,341.9,219,341.9,224.9z"/>
			</g>
			<path class="st2" d="M327.7,423c-4.8-5.1-12.8,2.3-8,7.5C324.6,435.6,332.5,428.2,327.7,423z"/>
			<path class="st2" d="M322.7,407.6l-11.7-38c-2.1-6.7-12.5-3.5-10.4,3.2l11.7,38C314.4,417.5,324.8,414.3,322.7,407.6z"/>
			<g>
				<path class="st12" d="M201.9,265.2c1.3,6.7-5.5,13.7-15.2,15.7c-9.7,1.9-18.7-2-20-8.8c-1.3-6.7,5.5-13.7,15.2-15.7
					C191.6,254.5,200.5,258.4,201.9,265.2z"/>
				<path class="st12" d="M324.1,241.2c1.3,6.7-5.5,13.8-15.2,15.7c-9.7,1.9-18.7-2-20-8.8c-1.3-6.7,5.5-13.7,15.2-15.6
					C313.8,230.6,322.7,234.5,324.1,241.2z"/>
				<path class="st2" d="M224.1,213.3c3.3,16.9-8,33.3-25.2,36.7c-17.3,3.4-33.9-7.6-37.2-24.4c-3.3-16.9,8-33.3,25.3-36.7
					C204.1,185.5,220.8,196.4,224.1,213.3z"/>
				<path class="st8" d="M161.6,225.5c3.3,16.9,20,27.8,37.2,24.4c0.8-0.2,1.5-0.3,2.2-0.5c7-29.6-7.1-49.1-18.5-59.4
					C167.8,195.1,158.6,210.1,161.6,225.5z"/>
				<path class="st2" d="M311.1,196.1c3.3,16.9-8,33.3-25.3,36.7c-17.2,3.4-33.9-7.6-37.2-24.4c-3.3-16.9,8-33.3,25.2-36.7
					C291.2,168.3,307.8,179.2,311.1,196.1z"/>
				<path class="st8" d="M248.7,208.3c3.3,16.9,20,27.8,37.2,24.4c0.8-0.1,1.5-0.3,2.3-0.5c7-29.6-7.1-49.1-18.5-59.4
					C254.8,177.9,245.6,192.9,248.7,208.3z"/>
				<path class="st3" d="M162.9,191.1c-2.8,0.5-5.5-1.1-6.7-4c-1.5-3.4-0.6-7.1,2.1-9c6.5-4.7,13.9-7.9,22.1-9.6
					c3.5-0.7,6.8,1.7,7.6,5.6c0.8,3.9-1.3,7.4-4.8,8.1c-6.6,1.3-12.4,3.9-17.8,7.8C164.5,190.6,163.7,191,162.9,191.1L162.9,191.1z"
					/>
				<path class="st3" d="M264,165.7c-2.7-0.7-4.5-3.3-4.4-6.4c0.1-3.7,2.4-6.7,5.7-7.3c7.8-1.6,15.9-1.4,24,0.5
					c3.5,0.9,5.4,4.4,4.5,8.3c-0.9,3.9-4.3,6.2-7.8,5.4c-6.6-1.5-12.9-1.7-19.4-0.4C265.7,165.9,264.9,165.9,264,165.7L264,165.7z"
					/>
				<path class="st3" d="M254.9,235.1c-0.9-5.1-8.8-3.7-7.8,1.4c0.8,4.5,4.4,13.8-1.2,16.4c-6.7,3.1-8.8-7.8-9.4-12.1
					c-0.7-5.1-8.5-3.7-7.8,1.4c1.3,9.5,6.2,20.8,17.7,18.8C259.5,258.7,256.6,244.5,254.9,235.1z"/>
				<g>
					<path class="st2" d="M253.1,199c0,6,1.2,11.7,4.6,16.6c1.5,2.2,4.8-0.4,3.3-2.6c-2.7-4-3.7-8.8-3.7-13.6
						C257.2,196.8,253,196.3,253.1,199z"/>
					<path class="st2" d="M261.5,221.7c0.4,0.5,0.9,1,1.3,1.5c0.8,0.9,2,1.1,3,0.4c0.8-0.7,1.1-2.1,0.4-3c-0.4-0.5-0.9-1-1.3-1.5
						c-0.8-0.9-2-1.1-2.9-0.4C261,219.4,260.8,220.8,261.5,221.7z"/>
					<g>
						<path class="st2" d="M254.9,191.3c-0.2,1.1,0.8,2.2,1.9,2.3c1.2,0.1,2.1-0.7,2.3-1.9c0,0,0,0,0,0.1c0.6-1,0.5-2.2-0.4-2.9
							c-0.9-0.7-2.3-0.5-2.9,0.4C255.3,190,255.1,190.6,254.9,191.3z"/>
						<path class="st2" d="M259.1,191.8C259.1,191.8,259.1,191.7,259.1,191.8C259.1,191.7,259.1,191.7,259.1,191.8
							C259,192.4,259.1,191.9,259.1,191.8z"/>
						<path class="st2" d="M259.2,191.7C259.3,191.4,259.2,191.5,259.2,191.7L259.2,191.7z"/>
						<polygon class="st2" points="259.1,191.8 259.1,191.8 259.1,191.8 						"/>
					</g>
				</g>
				<g>
					<path class="st2" d="M164.9,216.3c0,6,1.2,11.6,4.6,16.6c1.5,2.2,4.8-0.4,3.3-2.6c-2.7-4-3.7-8.8-3.7-13.6
						C169.1,214.1,164.9,213.6,164.9,216.3z"/>
					<path class="st2" d="M173.4,238.9c0.4,0.5,0.9,1,1.3,1.5c0.8,0.9,2,1.1,3,0.4c0.9-0.7,1.1-2.1,0.4-2.9c-0.5-0.5-0.9-1-1.3-1.5
						c-0.8-0.9-2-1.1-3-0.4C172.9,236.7,172.6,238.1,173.4,238.9z"/>
					<g>
						<path class="st2" d="M166.8,208.6c-0.2,1.1,0.8,2.2,1.9,2.3c1.2,0.1,2.1-0.7,2.3-1.9c0,0,0,0,0,0.1c0.6-1,0.5-2.2-0.4-2.9
							c-0.9-0.6-2.3-0.5-2.9,0.4C167.1,207.2,166.9,207.8,166.8,208.6z"/>
						<path class="st2" d="M170.9,209.1C171,209,171,209,170.9,209.1C171,209,171,209,170.9,209.1
							C170.8,209.6,170.9,209.2,170.9,209.1z"/>
						<path class="st2" d="M171,209C171.2,208.7,171.1,208.8,171,209L171,209z"/>
						<polygon class="st2" points="170.9,209 170.9,209 170.9,209 						"/>
					</g>
				</g>
			</g>
			<path class="st2" d="M305.9,435.1c0,3.6-3,6.6-6.6,6.6c-3.6,0-6.6-3-6.6-6.6c0-3.6,3-6.6,6.6-6.6
				C303,428.5,305.9,431.5,305.9,435.1z"/>
			<path class="st2" d="M288.1,288.7c0,2.3-1.8,4.1-4.1,4.1c-2.3,0-4.1-1.8-4.1-4.1c0-2.3,1.8-4.1,4.1-4.1
				C286.2,284.6,288.1,286.4,288.1,288.7z"/>
			<path class="st2" d="M284,384.6c0,2.3-1.8,4.1-4.1,4.1c-2.3,0-4.1-1.8-4.1-4.1c0-2.3,1.8-4.1,4.1-4.1
				C282.2,380.5,284,382.3,284,384.6z"/>
			<path class="st2" d="M232.7,168.4c0,2.3-1.8,4.1-4.1,4.1c-2.3,0-4.1-1.8-4.1-4.1c0-2.3,1.8-4.1,4.1-4.1
				C230.9,164.3,232.7,166.2,232.7,168.4z"/>
			<path class="st2" d="M259,275.2c0,2.3-1.8,4.1-4.1,4.1c-2.3,0-4.1-1.8-4.1-4.1c0-2.3,1.8-4.1,4.1-4.1
				C257.2,271.1,259,272.9,259,275.2z"/>
			<path class="st3" d="M232.5,294.2c-0.6-0.6-1.8-8.7-2.9-8.6c-1.1,0.1-2,8.1-2.5,8.6c-1,1.1-8.5,1.8-8.4,2.8
				c0.1,1,7.4,1.5,8.4,2.5c0.6,0.6,1.8,8.7,2.9,8.6c1.1-0.1,2-8.1,2.5-8.6c1-1,8.5-1.8,8.4-2.8C240.9,295.7,233.5,295.1,232.5,294.2
				z"/>
		</g>
	</g>
</g>
</svg>
