<svg xmlns="http://www.w3.org/2000/svg" viewBox="0 0 512 512"><defs><style>.cls-1{fill:#fd6085;}.cls-1,.cls-2,.cls-3,.cls-4,.cls-7{fill-rule:evenodd;}.cls-2,.cls-6{fill:#074785;}.cls-3{fill:#54befd;}.cls-4{fill:#fbe699;}.cls-5,.cls-7{fill:#fff;}.cls-8{fill:#f1854f;}.cls-9{fill:#074783;}</style></defs><g id="_01" data-name="01"><path class="cls-1" d="M352.2,9.32q-82.65-3-165.34,0c-14.65.52-26.07,12.28-25.4,25.93l4.71,100a25.21,25.21,0,0,0,26,23.8q77.3-2.76,154.66,0a25.19,25.19,0,0,0,26-23.8q2.36-50,4.72-100C378.27,21.6,366.84,9.84,352.2,9.32ZM341.6,125.25a17.51,17.51,0,0,1-18,16.76q-54.11-1.33-108.22,0a17.51,17.51,0,0,1-18-16.76l-2.28-69.46c-.32-9.48,7.63-17.53,17.66-17.78q56.68-1.4,113.37,0c10,.25,18,8.29,17.66,17.78Q342.73,90.53,341.6,125.25Z"/><path class="cls-2" d="M192.2,159q77.3-2.76,154.66,0a25.19,25.19,0,0,0,26-23.8L376,69.7q-16.25-.77-32.51-1.3l-1.86,56.85a17.51,17.51,0,0,1-18,16.76q-54.11-1.33-108.22,0a17.51,17.51,0,0,1-18-16.76L195.6,68.4q-16.26.54-32.51,1.3,1.53,32.76,3.08,65.52A25.21,25.21,0,0,0,192.2,159Z"/><path class="cls-3" d="M504.4,409c-3.77,29.56-34,57-65.39,59.88a1932.52,1932.52,0,0,1-327.38,0C80.27,466,50,438.56,46.24,409a1063.52,1063.52,0,0,1,0-254c3.77-29.55,34-57,65.39-59.88a1932.52,1932.52,0,0,1,327.38,0c31.36,2.86,61.62,30.33,65.39,59.88A1063.52,1063.52,0,0,1,504.4,409Z"/><path class="cls-4" d="M439,95.08a1932.52,1932.52,0,0,0-327.38,0C80.27,97.94,50,125.41,46.24,155a1063.59,1063.59,0,0,0-5.89,187.45,77,77,0,0,0,49.08,20.73q185.88,7,371.77,0a76.93,76.93,0,0,0,49.09-20.73A1063.56,1063.56,0,0,0,504.4,155C500.63,125.41,470.37,97.94,439,95.08Z"/><rect class="cls-5" x="178.93" y="171.54" width="192.78" height="167.72" rx="25.06"/><path class="cls-1" d="M326.86,239.79h-35.4V203.46c0-7.83-7.23-14.17-16.14-14.17s-16.14,6.34-16.14,14.17v36.33h-35.4a15.62,15.62,0,1,0,0,31.23h35.4v36.33c0,7.83,7.22,14.17,16.14,14.17s16.14-6.34,16.14-14.17V271h35.4a15.62,15.62,0,0,0,0-31.23Z"/><path class="cls-2" d="M263.12,406.8a29.15,29.15,0,1,0-47,23.07c-1.58,6.67-5.87,13-10.39,18.79-11.17,14.22-27.65,23.88-44.78,29.08-7.86,2.39-34.72,9.48-50.38.49a21.77,21.77,0,0,1-10.53-14.42c-5.16-21.62,20.23-33.68,31.39-47.82a42.13,42.13,0,0,0,8.77-19.15c1-6.52-2.46-15.67.86-21.5,2.7-4.74,8.91-7.17,13.37-9.88,18.88-11.48,32-28.52,39.61-49.22,6.86-18.59,9.49-39.68,7.62-61a204.91,204.91,0,0,0-6.53-35.61c-6-22.21-16.51-38.63-32-50.19-8.29-6.17-17.95-10.15-27.5-13.93-7.83-3.1-19.25-10.08-27.38-4.47-11.29,7.79-9.32,28.29,5.61,29.45,21.37,1.66,37.72,3.4,48.88,24.28,15.86,29.62,19.74,61.5,11.56,94.75-4.82,19.54-19.9,38.27-39.37,48.89-18.74,10.23-38.37,11.66-55.27,4A71.51,71.51,0,0,1,50.12,328c-12.88-18.7-20.75-41-24.06-68.28-1.18-9.74-2.34-22.47-.84-34.51,1.2-9.67,6.3-18.2,13.14-25,5.2-5.16,11-10.28,18-12.94,12.89-4.95,32.5-7.24,23.8-27.36-9-20.86-36.08,5.87-45.73,13.23-16,12.24-29.77,29.59-33.25,50.55-2.3,13.85-.67,27.77,1.2,40.85,4.83,33.86,14.44,59.4,30.25,80.37,11.68,15.51,25,25.75,40.78,31.33,9.6,3.4,19.52,3.9,29.1,4.4,2.07.1,4.21.21,6.3.35,5.88.38,5.7,10.53,5.69,11-.25,10.15-9.42,16.06-16,22.37C90.35,422,83.33,430.91,79,441.23a43.74,43.74,0,0,0,3.38,39.89,49.67,49.67,0,0,0,38.05,23.77c24.65,2.08,48.64-2.8,69.37-14.1,18.35-10,36.18-25.57,45.23-44.74,1.79-3.8,3.42-7.38,5.2-10.79A29.14,29.14,0,0,0,263.12,406.8Z"/><path class="cls-6" d="M328,112c13.51-.46,22.05,9.47,23,22.45.48,6.64-9.77,7.91-10.25,1.24-.53-7.27-3.54-12.75-11.23-13.39-8.45-.7-12.58,5.57-11.29,13.33,1.09,6.59-9.17,7.8-10.25,1.24C305.75,123.44,314.38,112.41,328,112Z"/><path class="cls-6" d="M220.58,114.24c13.51-.06,21.77,10.11,22.35,23.11.3,6.65-10,7.62-10.28.94-.33-7.28-3.18-12.85-10.84-13.7-8.42-.94-12.74,5.2-11.67,13,.91,6.62-9.38,7.53-10.28.95C198,125.08,207,114.3,220.58,114.24Z"/><path class="cls-6" d="M257.16,145.59c-.44-2.78.5-5.56,3.46-6.47,2.42-.75,6,.64,6.42,3.43.65,4,1.82,11,6.5,12.21,6.62,1.72,9.25-6.38,9.42-11.34.21-6.64,10.53-7,10.31-.3-.38,11.08-6.28,21.64-18.36,22.07C264,165.57,258.67,154.92,257.16,145.59Z"/><path class="cls-7" d="M196,18.38c-6.44-.44-7.13,9.53-.7,10S202.46,18.83,196,18.38Z"/><path class="cls-7" d="M272.31,17.71c-19.24,0-38.47.46-57.71.49-6.29,0-6.29,9.77,0,9.76,19.24,0,38.47-.46,57.71-.49C278.61,27.46,278.6,17.7,272.31,17.71Z"/><path class="cls-7" d="M291.66,17.37c-6.28-.44-7,9.3-.68,9.73S297.94,17.8,291.66,17.37Z"/><path class="cls-7" d="M472.16,309.41c-3.09,9.2,11,14.78,14.36,4.87C489.64,304.15,475,300,472.16,309.41Z"/><path class="cls-7" d="M473,191.76c6.32,29.55,8.11,60,4.22,89.53-1.37,9.48,13.17,12.32,14.64,2.08,4.12-31.18,2.29-63.42-4.39-94.64C485.11,178.42,470.79,182.2,473,191.76Z"/><path class="cls-7" d="M464.45,162.54c2.38,9.48,16.9,6.61,14.36-3.61C476,148.73,461.82,153.07,464.45,162.54Z"/><path class="cls-7" d="M285.23,453.53c-6.43-.45-7.12,9.52-.69,10S291.67,454,285.23,453.53Z"/><path class="cls-7" d="M361.52,452.85c-19.24,0-38.47.46-57.71.49-6.29,0-6.28,9.77,0,9.76,19.24,0,38.47-.46,57.71-.49C367.82,462.6,367.81,452.84,361.52,452.85Z"/><path class="cls-7" d="M380.87,452.51c-6.28-.44-7,9.3-.68,9.74S387.15,453,380.87,452.51Z"/><path class="cls-8" d="M412.74,272.63c.07-1.3,7.32-2.16,11.31-3.22-1.56-3.92-5.25-10.32-4.18-11.07.91-.63,4.72,3,7.87,5.68.94-4.14,2.12-9.68,3.27-9.62,1.3.07,2.53,7.11,3.43,11.18,3.89-1.74,10.28-5,11-3.94s-3,5.15-5.71,8.33c4.06.95,9.29,1.81,9.23,2.91-.06,1.31-7.37,2.13-11.35,3.22,1.55,3.91,5.28,10.32,4.21,11.06-.91.63-4.67-3-7.81-5.64-.94,4.14-2.13,9.65-3.27,9.59-1.3-.07-2.52-7.09-3.42-11.16-3.88,1.74-10.33,5-11.07,3.95s3-5.16,5.73-8.34C417.93,274.62,412.69,273.73,412.74,272.63Z"/><path class="cls-5" d="M428.1,407.91c-.67-.63-2.07-9.62-3.28-9.53s-2.19,9-2.75,9.6c-1.12,1.18-9.4,2.09-9.33,3.23s8.23,1.61,9.39,2.71c.64.62,2.07,9.63,3.27,9.55s2.17-9,2.75-9.6c1.09-1.15,9.44-2.09,9.36-3.24S429.21,409,428.1,407.91Z"/><path class="cls-5" d="M157.78,123.55c-.66-.63-2.07-9.62-3.27-9.53s-2.19,9-2.75,9.6c-1.13,1.19-9.41,2.09-9.33,3.23s8.22,1.61,9.38,2.71c.65.62,2.07,9.63,3.28,9.55s2.17-9,2.75-9.6c1.08-1.15,9.43-2.09,9.35-3.24S158.9,124.62,157.78,123.55Z"/><path class="cls-9" d="M415.72,145.7c-.67-.63-2.07-9.61-3.28-9.53s-2.19,9-2.75,9.6c-1.12,1.19-9.41,2.09-9.33,3.23s8.22,1.61,9.38,2.72c.65.61,2.07,9.62,3.28,9.54s2.17-9,2.75-9.6c1.09-1.14,9.43-2.09,9.36-3.24S416.83,146.77,415.72,145.7Z"/><path class="cls-9" d="M100.75,282.05c-.67-.64-2.07-9.62-3.28-9.54s-2.19,9-2.75,9.6c-1.12,1.19-9.4,2.09-9.33,3.23s8.23,1.62,9.39,2.72c.64.62,2.06,9.62,3.28,9.54s2.16-9,2.75-9.59c1.08-1.15,9.43-2.1,9.35-3.24S101.87,283.11,100.75,282.05Z"/><path class="cls-5" d="M464.13,337.54a4.54,4.54,0,1,1-4.58-4.5A4.54,4.54,0,0,1,464.13,337.54Z"/><path class="cls-5" d="M225.82,404.52a4.54,4.54,0,1,1-4.58-4.5A4.54,4.54,0,0,1,225.82,404.52Z"/></g></svg>