<svg xmlns="http://www.w3.org/2000/svg" viewBox="0 0 500 500"><defs><style>.cls-1,.cls-9{fill:#fff;}.cls-2{fill:#ffb6bd;}.cls-10,.cls-12,.cls-13,.cls-2,.cls-3,.cls-4,.cls-5,.cls-7,.cls-9{fill-rule:evenodd;}.cls-14,.cls-3{fill:#074785;}.cls-4{fill:#54befd;}.cls-5{fill:#15577f;}.cls-6,.cls-7{fill:#f9d555;}.cls-8{fill:#7befe5;}.cls-10{fill:#f49d72;}.cls-11{fill:#ffa4ac;}.cls-12{fill:#fd6085;}.cls-13{fill:#29aefd;}</style></defs><g id="BACKGROUND"><rect class="cls-1" y="0.11" width="500" height="500"/></g><g id="OBJECTS"><path class="cls-2" d="M468.93,184.67c-.11-10.69-.17-10.73-10.65-10.53-74.75,1.44-110.95,2.91-185.7,4.36-9.37.17-11.89-5-13.84-14.5l-13.81-51.49c-1.24-5.93-1.43-6.16-7-6.06q-37.15.63-74.29,1.42a13.68,13.68,0,0,0-3.39.3,4.78,4.78,0,0,0-3.83,5,4.6,4.6,0,0,0,4.09,4.77,31.35,31.35,0,0,0,4.75.16c7.28-.1,14.55-.26,21.82-.34s7.81.56,8.09,7.67c.05,1.37.05,2.76.08,4.14q.93,53.55,1.88,107.09c.06,3,.4,5.95.61,8.93,2-.2.17,7.11,2.2,7.07,32.93-.62,72.22.6,105.14,0,24.53-.45,10.84-3.35,35.37-3.83,23.61-.46,46.52-2,70.13-2.46,17.26-.35,29.6,2.8,46.85,2.46,3-.06,8.72,1.61,11.67,1.68C469,239.73,469.05,195.48,468.93,184.67Z"/><path class="cls-3" d="M444.42,313.21q.24-15.43.48-30.88c11.41,2,23.72,1.71,34,6.63,9,4.32,11.11,14.8-1.62,18.63C466.66,310.78,455.39,311.43,444.42,313.21Z"/><path class="cls-3" d="M467.75,267.89c-17.71,0-35.42-.1-53.13.12-23.57.3-47.14.86-70.72,1.3s-8.59.9-32.17,1.34c-24.25.46-48.5.86-72.76,1.37-13.58.28-27.16.73-40.74,1.11q-.25-11-.52-22c2-.18,4-.5,6.08-.54q49.4-.88,98.79-1.72c24.52-.44,10.5-.89,35-1.36q35.43-.67,70.85-1.38c17.25-.34,34.51-.74,51.77-1.07,2.94-.05,5.89.12,8.84.2.21,6.21.53,12.42.53,18.63C469.6,265.24,468.4,266.57,467.75,267.89Z"/><path class="cls-4" d="M72.77,156.71c-.64,1.86-1.27,3.73-1.9,5.59-3.92,13.59-7.74,27.2-11.78,40.75C53.57,221.54,48,240,46.18,259.36c-.61,6.39-1.15,12.79-1.73,19.19-.57,12.93-.54,24.85-1.11,37.78v3.29c0,4.73.25,9.43.47,14.15.29,6.25,1,7,7.35,6.94L114,339.39c1.29-2.68,2.51-5.38,3.87-8,11.14-21.69,29-33.33,53.29-33.18a56.9,56.9,0,0,1,53.07,37.36,23.46,23.46,0,0,0,1.13,2.31c1.93-.15,3.85-.38,5.78-.42q46.78-1,93.58-2c3-.06,6,.06,9,.09l2.88-1.45c.76-1.5,1.61-3,2.27-4.5,9.66-22.5,27.07-34.92,51.1-36.46,19-1.23,35.45,6,47.39,21.33,4.28,5.49,6,12.51,9.56,18.59,5.59-.18,12.33-.66,17.91-1,4.7-.32,5.89-1.46,5.83-5.89l-1.18-60.57-218.64,3.93c-12.87.27-25.73.71-38.6,1.07l-10.67,0s-.12-5.34-.19-8.43q-1.18-59-2.3-118a21.59,21.59,0,0,0-.4-4.48,6.1,6.1,0,0,0-5.84-5.12c-1.92-.15-3.86-.09-5.8-.07l-85.57,1.65c-5.78.15-11.56.17-17.34.25-3.27.05-6,.9-6.47,4.73l-1,2.83-.06.22,0,0"/><path class="cls-5" d="M226.67,346.73a57.89,57.89,0,1,1-57.89-57.88A57.88,57.88,0,0,1,226.67,346.73Z"/><circle class="cls-6" cx="168.78" cy="346.73" r="25.11"/><path class="cls-5" d="M449.27,346.73a57.89,57.89,0,1,1-57.88-57.88A57.88,57.88,0,0,1,449.27,346.73Z"/><path class="cls-7" d="M416.49,344.62a25.11,25.11,0,1,1-25.1-25.11A25.11,25.11,0,0,1,416.49,344.62Z"/><rect class="cls-8" x="234.59" y="280.43" width="86.9" height="39.08" rx="6.44"/><path class="cls-9" d="M250.31,174.27c-5.62-16-9.08-32.73-14.57-48.82-1.11-3.26-5.93-.89-4.83,2.35,5.49,16.08,9,32.77,14.57,48.82C246.62,179.87,251.44,177.5,250.31,174.27Z"/><path class="cls-9" d="M233.18,177c-5.62-16-9.07-32.73-14.56-48.81-1.12-3.27-5.93-.89-4.83,2.35,5.49,16.08,9,32.77,14.57,48.81C229.5,182.6,234.32,180.23,233.18,177Z"/><path class="cls-10" d="M201.46,256.29q-1.2-64.91-2.31-129.81a26,26,0,0,0-.4-4.92c-.72-3.32-2.65-5.39-5.84-5.64-1.92-.16-3.86-.09-5.8-.07l-85.57,1.82c-5.78.16-11.56.18-17.34.27-3.27,0-6,1-6.47,5.2l-6.81,23.24C67,161.32,63.18,176.3,59.14,191.21c-5.52,20.34-11.08,40.67-12.91,61.95-.61,7-1.16,14.07-1.73,21.11q-.86,21.35-1.72,42.67l.9,2.48c2.45.64,4.9,1.83,7.35,1.83,12.48,0,25-.49,37.43-.42,5,0,7.76-2,10-6.92,10.45-23.14,27.07-38.23,50-44.44a80.88,80.88,0,0,1,16-2.17c11.59-.76,25.62-1.19,37.22-1.74C201.59,265.56,201.52,259.68,201.46,256.29Z"/><path class="cls-3" d="M80.37,224.46c-5.31.12-8.66-4.63-7.44-10.55L86.3,148.82c1.21-5.92,6.55-10.76,11.86-10.76h78.53c5.32,0,9.72,5,9.8,11.05l.21,16.78c.08,6.08-4.19,11.44-9.49,11.9l-.75.07c-5.3.47-9.55,5.82-9.44,11.9l.39,21.69c.1,6.08-4.15,11.15-9.46,11.27Z"/><path class="cls-11" d="M141.53,195.46a3.45,3.45,0,0,1-.47,4.87h0a3.46,3.46,0,0,1-4.86-.47l-26.33-32a3.47,3.47,0,0,1,.47-4.87h0a3.46,3.46,0,0,1,4.86.47Z"/><path class="cls-11" d="M151.67,180.51c.79,1,.24,2.73-1.23,3.94h0c-1.47,1.21-3.31,1.41-4.1.45L129.14,164c-.79-1-.24-2.73,1.23-3.94h0c1.48-1.22,3.31-1.42,4.1-.46Z"/><path class="cls-11" d="M122.26,199.84c.8,1,.24,2.72-1.23,3.94h0c-1.47,1.21-3.3,1.41-4.1.46L99.74,183.36c-.8-1-.25-2.72,1.23-3.93h0c1.47-1.22,3.31-1.42,4.1-.46Z"/><path class="cls-7" d="M52.29,305.26c0,3.55-3.45,6.44-7.71,6.44H38.71c-4.26,0-7.71-2.89-7.71-6.44V276.55c0-3.55,3.45-6.43,7.71-6.43h5.87c4.26,0,7.71,2.88,7.71,6.43Z"/><path class="cls-12" d="M318.83,230.86c0,5.52-8,10-17.81,10s-17.81-4.47-17.81-10,8-10,17.81-10S318.83,225.34,318.83,230.86Z"/><path class="cls-12" d="M425.57,230.86c0,5.52-8,10-17.82,10s-17.81-4.47-17.81-10,8-10,17.81-10S425.57,225.34,425.57,230.86Z"/><rect class="cls-6" x="159.14" y="241.81" width="27.56" height="14.09" rx="6.44"/><path class="cls-1" d="M159.84,159.08c-3.47,0-3.47,5.37,0,5.37S163.29,159.08,159.84,159.08Z"/><path class="cls-1" d="M99.37,146.9c-3.46,0-3.46,5.37,0,5.37S102.83,146.9,99.37,146.9Z"/><path class="cls-1" d="M83.84,250.31c-3.46,0-3.46,5.36,0,5.36S87.3,250.31,83.84,250.31Z"/><path class="cls-1" d="M204.19,279.65c-3.46,0-3.46,5.36,0,5.36S207.65,279.65,204.19,279.65Z"/><path class="cls-1" d="M257,231.27c-3.46,0-3.46,5.37,0,5.37S260.47,231.27,257,231.27Z"/><path class="cls-1" d="M444.42,227.88c-3.46,0-3.46,5.37,0,5.37S447.88,227.88,444.42,227.88Z"/><path class="cls-1" d="M93.84,204.15c-3.45,0-3.45,5.36,0,5.36S97.3,204.15,93.84,204.15Z"/><path class="cls-1" d="M153.4,205.76c-3.46,0-3.46,5.37,0,5.37S156.86,205.76,153.4,205.76Z"/><path class="cls-9" d="M86.2,310.09c4.94,2.41,8.53-5.25,3.59-7.65S81.26,307.69,86.2,310.09Z"/><path class="cls-9" d="M146.77,261.11c4.95,2.4,8.53-5.26,3.59-7.66S141.83,258.7,146.77,261.11Z"/><path class="cls-9" d="M96.52,296.09c9-14.94,22.69-28.79,40.25-32.54,4.07-.86,2.47-7.2-1.59-6.33-19.2,4.09-34.37,19.1-44.21,35.46C88.82,296.25,94.38,299.65,96.52,296.09Z"/><path class="cls-9" d="M453.18,278.32c4.85.39,5.45-7.13.6-7.52S448.33,277.93,453.18,278.32Z"/><path class="cls-9" d="M395.58,278.23c14.52.13,29.05,0,43.57.09,4.75,0,4.82-7.33.07-7.38-14.52-.12-29.05.05-43.57-.08C390.9,270.82,390.83,278.19,395.58,278.23Z"/><path class="cls-9" d="M381,278.34c4.74.38,5.33-7,.59-7.35S376.23,278,381,278.34Z"/><path class="cls-9" d="M168.87,131.72c5,.4,5.67-7.41.63-7.82S163.84,131.31,168.87,131.72Z"/><path class="cls-9" d="M109.06,131.63c15.08.13,30.16,0,45.25.08,4.93,0,5-7.61.07-7.65-15.09-.14-30.17,0-45.25-.08C104.19,123.93,104.12,131.58,109.06,131.63Z"/><path class="cls-9" d="M93.88,131.74c4.92.39,5.53-7.24.61-7.64S89,131.34,93.88,131.74Z"/><path class="cls-1" d="M232.54,208.94c-.82-.79-2.45-11.84-3.93-11.75s-2.79,11.05-3.48,11.77c-1.39,1.45-11.58,2.48-11.5,3.88s10.09,2.06,11.51,3.43c.78.77,2.44,11.85,3.93,11.76s2.75-11,3.48-11.76c1.34-1.4,11.61-2.48,11.53-3.89S233.9,210.26,232.54,208.94Z"/><path class="cls-8" d="M385.05,300.79c-14.89,3.77-29.15,14.83-34.29,29.47-1.73,4.92,6,7.16,7.76,2.28,4.19-11.92,16.39-20.9,28.43-24C392,307.31,390.13,299.51,385.05,300.79Z"/><path class="cls-8" d="M399.94,297.91c-5.08,1.23-3.19,9,1.9,7.79S405,296.67,399.94,297.91Z"/><path class="cls-8" d="M352.34,341.78c-5.09,1.23-3.19,9,1.89,7.8S357.42,340.54,352.34,341.78Z"/><path class="cls-8" d="M160,299.63c-14.9,3.77-29.15,14.83-34.3,29.47-1.73,4.91,6,7.16,7.77,2.28,4.19-11.92,16.38-20.9,28.43-23.95C167,306.14,165.08,298.35,160,299.63Z"/><path class="cls-8" d="M174.89,296.75c-5.09,1.24-3.19,9,1.89,7.8S180,295.51,174.89,296.75Z"/><path class="cls-8" d="M127.28,340.62c-5.08,1.24-3.19,9,1.9,7.8S132.37,339.38,127.28,340.62Z"/><polygon class="cls-13" points="469.56 269 201.59 270.63 201.59 265.56 469.6 263.06 469.56 269"/><polygon class="cls-11" points="469.36 252.99 201.59 252.99 201.59 242.59 469.07 242.59 469.36 252.99"/><path class="cls-14" d="M299.72,185.82c-13.58-.1-21.89,10.65-22.49,24.41-.31,7,10,8.1,10.33,1,.34-7.71,3.21-13.59,10.92-14.47,8.46-1,12.79,5.54,11.71,13.8-.92,7,9.42,8,10.33,1C322.38,197.37,313.42,185.93,299.72,185.82Z"/><path class="cls-14" d="M407.71,185.28c-13.58.31-21.6,11.3-21.82,25.08-.12,7,10.24,7.79,10.35.71.13-7.72,2.84-13.68,10.52-14.8,8.44-1.23,12.93,5.16,12.08,13.44-.73,7,9.62,7.72,10.35.72C430.67,196.14,421.4,185,407.71,185.28Z"/><path class="cls-14" d="M371.34,218.11c.18-3-1-5.81-4.08-6.48-2.5-.54-5.91,1.28-6.09,4.27-.26,4.31-.75,11.78-5.31,13.53-6.46,2.49-9.88-5.78-10.53-11-.86-7-11.22-6.3-10.35.73,1.45,11.64,8.39,22.17,20.51,21.4C366.41,239.87,370.75,228.1,371.34,218.11Z"/></g></svg>