<svg id="_04" data-name="04" xmlns="http://www.w3.org/2000/svg" viewBox="0 0 512 512"><defs><style>.cls-1{fill:#b3a1e9;}.cls-10,.cls-2{fill:#fff;}.cls-2,.cls-3,.cls-4,.cls-5,.cls-6,.cls-7,.cls-8,.cls-9{fill-rule:evenodd;}.cls-3{fill:#f9d555;}.cls-4{fill:#f1854f;}.cls-5{fill:#29aefd;}.cls-6{fill:#fd6085;}.cls-12,.cls-7{fill:#7befe5;}.cls-8{fill:#ffa4ac;}.cls-11,.cls-9{fill:#074785;}</style></defs><circle class="cls-1" cx="264.97" cy="252.94" r="194.02" transform="translate(-101.25 261.45) rotate(-45)"/><path class="cls-2" d="M411,339.78c-6.3,20.25-24.14,23.64-41.73,31.81C355.56,378,340.44,384,325.17,383c-15.74-1-21.53-12-34.37-18.91-8.2-4.38-17.41-4.29-24.54-11.16C254.43,341.53,248,325,261.77,312.06c2.93-2.75,8-4,9.2-8.22,1.72-6.08-5.12-11.64-5.48-17.64-.5-8.3,4.87-17.73,11.1-22.84,9.24-7.59,15.35-5.23,15.41-19.27.08-21.07,16.32-22.9,29.43-33.83,6.22-5.18,5.69-11.81,6.75-19.17C330.07,178,340.93,175.34,352,173c9.53-2,15.94-12.06,26.15-11.87,9.12.16,15.79,9.12,22,14.65,11.77,10.42,40.13,10.46,38.5,31.54-.7,9-4.1,10.3,2.78,17.41,9.56,9.86,10.32,22.85,4.26,34.92-3.6,7.17-13.76,11.7-14.14,20.39-.25,5.86,4.14,10.67,4.07,16.53-.06,5-2.61,9.54-5.31,13.62-6.14,9.29-15.81,16.35-18.73,27.58C411.42,338.44,411.23,339.12,411,339.78Z"/><path class="cls-3" d="M417.4,235.62c0,22.09-18.49,40-41.29,40s-41.3-17.92-41.3-40,18.5-40,41.3-40S417.4,213.52,417.4,235.62Z"/><path class="cls-4" d="M404.57,206.75a38.82,38.82,0,0,1,4.25,17.68c0,22.1-18.49,40-41.29,40A41.81,41.81,0,0,1,339,253.31c6.74,13.22,20.91,23.44,37.16,23.44,22.8,0,42.22-17.93,42.22-40C418.33,225.38,412.4,214,404.57,206.75Z"/><polygon class="cls-5" points="274.3 416.08 259.57 431.44 197.47 382.85 175.53 353.47 113.52 309.49 131.96 290.19 161 317.14 201.14 342.81 274.3 416.08"/><polygon class="cls-6" points="347.04 375.92 330.95 394.5 262.69 351.4 228.04 314.87 156.31 279.06 167.69 257.89 245.06 295.32 274.59 321.57 347.04 375.92"/><path class="cls-7" d="M127.92,293.1a135,135,0,0,1,10.9,9.95c10.89,10.75,22.17,21.73,36.77,27.19,5.94,2.22,12.07,4.22,17.46,7.65,5.18,3.3,8.5,7.85,11.55,13.09,2.17,3.73,5.12,7.15,7.22,10.85,7,12.43,16.93,22.2,28.4,30.54a201.44,201.44,0,0,1,26.51,23.79c1.43,1.49,2.76,5.9,5.78,2.81,2.76-2.84,7.29-5.71,5.06-10.87-1.44-3.33-3.67-6.34-5.62-9.45-8.37-13.4-21.91-19.39-35.91-24.36-7-2.48-11.1-6.62-13.7-13.46-5.36-14.07-14.22-25.25-28.67-31-5.43-2.16-11.29-3.36-16.46-6-13.23-6.72-25.43-14.88-33-28.29-1.51-2.68-2.89-5.42-4.28-8.16-.44-.85-1.27-3.49-2.41-3.71C135.26,283.25,129,291.55,127.92,293.1Z"/><path class="cls-7" d="M196.55,370c-6.3-11.56-15.65-19.62-27-25.29-18.45-9.18-35.31-20.29-48.83-36.09-1.19-1.39-1.53-4.88-4.52-3.33s-3.89,4-3.21,7.6c1.49,8,5.45,14.5,10.87,20.35,8.23,8.86,19.43,10.94,30.43,13.48,5.52,1.28,10.78,2.87,15.61,6.13,9.37,6.33,12.08,15.8,13.86,26.12,2.17,12.57,9,21.38,21.82,24.82,8.33,2.24,16.8,4,24.65,7.76,8.66,6.71,18.65,12.14,22.27,23.62.31,1,1.25,2.37,2.31,1.6a29.92,29.92,0,0,0,5.61-5.29c1.35-1.63-.73-2.06-1.59-2.72q-12.9-9.8-25.86-19.52C219.16,397.66,205.32,386.05,196.55,370Z"/><path class="cls-7" d="M234.1,395.12a153,153,0,0,1-12.17-10.42c-5.11-5-8.36-10.84-11.72-16.8-1.2-2.11-2.4-4.23-3.7-6.35-5-8.18-11.19-15.89-18.91-21.67-7.95-6-17.66-8.13-25.93-13.34-11.52-7.25-20.51-17.29-30.41-26.34-2.67-2.43-5.27-5.84-9.32-1.95-1.71,2.43-.81,4.13,1.07,6.21,9.92,11,20.19,21.36,34,27.6,6.68,3,13,6.91,19.43,10.44,8.4,4.6,17.22,9.65,21.75,17.92,13.26,24.19,34,40.63,55.36,56.65a42.28,42.28,0,0,0,12,9.06,52.14,52.14,0,0,0-10.32-12.31C249.12,406.57,241.46,401,234.1,395.12Z"/><path class="cls-8" d="M299.11,365.85c-20.62-9.73-41.3-19.12-54.74-39-9-13.32-22.31-20.57-37.08-26.18-16.21-6.16-32.68-12.06-46.71-22.83a11.09,11.09,0,0,0-2.25-1.1c-3.57.45-6.64,12.53-4,15.66a41.69,41.69,0,0,0,20.47,13.36A92.7,92.7,0,0,0,206,309.61c10.61-.61,19.26,3,26,11.15a56.82,56.82,0,0,1,10.24,19.44c5.82,18.59,15.67,33.85,39.94,31.9,4.66-.37,9.23,1.34,13.57,3.24C307,380.25,317,386.87,325,396.11c2.38,2.72,3.46,1.91,5.47-.45,4.08-4.83,1.62-8.24-1.93-11.44C319.87,376.35,309.61,370.8,299.11,365.85Z"/><path class="cls-8" d="M168,256.29c-2.19,3.33-1.79,4.93,1.75,7.27,14.69,9.72,30.91,15.87,47.41,21.44s31.09,14,42.53,27.93c6.42,7.81,13.27,15.5,21.78,21.64C301,348.69,323,363.66,344.21,375.06c1.28.7,2,.22,3.58-1.49,1.42-1.51,2.32-4.69,1.67-6.11a26,26,0,0,0-1.31-3.36c-8.46-13.93-19.23-24.82-35.71-29.17-7.95-2.1-16.2-2.93-23.91-6.32-12.42-5.45-20.61-15.32-28.66-25.57-15-19.12-34.24-31.29-58.67-34.29-10.79-1.32-20.46-4.64-27.74-13.15C171.18,252.94,169.75,253.57,168,256.29Z"/><path class="cls-8" d="M254.45,318.11a71.84,71.84,0,0,0-31.17-23.35c-19.51-7.5-40.21-12.49-57.05-25.94-1.94-1.55-4.26-1.87-5.66.84-1.48,2.88.87,3.88,2.77,5.12,13.55,8.82,28.44,14.91,43.45,20.54s30.49,10.83,39.83,25.34c10.87,16.9,26.58,27.26,44.69,34.51,2.56,1.34,7.47,5.74,10,7,11.76,5.88,23.6,11.57,33.54,20.46,1.32,1.19,2.05,4.08,4.57,2.77a5.91,5.91,0,0,0,2.59-3.67c.56-2.6-1.91-3.13-3.62-4-14.72-7.87-29.89-18.06-44.6-25.93C279.25,342.27,265.37,332,254.45,318.11Z"/><path class="cls-9" d="M125,222.58c.22,8.76-6,16.64-13.41,17-7,.36-15.83-8.8-16.73-17.39-1.44-13.87,7.19-22,19.45-18.39C120.85,205.74,124.75,212.6,125,222.58Z"/><path class="cls-9" d="M126.15,195.74c-2.44-7.8-1.12-17,5.72-20.92,14-8,27,12.37,22.19,24.64-1.51,3.81-6.84,8-10.84,8.82C134.91,210.06,128.62,203.61,126.15,195.74Z"/><path class="cls-9" d="M159.65,247.33c-11.18-.28-21.45-7.27-21.53-14.65-.08-6.84,10.88-15.49,19.51-15.39,9,.1,17.21,8,16.87,16.2C174.13,242.34,168.54,247.56,159.65,247.33Z"/><path class="cls-9" d="M102.16,268.57a14.76,14.76,0,0,1-2.16-6.95c-1.12-18.18,27.83-17.4,35.86-6.6,7.77,10.45-6.28,21.5-16.12,21.73C114.32,276.87,105.19,273.46,102.16,268.57Z"/><path class="cls-6" d="M4.87,198.63c6.51,19.69,14.45,38.58,20.22,46.21,1.31,1.73,6.7.23,6.23-1.89-1.83-8.22-8.09-27.76-12.2-48.8-.44-2.28,5.55-4.05,6.68-2C32.35,204,37,229.52,43.68,239.38c1.17,1.75,6.21-.06,6.24-2.17.15-10.07-4.28-29.05-8.07-49.33-.4-2.1,5.66-2.74,6.37-.72,8.11,23,17.82,45.33,9.69,70.69-2.25,7-4.81,14.89-3.38,21.76,7.7,37.05,16.55,67.86,25.08,104.79,1.38,6,4.24,18,4,23.89-.41,11.8-13.84,13.11-19.57,3.84-3.17-5.14-4-11.58-4.91-17.58-5.63-37.35-10.79-74.77-16.72-112.09a13.68,13.68,0,0,0-7.61-10.59c-30.27-16.45-34-59.81-34.78-72C0,198.21,4.35,197.06,4.87,198.63Z"/><path class="cls-6" d="M497.52,192c1.92,1.31,3.21,4.46,4.27,6.55,13.43,26.42,13.28,60.35,1.57,87.34a103.29,103.29,0,0,1-11.17,19.57c-22.28,30.38-26.82,63.93-31.4,98-.57,4.24-1.47,9-3.54,12.67-1.6,2.81-4.52,6-7.84,5.12-6.09-1.65-6.49-4.9-6.42-7.88a128.72,128.72,0,0,1,3.2-25.58q21-92.69,42.56-185.28c.73-3.13,1.37-7.76,4-9.9C494.71,191.11,496.25,191.18,497.52,192Z"/><path class="cls-10" d="M260,137.77a44,44,0,1,1-40.27-47.43A44,44,0,0,1,260,137.77Z"/><path class="cls-11" d="M252,137.11a32.53,32.53,0,1,1-29.78-35.06A32.54,32.54,0,0,1,252,137.11Z"/><path class="cls-12" d="M205.61,188.33c-.35,5.45-6.92,9.46-14.67,9s-13.76-5.31-13.41-10.76,6.91-9.46,14.67-9S206,182.89,205.61,188.33Z"/><path class="cls-12" d="M349.05,190c-.34,5.26-6.72,9.14-14.25,8.66s-13.36-5.14-13-10.41,6.72-9.15,14.25-8.66S349.38,184.68,349.05,190Z"/><path class="cls-10" d="M246.68,122.78c-3.37-5.36-7.6-9.85-13.47-12.44-2.64-1.16-4.15,3-1.53,4.2,4.72,2.08,8.27,5.86,11,10.17C244.17,127.12,248.22,125.22,246.68,122.78Z"/><path class="cls-10" d="M226.31,107.09c-.68-.2-1.36-.42-2-.61a2.23,2.23,0,1,0-1.54,4.19l2.05.62a2.27,2.27,0,0,0,2.86-1.34A2.24,2.24,0,0,0,226.31,107.09Z"/><path class="cls-10" d="M249.32,130.76a2.24,2.24,0,0,0-3-1,2.28,2.28,0,0,0-1.05,3v-.08a2.23,2.23,0,1,0,4.45.36A5.6,5.6,0,0,0,249.32,130.76Z"/><path class="cls-10" d="M245.27,132.68s0,.07,0,.11v-.1C245.06,132.09,245.23,132.53,245.27,132.68Z"/><path class="cls-10" d="M245.29,132.79c0,.32,0,.17,0,0Z"/><polygon class="cls-10" points="245.29 132.69 245.29 132.69 245.29 132.69 245.29 132.69"/><path class="cls-10" d="M355.64,136.63A44,44,0,1,1,315.38,89.2,44,44,0,0,1,355.64,136.63Z"/><path class="cls-11" d="M341.33,136.28a32.53,32.53,0,1,1-29.77-35.06A32.53,32.53,0,0,1,341.33,136.28Z"/><path class="cls-10" d="M336,122c-3.37-5.36-7.6-9.85-13.47-12.44-2.64-1.16-4.15,3-1.53,4.2,4.71,2.08,8.26,5.86,11,10.17C333.5,126.29,337.54,124.39,336,122Z"/><path class="cls-10" d="M315.64,106.26l-2-.61a2.27,2.27,0,0,0-2.87,1.33,2.24,2.24,0,0,0,1.33,2.86c.68.2,1.36.42,2,.61a2.27,2.27,0,0,0,2.87-1.33A2.24,2.24,0,0,0,315.64,106.26Z"/><path class="cls-10" d="M338.64,129.93a2.24,2.24,0,0,0-3-1.05,2.29,2.29,0,0,0-1.05,3,.22.22,0,0,0,0-.08,2.24,2.24,0,0,0,4.46.36A5.61,5.61,0,0,0,338.64,129.93Z"/><path class="cls-10" d="M334.6,131.85s0,.07,0,.11a.34.34,0,0,1,0-.1C334.39,131.26,334.56,131.7,334.6,131.85Z"/><path class="cls-10" d="M334.61,132c0,.33,0,.16,0,0Z"/><polygon class="cls-10" points="334.62 131.86 334.61 131.86 334.62 131.86 334.62 131.86"/><path class="cls-9" d="M242.8,213.78a24.1,24.1,0,0,1-9.22-16.45c-.53-5.37-.91-11.92,2.28-16.6a14.75,14.75,0,0,1,14.24-6.62,20.17,20.17,0,0,1,9.11,3.49c3.7,2.68,5.87.52,8.79-2.06,2.76-2.44,5.53-4.85,9.32-5.39,6.7-1,13.72,4.28,16.58,9.86,3.16,6.19,2.56,13.06.91,19.6-.91,3.59-3.41,6.79-5.18,10.17C273.45,204.41,257.79,205.27,242.8,213.78Z"/><path class="cls-8" d="M242.8,213.78c15.49-14.73,28.54-15.84,46.83-4C276.47,225.89,258.93,227.39,242.8,213.78Z"/><path class="cls-2" d="M308.1,428.74c20.39-.82,38.58-9.25,54.95-21,5.52-3.94-.06-12.9-5.59-8.94-14.95,10.7-31.19,18.63-49.84,19.38C300.82,418.47,301.3,429,308.1,428.74Z"/><path class="cls-2" d="M288.53,431.48c6,3.16,10.92-6.18,4.89-9.34S282.5,428.32,288.53,431.48Z"/><path class="cls-2" d="M371.83,395.75c6,3.16,10.93-6.18,4.9-9.34S365.81,392.59,371.83,395.75Z"/><path class="cls-2" d="M143.66,118.47c-17.63,10.26-29.78,26.22-38.77,44.24-3,6.07,6.09,11.37,9.13,5.29,8.21-16.45,18.86-31.05,35-40.44C154.89,124.15,149.55,115.05,143.66,118.47Z"/><path class="cls-2" d="M159.68,106.89c-6.8,0-6.76,10.58,0,10.55S166.49,106.87,159.68,106.89Z"/><path class="cls-2" d="M102.75,177.43c-6.8,0-6.76,10.58,0,10.55S109.55,177.41,102.75,177.43Z"/><path class="cls-2" d="M66.29,398.89c.41,3.75,6.23,3.12,5.82-.64S65.88,395.14,66.29,398.89Z"/><path class="cls-2" d="M58,355c2,11.09,4.28,22.13,6.3,33.22.66,3.62,6.29,2.6,5.62-1-2-11.08-4.27-22.13-6.29-33.21C62.92,350.34,57.29,351.36,58,355Z"/><path class="cls-2" d="M55.74,343.87c.4,3.67,6.09,3.05,5.68-.62S55.34,340.21,55.74,343.87Z"/><path class="cls-2" d="M449.72,402c-1,3.64,4.6,5.23,5.63,1.6S450.75,398.38,449.72,402Z"/><path class="cls-2" d="M458.49,358.2c-2.29,11-4.36,22.11-6.65,33.14-.75,3.61,4.85,4.78,5.6,1.17,2.29-11,4.35-22.11,6.65-33.14C464.84,355.76,459.24,354.59,458.49,358.2Z"/><path class="cls-2" d="M460.62,347.06c-1,3.55,4.5,5.11,5.5,1.56S461.63,343.52,460.62,347.06Z"/><path class="cls-2" d="M375.09,203.79c-12.74,1.18-22.48,9-28.29,21.17-2.51,5.26,4.87,10.45,7.39,5.16,4.91-10.32,12.37-16.08,23.09-17.07C382.73,212.54,380.48,203.29,375.09,203.79Z"/><path class="cls-2" d="M345.28,236.86c-5.33,1.26-3.37,9.51,2,8.25S350.6,235.6,345.28,236.86Z"/><path class="cls-2" d="M388.21,205.34c-5.32,1.26-3.37,9.51,2,8.25S393.54,204.08,388.21,205.34Z"/><path class="cls-10" d="M383.51,135a7.41,7.41,0,1,1-7.4-7.4A7.4,7.4,0,0,1,383.51,135Z"/><path class="cls-10" d="M160.75,375.37a7.41,7.41,0,1,1-7.41-7.41A7.41,7.41,0,0,1,160.75,375.37Z"/><path class="cls-10" d="M265.41,245.24a4.59,4.59,0,1,1-4.58-4.59A4.58,4.58,0,0,1,265.41,245.24Z"/><path class="cls-10" d="M389.66,240.65a4.59,4.59,0,1,1-4.59-4.59A4.59,4.59,0,0,1,389.66,240.65Z"/><path class="cls-10" d="M422,170a4.59,4.59,0,1,1-4.59-4.59A4.58,4.58,0,0,1,422,170Z"/><path class="cls-10" d="M505.48,236.72a4.59,4.59,0,1,1-4.59-4.59A4.59,4.59,0,0,1,505.48,236.72Z"/><path class="cls-10" d="M489,291.9a4.59,4.59,0,1,1-4.59-4.59A4.6,4.6,0,0,1,489,291.9Z"/><path class="cls-10" d="M41.85,253.9a4.59,4.59,0,1,1-4.59-4.59A4.59,4.59,0,0,1,41.85,253.9Z"/><path class="cls-10" d="M164.29,157.1a4.59,4.59,0,1,1-4.59-4.59A4.59,4.59,0,0,1,164.29,157.1Z"/><path class="cls-10" d="M300.76,75.12a4.59,4.59,0,1,1-4.59-4.59A4.59,4.59,0,0,1,300.76,75.12Z"/><path class="cls-10" d="M228.06,331.29a4.59,4.59,0,1,1-4.59-4.59A4.59,4.59,0,0,1,228.06,331.29Z"/><path class="cls-10" d="M99.31,296.49a4.59,4.59,0,1,1-4.59-4.59A4.6,4.6,0,0,1,99.31,296.49Z"/><path class="cls-10" d="M125.62,351.86a4.59,4.59,0,1,1-4.59-4.59A4.58,4.58,0,0,1,125.62,351.86Z"/><path class="cls-10" d="M210.21,420a4.59,4.59,0,1,1-4.59-4.58A4.58,4.58,0,0,1,210.21,420Z"/><path class="cls-10" d="M191.64,217.29a4.59,4.59,0,1,1-4.59-4.59A4.58,4.58,0,0,1,191.64,217.29Z"/><path class="cls-10" d="M249.7,79.71a4.59,4.59,0,1,1-4.59-4.59A4.6,4.6,0,0,1,249.7,79.71Z"/><path class="cls-10" d="M294.22,395.74a4.59,4.59,0,1,1-4.59-4.59A4.6,4.6,0,0,1,294.22,395.74Z"/><path class="cls-11" d="M373.63,323.17c-.67-.65-2-9.74-3.23-9.67s-2.29,9.1-2.87,9.69c-1.14,1.19-9.53,2-9.46,3.19s8.31,1.7,9.47,2.83c.65.63,2,9.75,3.24,9.67s2.26-9.06,2.86-9.68c1.1-1.15,9.55-2,9.48-3.2S374.75,324.26,373.63,323.17Z"/><path class="cls-11" d="M316.88,280.66c-.67-.65-2-9.74-3.23-9.67s-2.29,9.09-2.86,9.69c-1.15,1.19-9.54,2-9.47,3.19s8.31,1.7,9.47,2.82c.65.63,2,9.75,3.24,9.68s2.26-9.07,2.86-9.68c1.1-1.15,9.55-2,9.49-3.2S318,281.75,316.88,280.66Z"/><path class="cls-10" d="M214,232.6c-.67-.65-2-9.74-3.23-9.67s-2.29,9.09-2.87,9.69c-1.14,1.19-9.53,2-9.46,3.19s8.31,1.69,9.47,2.82c.65.63,2,9.75,3.24,9.68s2.26-9.07,2.86-9.68c1.1-1.16,9.55-2,9.48-3.2S215.1,233.69,214,232.6Z"/></svg>