<svg id="_04" data-name="04" xmlns="http://www.w3.org/2000/svg" viewBox="0 0 512 512"><defs><style>.cls-1{fill:#ffb6bd;}.cls-2{fill:#f1854f;}.cls-3{fill:#b3a1e9;stroke:#b3a1e9;stroke-miterlimit:10;}.cls-4,.cls-7{fill:#b0f5ef;}.cls-5{fill:#29aefd;}.cls-10,.cls-11,.cls-5,.cls-6,.cls-7,.cls-8{fill-rule:evenodd;}.cls-6{fill:#95f2ea;}.cls-8{fill:#074785;}.cls-9{fill:#a089e4;}.cls-10,.cls-12{fill:#fff;}.cls-11{fill:#ffa4ac;}.cls-13{fill:#ecff3f;}</style></defs><path class="cls-1" d="M159,130.07a7.31,7.31,0,0,1,6.09-8.33L443.63,77.33a7.36,7.36,0,0,1,8.42,6l59.85,369a7.32,7.32,0,0,1-6.1,8.33L227.27,505a7.34,7.34,0,0,1-8.42-6Z"/><path class="cls-2" d="M231.86,459.48c-.13-.82,3-2,7-2.66l241-38.93c4-.65,7.36-.5,7.48.32s-3.05,2-7,2.66L239.36,459.79C235.37,460.44,232,460.3,231.86,459.48Z"/><path class="cls-2" d="M226.58,427.08c-.14-.82,3-2,7-2.66l241.13-39c4-.65,7.36-.51,7.48.32s-3,2-7,2.66L234.08,427.39C230.08,428,226.71,427.89,226.58,427.08Z"/><path class="cls-2" d="M221.29,394.67c-.13-.82,3-2,7-2.66l241.22-39c4-.64,7.36-.5,7.48.32s-3,2-7,2.66L228.79,395C224.8,395.63,221.42,395.48,221.29,394.67Z"/><path class="cls-2" d="M216,362.26c-.13-.82,3-2,7-2.66l241.31-39c4-.65,7.37-.51,7.5.31s-3,2-7,2.65l-241.31,39C219.51,363.22,216.13,363.08,216,362.26Z"/><path class="cls-2" d="M210.71,329.85c-.13-.82,3-2,7-2.66l241.31-39c4-.65,7.37-.51,7.5.31s-3,2-7,2.65l-241.32,39C214.22,330.81,210.84,330.67,210.71,329.85Z"/><path class="cls-2" d="M205.43,297.44c-.14-.82,3-2,7-2.66l241.31-39c4-.64,7.37-.5,7.51.31s-3,2-7,2.66l-241.31,39C208.93,298.4,205.56,298.26,205.43,297.44Z"/><path class="cls-2" d="M200.14,265c-.13-.82,3-2,7-2.66l241.31-39c4-.65,7.37-.51,7.5.31s-3,2-7,2.66l-241.31,39C203.65,266,200.27,265.86,200.14,265Z"/><path class="cls-2" d="M194.85,232.62c-.13-.81,3-2,7-2.65l241.31-39c4-.64,7.37-.5,7.5.32s-3,2-7,2.66l-241.31,39C198.36,233.58,195,233.44,194.85,232.62Z"/><path class="cls-2" d="M189.56,200.22c-.13-.82,3-2,7-2.66l241.31-39c4-.65,7.37-.51,7.51.31s-3,2-7,2.66l-241.31,39C193.08,201.18,189.7,201,189.56,200.22Z"/><path class="cls-2" d="M184.28,167.81c-.14-.82,3-2,7-2.66l241.31-39c4-.65,7.37-.51,7.5.31s-3,2-7,2.66l-241.31,39C187.79,168.77,184.41,168.63,184.28,167.81Z"/><path class="cls-3" d="M116.19,11.32a7.72,7.72,0,0,1,9.57-5.26L406.53,91.88a7.81,7.81,0,0,1,5.06,9.73L295.75,487.69a7.71,7.71,0,0,1-9.56,5.26L5.43,407.13a7.81,7.81,0,0,1-5.07-9.74Z"/><path class="cls-4" d="M33,365.09c.25-.86,3.77-.53,7.83.72l244.68,75.73c4.05,1.25,7.16,3,6.89,3.83s-3.79.53-7.85-.72L39.9,368.93C35.84,367.68,32.73,366,33,365.09Z"/><path class="cls-4" d="M42.93,331.13c.25-.86,3.77-.53,7.82.72L295.6,407.62c4,1.26,7.15,3,6.89,3.84s-3.79.53-7.85-.73L49.84,335C45.79,333.71,42.68,332,42.93,331.13Z"/><path class="cls-4" d="M52.88,297.16c.24-.86,3.77-.53,7.82.72l244.94,75.81c4.06,1.25,7.16,3,6.9,3.83s-3.79.53-7.85-.73L59.79,301C55.73,299.75,52.62,298,52.88,297.16Z"/><path class="cls-4" d="M62.82,263.19c.25-.85,3.77-.53,7.83.73l245,75.84c4.06,1.25,7.17,3,6.92,3.83s-3.77.53-7.83-.73L69.74,267C65.68,265.78,62.57,264.05,62.82,263.19Z"/><path class="cls-4" d="M72.77,229.22c.25-.86,3.77-.53,7.82.73l245,75.83c4.06,1.26,7.17,3,6.92,3.84s-3.77.53-7.83-.72l-245-75.84C75.63,231.8,72.52,230.08,72.77,229.22Z"/><path class="cls-4" d="M82.71,195.25c.25-.85,3.78-.53,7.83.73l245,75.83c4.05,1.26,7.17,3,6.92,3.84s-3.78.53-7.83-.72l-245-75.84C85.57,197.84,82.46,196.11,82.71,195.25Z"/><path class="cls-4" d="M92.66,161.29c.25-.86,3.77-.53,7.83.72l245,75.84c4.05,1.26,7.16,3,6.91,3.84s-3.77.53-7.82-.73l-245-75.83C95.52,163.87,92.41,162.14,92.66,161.29Z"/><path class="cls-4" d="M102.61,127.32c.25-.86,3.77-.53,7.82.72l245,75.84c4.06,1.25,7.17,3,6.92,3.84s-3.77.53-7.83-.72l-245-75.85C105.47,129.9,102.36,128.17,102.61,127.32Z"/><path class="cls-4" d="M112.55,93.35c.26-.86,3.78-.53,7.83.72l245,75.85c4.06,1.25,7.16,3,6.92,3.83s-3.78.53-7.83-.72l-245-75.84C115.42,95.93,112.31,94.21,112.55,93.35Z"/><path class="cls-4" d="M122.5,59.38c.26-.85,3.78-.52,7.83.73l245,75.83c4.05,1.26,7.17,3,6.92,3.84s-3.78.54-7.83-.72l-245-75.84C125.37,62,122.25,60.24,122.5,59.38Z"/><path class="cls-5" d="M257.57,350.43a99.61,99.61,0,0,0,17.48,40c-.42.22-.76.43-1.11.59-22.17,9.7-44.32,19.45-66.52,29.08-8,3.47-15.67,2.49-22.45-2.87s-9.48-12.65-7.92-21.19c1.33-7.26,5.4-12.76,12.16-15.76,22.55-10,45.17-19.82,67.77-29.71C257.08,350.55,257.2,350.53,257.57,350.43Z"/><path class="cls-6" d="M297.43,438.83c-52.24-20.47-77.77-79.35-57.17-131.86a101.45,101.45,0,1,1,57.17,131.86Z"/><path class="cls-7" d="M193.93,373.71a118.77,118.77,0,0,0,20.84,47.72c-.5.27-.9.51-1.33.69q-39.65,17.37-79.31,34.69c-9.51,4.13-18.68,3-26.77-3.43s-11.3-15.08-9.44-25.27c1.58-8.64,6.44-15.21,14.5-18.79,26.88-11.92,53.86-23.63,80.8-35.42C193.34,373.85,193.49,373.83,193.93,373.71Z"/><path class="cls-8" d="M267.83,318.1A71.89,71.89,0,0,1,361,277.6c36.6,14.41,54.68,56.22,40.23,93A71.75,71.75,0,0,1,308,410.92C271.52,396.52,253.43,354.76,267.83,318.1Z"/><path class="cls-9" d="M389.88,320.07a33.42,33.42,0,0,1,2.27,5.17,58,58,0,0,1,1.81,6.18,66.33,66.33,0,0,1,1.38,8.28c.19,1.54.2,3.15.3,4.83s0,3.41-.07,5.22c0,.9-.13,1.8-.22,2.73s-.19,1.86-.3,2.81c-.29,1.89-.69,3.82-1.1,5.79s-1.09,3.94-1.77,5.93-1.51,4-2.52,5.93c-.51,1-1,1.94-1.57,2.91l-.8,1.46c-.29.47-.63.92-1,1.39-.64.92-1.28,1.85-1.95,2.76l-.5.69-.24.34-.07.08,0,.05-.18.22-.12.13-.93,1.11-.95,1.09-1.22,1.28-1.24,1.28c-.42.4-.83.75-1.24,1.13-.81.75-1.63,1.5-2.5,2.16s-1.71,1.39-2.61,2a56.06,56.06,0,0,1-11.05,6.16,58.22,58.22,0,0,1-11.09,3.37,59.64,59.64,0,0,1-10.11,1.09A53.6,53.6,0,0,1,325.48,402a28.48,28.48,0,0,1-5.33-1.88s2-.61,5.24-1.71c1.63-.55,3.58-1.22,5.75-2s4.58-1.74,7.11-2.83,5.2-2.33,7.9-3.72a87.82,87.82,0,0,0,8.07-4.7,73.19,73.19,0,0,0,7.69-5.78c1.23-1.05,2.41-2.15,3.56-3.3.28-.28.59-.57.85-.85l.75-.81.77-.8.93-1.1,1-1.09.58-.8c.47-.64,1-1.26,1.44-1.89.24-.32.5-.62.73-1l.64-1c.43-.67.85-1.35,1.31-2a19.67,19.67,0,0,0,1.2-2.1c.4-.7.79-1.41,1.19-2.1.74-1.44,1.38-2.93,2.12-4.35s1.24-3,1.84-4.43,1.11-2.95,1.63-4.4c1-2.92,1.9-5.75,2.67-8.43s1.44-5.2,2-7.46,1.07-4.31,1.48-6C389.41,322,389.88,320.07,389.88,320.07Z"/><path class="cls-10" d="M413.82,396.49c6.13-15.73,11.55-31.93,13.05-48.83a86.18,86.18,0,0,0-10.29-49c-3.22-5.92-12.88-1.76-9.64,4.21A78,78,0,0,1,416.28,348c-1.38,15.44-6.66,30.27-12.25,44.62C401.57,399,411.36,402.81,413.82,396.49Z"/><path class="cls-10" d="M116,436.21c2.18-6,4.91-11.46,10.1-15.34,5.36-4,12.67-5.31,19.06-6.66,5.58-1.18,4.25-10-1.38-8.78-7.85,1.66-15.63,3.56-22.44,7.95S110.44,425.5,107.71,433C105.74,438.35,114,441.6,116,436.21Z"/><path class="cls-10" d="M357.22,179c-8.27,36.14-41.78,59.3-74.83,51.74s-53.16-43-44.88-79.14,41.77-59.31,74.83-51.75S365.5,142.87,357.22,179Z"/><path class="cls-8" d="M286.56,168c-5.47,23.9,9.82,47.8,34.14,53.36a47.55,47.55,0,0,0,6.69,1A70,70,0,0,0,357.22,179a71.34,71.34,0,0,0-1.44-37.63,45.56,45.56,0,0,0-15.26-6.58C316.19,129.24,292,144.1,286.56,168Z"/><path class="cls-10" d="M226.21,149c-8.27,36.14-41.78,59.31-74.84,51.74s-53.15-43-44.88-79.14,41.78-59.31,74.84-51.74S234.48,112.89,226.21,149Z"/><path class="cls-8" d="M155.55,138c-5.47,23.91,9.82,47.8,34.14,53.37a45.89,45.89,0,0,0,6.69,1A70,70,0,0,0,226.21,149a71.34,71.34,0,0,0-1.44-37.63,45.72,45.72,0,0,0-15.27-6.58C185.18,99.25,161,114.12,155.55,138Z"/><path class="cls-8" d="M193.49,202.19c-7.41,32.38-2.66,61.09,10.61,64.13s30-20.75,37.45-53.12Z"/><path class="cls-11" d="M204.1,266.32c8.9,2,19.36-8,27.52-24.55L190,232.24C190.15,250.71,195.21,264.28,204.1,266.32Z"/><path class="cls-10" d="M30.06,348.85c-3.54,8.93,10.31,14.41,13.84,5.48S33.6,339.92,30.06,348.85Z"/><path class="cls-10" d="M63.51,240.26c-8.64,27.32-16.69,54.82-25.33,82.14-2.83,8.94,11,13.33,13.86,4.39,8.64-27.32,16.69-54.82,25.33-82.14C80.2,235.71,66.34,231.32,63.51,240.26Z"/><path class="cls-10" d="M71.76,212.64c-3.45,8.72,10.06,14.07,13.52,5.36S75.21,203.92,71.76,212.64Z"/><path class="cls-10" d="M463.43,313.48c1,9.55,15.77,8.07,14.82-1.48S462.48,303.92,463.43,313.48Z"/><path class="cls-10" d="M443.3,201.65c4.87,28.24,10.33,56.37,15.2,84.6,1.59,9.24,15.92,6.78,14.33-2.46-4.87-28.24-10.33-56.37-15.2-84.6C456,190,441.71,192.41,443.3,201.65Z"/><path class="cls-10" d="M438,173.32c.93,9.33,15.4,7.89,14.47-1.44S437,164,438,173.32Z"/><path class="cls-10" d="M259.81,68.85c6.7,2.45,10.5-7.95,3.8-10.4S253.1,66.4,259.81,68.85Z"/><path class="cls-10" d="M178.46,46.17C198.93,52,219.52,57.48,240,63.35c6.7,1.92,9.68-8.47,3-10.39-20.47-5.87-41.06-11.3-61.53-17.18C174.74,33.86,171.76,44.25,178.46,46.17Z"/><path class="cls-10" d="M157.77,40.59c6.54,2.4,10.25-7.75,3.71-10.15S151.22,38.2,157.77,40.59Z"/><path class="cls-12" d="M357.69,316.61c-.74-.71-2.3-10.68-3.64-10.59s-2.43,10-3.05,10.66c-1.24,1.32-10.44,2.32-10.35,3.58s9.12,1.79,10.41,3c.72.68,2.3,10.68,3.64,10.59s2.4-10,3.05-10.65c1.2-1.27,10.47-2.32,10.38-3.6S358.93,317.79,357.69,316.61Z"/><path class="cls-12" d="M125.79,316.61c-.74-.71-2.3-10.68-3.64-10.59s-2.43,10-3.05,10.66c-1.24,1.32-10.44,2.32-10.35,3.58s9.12,1.79,10.41,3c.72.68,2.3,10.68,3.64,10.59s2.4-10,3-10.65c1.2-1.27,10.47-2.32,10.38-3.6S127,317.79,125.79,316.61Z"/><path class="cls-13" d="M415.23,203.51c-.74-.71-2.3-10.67-3.64-10.58s-2.43,10-3,10.65c-1.25,1.32-10.44,2.32-10.35,3.59s9.12,1.79,10.41,3c.72.69,2.3,10.68,3.64,10.59s2.4-10,3.05-10.65c1.2-1.27,10.47-2.32,10.38-3.59S416.47,204.69,415.23,203.51Z"/><path class="cls-12" d="M164.66,403.62a5,5,0,1,1-5.08-5A5,5,0,0,1,164.66,403.62Z"/><path class="cls-12" d="M471.59,368.86a5,5,0,1,1-5.08-5A5,5,0,0,1,471.59,368.86Z"/></svg>