<svg xmlns="http://www.w3.org/2000/svg" viewBox="0 0 560 451.02"><defs><style>.cls-1,.cls-7{fill:#fff;}.cls-2,.cls-5,.cls-8{fill:none;}.cls-2,.cls-3,.cls-5{stroke:#000;}.cls-2,.cls-3,.cls-5,.cls-7,.cls-8{stroke-miterlimit:10;}.cls-2,.cls-3{stroke-width:13px;}.cls-3,.cls-4{fill:#47bcff;}.cls-5{stroke-width:11px;}.cls-6{fill:#d3f0ff;}.cls-7,.cls-8{stroke:#fff;}.cls-7{stroke-width:3px;}</style></defs><g id="Capa_6" data-name="Capa 6"><path class="cls-1" d="M299.62,7.12c137,7.39,242.86,111.26,236.35,232S413.08,451.71,276,444.31,33.18,333.05,39.69,212.33,162.58-.27,299.62,7.12Z"/><path class="cls-2" d="M536,239.11C529.46,359.83,413.08,451.71,276,444.31S33.18,333.05,39.69,212.33,162.58-.27,299.62,7.12,542.48,118.38,536,239.11Z"/><rect class="cls-3" x="13.67" y="166.82" width="33" height="99" rx="16.5"/><rect class="cls-3" x="527.67" y="166.82" width="33" height="99" rx="16.5"/><path class="cls-4" d="M305.66,96c.93,5.42-2.29,7.77-7.17,5.22l-7.88-4.14c-4.87-2.55-12.85-2.55-17.72,0L265,101.2c-4.88,2.55-8.1.2-7.17-5.22l1.5-8.7c.93-5.42-1.53-13-5.48-16.82l-6.36-6.18c-3.95-3.84-2.72-7.62,2.72-8.41l8.83-1.27c5.45-.79,11.9-5.47,14.34-10.4l3.92-7.92c2.44-4.93,6.44-4.93,8.88,0l3.92,7.92c2.44,4.93,8.89,9.61,14.34,10.4l8.83,1.27c5.44.79,6.67,4.57,2.72,8.41l-6.37,6.18c-3.94,3.83-6.4,11.4-5.47,16.82Z"/><path class="cls-5" d="M305.66,96c.93,5.42-2.29,7.77-7.17,5.22l-7.88-4.14c-4.87-2.55-12.85-2.55-17.72,0L265,101.2c-4.88,2.55-8.1.2-7.17-5.22l1.5-8.7c.93-5.42-1.53-13-5.48-16.82l-6.36-6.18c-3.95-3.84-2.72-7.62,2.72-8.41l8.83-1.27c5.45-.79,11.9-5.47,14.34-10.4l3.92-7.92c2.44-4.93,6.44-4.93,8.88,0l3.92,7.92c2.44,4.93,8.89,9.61,14.34,10.4l8.83,1.27c5.44.79,6.67,4.57,2.72,8.41l-6.37,6.18c-3.94,3.83-6.4,11.4-5.47,16.82Z"/><path class="cls-6" d="M461.26,119.88c4.71,0,9.22-4.14,9-9a9.15,9.15,0,0,0-9-9c-4.71,0-9.22,4.14-9,9a9.16,9.16,0,0,0,9,9Z"/><path class="cls-6" d="M468.48,137.12a169.08,169.08,0,0,1,14.74,27.42l-.91-2.15q2.64,6.26,4.77,12.69a9.5,9.5,0,0,0,4.13,5.38,9.25,9.25,0,0,0,6.94.91c4.45-1.44,7.87-6.29,6.29-11.08A177.82,177.82,0,0,0,484,128a9.53,9.53,0,0,0-5.37-4.14,9.23,9.23,0,0,0-6.94.91c-3.91,2.52-6,8.12-3.23,12.31Z"/><path class="cls-7" d="M422.31,405c12.79-5.67,24.91-13.56,34.24-24.08a5.33,5.33,0,0,1,1.31-1.08c22.91-34.38,20.31-81.83-4.46-114.11a7.13,7.13,0,0,0,1.18-5.41c-4.07-24.42-8.55-48.77-13.19-73.09C425.53,25.26,352.56,90.25,310,195.84c-21.35-5.14-44.48-6.43-65.94,1-38.83-190.17-112.81-72.4-119.32,47.78-37.6,31.05-41.54,84.7-19,123.86,32.09,26.06,69,48.42,110.93,52.35,5,.47,6.1,6.82,3.16,9.17,53,10.29,107.37,7.47,162.4-5.29a5.17,5.17,0,0,1,3.32-4.48,174.62,174.62,0,0,1,19.53-6.22C410.3,410.21,416.53,407.51,422.31,405Z"/><path class="cls-1" d="M439.33,259.73c-13,10.45,38.15,38.34,12.4,100.28a6.65,6.65,0,0,0-6.55,3.15c-8.27,13.72-19.81,25-29.66,37.25-2.11.76-4.14,1.48-6,2.17-80.1,28-269.28,39.25-302.23-61.34C98,309,109.2,274.83,134.65,253.43a5.66,5.66,0,0,0,1.84-6.84c10.34-97,56.17-221.65,92.77-47.5-8.52,5.73.56,22.26,9.32,14.85,21.37-10.48,47.77-10.34,70.47-3.52,1.72.25,2,1.61,1.29-.36,4.58,10.47,19.27,1.8,11.77-6.88a7.33,7.33,0,0,0,.77-5.24C415.66,5.26,416.71,144.39,439.33,259.73Z"/><path class="cls-8" d="M409.52,402.58c-80.1,28-269.28,39.25-302.23-61.34C98,309,109.2,274.83,134.65,253.43a5.66,5.66,0,0,0,1.84-6.84c10.34-97,56.17-221.65,92.77-47.5-8.52,5.73.56,22.26,9.32,14.85,21.37-10.48,47.77-10.34,70.47-3.52,1.72.25,2,1.61,1.29-.36,4.58,10.47,19.27,1.8,11.77-6.88a7.33,7.33,0,0,0,.77-5.24c92.78-192.68,93.83-53.55,116.45,61.79-13,10.45,38.15,38.34,12.4,100.28a6.65,6.65,0,0,0-6.55,3.15c-8.27,13.72-19.81,25-29.66,37.25C413.41,401.17,411.38,401.89,409.52,402.58Z"/><path class="cls-4" d="M471.06,292.11a4.14,4.14,0,0,0-5.09-3.57c-2.62-9.38-5.32-20.2-12.75-26.63-2.08-6.58-1.09-14.55-4.36-20.73.77-14.27-1.6-28.38-2.26-42.61a5.2,5.2,0,0,0-6.09-4.81c-2.43-11.13,2-61.26-12.45-60.3a177.75,177.75,0,0,0-3.22-20.91c5.13-6-5.84-13.67-4.64-20.48-.31-8.86-18-5.72-14.39,3.43,14.33,42.34,14.72,93.21-19.05,126.48a6.34,6.34,0,0,0-1.15,8c27.54,24,44.18,59.24,42.47,96.79-.32,29.53-8.56,67.34-34,85.3a7,7,0,0,0-3.05,6.24c4.63-1.6,9.35-3,14.12-4.23a73.71,73.71,0,0,1,13.6-7.51l.41-.54a2.43,2.43,0,0,0,.35.2l2.84-1.26a112.78,112.78,0,0,0,19-10.61c1.16-3.38,2-6.7,2.61-9,6.88,1.71,8.56-6.82,9.57-12.17a5,5,0,0,0,3.92-2.25c4.84-2.23,4.21-9.83,5.68-14.43a63.48,63.48,0,0,0,6.81-22.07C479.47,322.85,473.26,305.33,471.06,292.11Z"/><path class="cls-4" d="M241.22,184.25c1.34-36.72-11.34-85.38-46.47-100.87-7.45-2.86-10.64,10.61-3.24,13.45,15.72,6,25.82,24.82,31.43,41.7a124.55,124.55,0,0,1,4.76,59.08c-1.12,6.87,5.47,11.56,10.18,6.79a95.92,95.92,0,0,1,7.85-7.15C251.54,192.56,247,182,241.22,184.25Z"/><path class="cls-6" d="M132.08,252.41c-15.7,16.76-26.66,39-21.75,62.19a7.33,7.33,0,0,0,7.28,9.48c13.77-1,.74-20.32,7.42-34.87,3.16-10.31,9.54-19.17,16.81-26.93C148,255.76,138.21,245.87,132.08,252.41Z"/><path class="cls-6" d="M131.69,341c-1.36-10.61-15.71-7.34-15.57,2.28C117,354.56,133.28,351.79,131.69,341Z"/><path class="cls-6" d="M186.31,311.12c-13.79-4.52-19.61,16.8-5.51,20.16C193,334.12,198.34,315,186.31,311.12Z"/><path class="cls-6" d="M365.64,311.83c-6.73-7-18.43,1.65-16.4,10.12C354.12,337.56,376.12,323.3,365.64,311.83Z"/><path d="M131.73,239.55c3-18.39,6.31-36.74,10.91-54.79,2.27-8.92,4.85-17.77,7.84-26.48q2.27-6.6,4.86-13.09c.41-1,.82-2,1.24-3a4.6,4.6,0,0,0,.25-.61c-.34,1.22-.24.57-.09.23.25-.6.51-1.2.77-1.8q1.4-3.19,2.88-6.34a202.81,202.81,0,0,1,13.37-24.2c.58-.9,1.17-1.79,1.78-2.66l.87-1.22.51-.69c.65-.91-.5.6,0,0a45.29,45.29,0,0,1,4.57-5q.54-.51,1.11-1a3.89,3.89,0,0,1,.65-.54c-.88.36-.63.46-.22.17.9-.63,1.8-1.24,2.76-1.78.47-.27,1-.52,1.45-.76a4.3,4.3,0,0,0,.75-.35c-.12.1-1.3.49-.3.14a28.06,28.06,0,0,1,3.12-1l.8-.16c.94-.2-.41.11-.4,0a10.36,10.36,0,0,1,1.41-.11c.53,0,1.07,0,1.61,0,.26,0,.53,0,.8.06.76,0-1.5-.31-.19,0a20.25,20.25,0,0,1,3,.81c.21.07,1.06.39.23.08s-.12,0,0,0c.61.31,1.22.62,1.81,1,.84.5,1.63,1,2.42,1.61s-.14-.06-.22-.18a3.76,3.76,0,0,0,.64.53c.48.39,1,.8,1.42,1.22a57.79,57.79,0,0,1,4.75,4.77c.7.78,1.38,1.58,2,2.4l.52.66c.27.33.39.82-.16-.22a12.16,12.16,0,0,0,1,1.35c1.33,1.83,2.57,3.71,3.75,5.63a117.06,117.06,0,0,1,6.34,11.91c.49,1,1,2.1,1.43,3.15.25.56.49,1.13.74,1.69.43,1,0,0-.07-.16.16.35.29.71.44,1.07q1.4,3.4,2.65,6.87c1.66,4.55,3.15,9.16,4.52,13.8,2.74,9.32,5,18.77,7.1,28.25.54,2.41,1.07,4.81,1.6,7.22a6,6,0,0,0,7.38,4.19,6.14,6.14,0,0,0,4.19-7.38c-4.4-20.06-9.06-40.09-17.09-59.07-3.66-8.63-7.93-17.09-13.63-24.57a68.52,68.52,0,0,0-10-10.87C207.73,87,203.17,83.94,198,83c-10.81-1.9-21,3.39-28,11.41-6.41,7.35-11.33,16.15-15.84,24.75a276.38,276.38,0,0,0-20.86,53.88,538.28,538.28,0,0,0-12,56.35c-.39,2.31-.76,4.62-1.13,6.93a6.51,6.51,0,0,0,.6,4.62,6.13,6.13,0,0,0,3.59,2.76c2.88.66,6.84-.88,7.38-4.19Z"/><path d="M242.4,201.13c1.09-.58,2.2-1.14,3.33-1.67.56-.27,1.12-.53,1.69-.78a8.78,8.78,0,0,1,1-.41l-.67.28.77-.31a76.24,76.24,0,0,1,7.23-2.51c2.45-.73,4.93-1.33,7.43-1.82,1.22-.24,2.45-.45,3.68-.64a4.27,4.27,0,0,1,.82-.11c-1.17-.1-.86.1-.37.05.76-.09,1.51-.18,2.27-.25a83.71,83.71,0,0,1,15.51-.05l1.65.16,1,.12c.64.08,1-.21-.16,0a6.21,6.21,0,0,1,1.64.25c.68.11,1.36.22,2,.35q3.87.72,7.65,1.82c1.32.38,2.64.8,3.94,1.26a22.81,22.81,0,0,1,4.26,1.62c-.13-.08-1.27-.56-.29-.12l1.14.5A9.38,9.38,0,0,0,312,200c4.5,0,7.16-4.49,6.22-8.56a6,6,0,0,0-7.38-4.19,6.13,6.13,0,0,0-4.19,7.38l.06.28v-3.19l.36-.9,2.15-2.15-.25.15,3-.82-.29,0,3,.82A89,89,0,0,0,253.1,184a87.32,87.32,0,0,0-16.76,6.79,6,6,0,0,0-2.15,8.21,6.13,6.13,0,0,0,8.21,2.15Z"/><path d="M315,192.58c.89-2.62,1.83-5.23,2.83-7.81.5-1.29,1-2.57,1.54-3.85.12-.28.24-.57.35-.85.43-1,0,0-.06.16a21.81,21.81,0,0,1,.91-2.12c2.22-5.07,4.63-10.06,7.17-15,5.11-9.85,10.75-19.42,16.54-28.87,2.67-4.36,5.38-8.69,8.23-12.93q2.13-3.18,4.39-6.27l1-1.36.64-.84c.12-.17.69-.9.17-.24s.26-.32.31-.39l.53-.66c.44-.55.88-1.1,1.33-1.64A98.31,98.31,0,0,1,371.39,99c.89-.79,1.8-1.57,2.73-2.32.31-.25,1.78-1.59.61-.5A17,17,0,0,1,376.39,95a54.42,54.42,0,0,1,6.36-3.9c.49-.26,1-.5,1.49-.74L385,90c.09,0,1.35-.58.42-.2s0,0,.24-.09.64-.25,1-.36c.64-.24,1.29-.46,1.94-.66,1.11-.34,2.23-.63,3.36-.86.14,0,1.78-.33,1.78-.31s-1.57.16-.4.07l1.2-.11a27.23,27.23,0,0,1,3.38,0l.8.06c1.25.12-.18.11-.21,0,0,.06,1.83.35,2,.38a29.53,29.53,0,0,1,3.19,1c.74.27-1.12-.52-.41-.17.27.13.55.25.82.39.55.27,1.08.56,1.6.87s.82.51,1.22.78l.6.41c.12.09,1.11.8.26.18s-.08,0,.11.1l.69.59c.45.4.9.82,1.33,1.25.7.69,1.37,1.41,2,2.16.21.23.4.47.6.71.45.55.2.79-.13-.19a7.56,7.56,0,0,0,1.1,1.51,66.76,66.76,0,0,1,6.36,11.8c.35.82-.65-1.6-.06-.14.11.3.24.59.35.88.24.59.47,1.18.7,1.77.55,1.4,1.07,2.8,1.58,4.22q1.42,4,2.67,8.11c1.66,5.45,3.1,11,4.41,16.51,2.69,11.33,5,22.75,7.18,34.19s4.15,23,5.9,34.54c.45,2.91.88,5.81,1.29,8.73.21,1.45.42,2.91.62,4.36.09.65.18,1.3.26,1.94,0,0,.23,1.63.09.66s.07.49.09.66q1.17,8.75,2.17,17.51c.33,2.92.65,5.85,1,8.77a6.43,6.43,0,0,0,1.76,4.24A6,6,0,0,0,454,258c3-.13,6.35-2.66,6-6q-3.86-36.62-10.42-72.89-3.26-17.88-7.19-35.63a243.93,243.93,0,0,0-9.61-33.77c-3.61-9.5-8.07-19.44-15.9-26.26a31,31,0,0,0-14.22-7.34,35.52,35.52,0,0,0-17.07,1C375,80.22,365.84,87.17,358.2,95s-13.9,16.8-19.73,26c-12.28,19.28-23.89,39.24-32.17,60.6-1,2.58-1.94,5.19-2.83,7.81a6,6,0,0,0,4.19,7.38,6.15,6.15,0,0,0,7.38-4.19Z"/><path d="M85.08,333.42a101.66,101.66,0,0,0,26.53,46.85c5.46,5.48,14-3,8.49-8.49a89.46,89.46,0,0,1-23.45-41.55c-1.89-7.49-13.46-4.32-11.57,3.19Z"/><path d="M121.38,234.68C103,249.74,89.3,270.43,84.46,293.84,82.9,301.38,94.46,304.6,96,297c4.47-21.62,16.88-40,33.83-53.87,6-4.9-2.55-13.34-8.48-8.48Z"/><path d="M80.92,313.16v.25a5.74,5.74,0,0,0,.65,2.89,6.73,6.73,0,0,0,4,4,5.6,5.6,0,0,0,2.88.65l2-.27a7.46,7.46,0,0,0,3.31-1.93l1.17-1.51a7.43,7.43,0,0,0,1-3.79v-.25a7.25,7.25,0,0,0-4.61-6.86,5.71,5.71,0,0,0-2.89-.64l-2,.27a7.46,7.46,0,0,0-3.31,1.93L82,309.37a7.54,7.54,0,0,0-1,3.79Z"/><path d="M246.6,320.11a43.33,43.33,0,0,0,21.61-13.55c5-5.83-3.45-14.36-8.48-8.48a32.25,32.25,0,0,1-16.32,10.46c-7.44,2-4.28,13.6,3.19,11.57Z"/><path d="M258.93,305.77c5.45,7.6,13.23,13,22.55,14.6,3.19.54,6.46-.85,7.38-4.19.79-2.88-1-6.84-4.19-7.38-6.13-1-11.7-4-15.38-9.09-1.88-2.63-5.22-3.9-8.21-2.15-2.59,1.52-4.05,5.56-2.15,8.21Z"/><path class="cls-1" d="M211.12,280.82l-.5.5a4.43,4.43,0,0,0-1.24,1.93,6.18,6.18,0,0,0,1.24,6.56l1.21.93a5.89,5.89,0,0,0,3,.82l1.6-.21a6.12,6.12,0,0,0,2.65-1.54l.5-.51a5.83,5.83,0,0,0,1.24-6.55,4.52,4.52,0,0,0-1.24-1.93l-1.22-.94a6,6,0,0,0-3-.82l-1.59.22a6,6,0,0,0-2.65,1.54Z"/><path d="M318.22,314.58c12.55,0,24.58-11,24-24s-10.55-24-24-24c-12.55,0-24.58,11-24,24s10.55,24,24,24Z"/><path class="cls-1" d="M298.34,278.37v.17a6.7,6.7,0,0,0,1.76,4.24A4.38,4.38,0,0,0,302,284a4.46,4.46,0,0,0,2.31.52l1.59-.22a5.88,5.88,0,0,0,2.65-1.54l.94-1.21a6,6,0,0,0,.82-3v-.17a4.51,4.51,0,0,0-.52-2.31,5.39,5.39,0,0,0-3.17-3.17,4.49,4.49,0,0,0-2.31-.52l-1.6.22a5.94,5.94,0,0,0-2.64,1.54l-.94,1.21a6,6,0,0,0-.82,3Z"/><path d="M211.2,314.13c12.55,0,24.58-11,24-24s-10.54-24-24-24c-12.55,0-24.58,11-24,24s10.55,24,24,24Z"/><path class="cls-1" d="M192.29,274.83V275a4.56,4.56,0,0,0,.51,2.31,4.62,4.62,0,0,0,1.24,1.93,6.76,6.76,0,0,0,4.25,1.76l1.59-.22a5.88,5.88,0,0,0,2.65-1.54l.94-1.21a6.09,6.09,0,0,0,.82-3v-.17a4.51,4.51,0,0,0-.52-2.31,5.39,5.39,0,0,0-3.17-3.17,4.51,4.51,0,0,0-2.31-.52l-1.6.22a6,6,0,0,0-2.65,1.54l-.93,1.21a5.89,5.89,0,0,0-.82,3Z"/><path d="M109.08,377.67c21.15,24.53,52.35,37.12,83,45a429,429,0,0,0,112.15,13.78c35.39-.43,71.71-4.93,104.6-18.61,28.12-11.71,53.28-32.41,65.59-60.82,12.9-29.79,11.2-65.86-7.31-93a91.7,91.7,0,0,0-8.43-10.63,6,6,0,0,0-8.48,0,6.12,6.12,0,0,0,0,8.49,63.69,63.69,0,0,1,7.22,9.2,82.48,82.48,0,0,1,5.62,9.95c.41.85.8,1.72,1.19,2.58.48,1.09.16.37.06.14l.54,1.31q1.1,2.78,2,5.61a88.58,88.58,0,0,1,2.75,11c.15.84.29,1.68.42,2.51.08.47.15.94.21,1.4-.15-1.09,0-.11,0,.09.22,2.07.42,4.13.53,6.21a92.59,92.59,0,0,1-.06,11.05c-.12,1.8-.3,3.58-.5,5.37s.12-.71-.05.37l-.21,1.41c-.16,1-.34,2.05-.54,3.08a92.35,92.35,0,0,1-2.74,10.74c-.57,1.81-1.21,3.6-1.89,5.37l-.42,1.06c0,.07-.77,1.8-.28.67-.37.87-.76,1.73-1.16,2.58a96.31,96.31,0,0,1-5.17,9.6c-1,1.54-1.93,3.06-3,4.54l-1.25,1.77c-.31.44-.63.87-1,1.3-.15.2-1.11,1.45-.37.51-2.21,2.83-4.57,5.55-7.05,8.15s-5.1,5.07-7.83,7.42q-1.83,1.59-3.74,3.1l-.5.39-.86.65c-.79.6-1.59,1.18-2.4,1.76a128.71,128.71,0,0,1-18.42,10.9c-1.62.8-3.27,1.56-4.93,2.28l-1,.43c1.2-.52-.45.19-.57.23L402,407.78q-6,2.34-12.22,4.32a239.46,239.46,0,0,1-25.13,6.5,303.1,303.1,0,0,1-50.06,5.64,413.59,413.59,0,0,1-54.07-1.56,412.35,412.35,0,0,1-52.57-8.47c-15.62-3.54-31.22-7.77-46-14,.91.38,0,0-.15-.07l-1.57-.69-2.35-1.06q-2.73-1.26-5.41-2.61c-3.39-1.73-6.72-3.57-10-5.56s-6.22-4-9.18-6.22l-1.14-.85c.76.58,0,0-.13-.11-.74-.6-1.49-1.19-2.21-1.8q-2.31-1.91-4.5-4a104.12,104.12,0,0,1-7.77-8.09c-2-2.38-6.4-2.27-8.48,0a6.16,6.16,0,0,0,0,8.49Z"/><path d="M203,433.21a540.3,540.3,0,0,0,58.57,10.15,505.59,505.59,0,0,0,58.08,3.6c11,0,22.17-.6,32.72-3.87,3-.93,5.21-4.23,4.19-7.38s-4.17-5.19-7.38-4.19c-2.24.69-4.5,1.27-6.8,1.74-1.07.22-2.15.41-3.23.59l-1.62.24c-.87.13,1.09-.13.2,0l-1.16.14a133.63,133.63,0,0,1-13.86.75c-9.48.09-19-.24-28.45-.76q-14.44-.79-28.83-2.38c-2.33-.26-4.67-.54-7-.83-1.21-.14-2.41-.3-3.62-.46l-.72-.09.15,0-1.93-.27q-7.1-1-14.18-2.17-16.06-2.68-31.94-6.37c-3.05-.71-6.64.94-7.38,4.19-.7,3.06.92,6.62,4.19,7.38Z"/></g></svg>