<svg xmlns="http://www.w3.org/2000/svg" viewBox="0 0 608 501"><defs><style>.cls-1,.cls-7{fill:#fff;}.cls-2,.cls-5,.cls-8{fill:none;}.cls-2,.cls-3,.cls-5{stroke:#000;}.cls-2,.cls-3,.cls-5,.cls-7,.cls-8{stroke-miterlimit:10;}.cls-2,.cls-3{stroke-width:13px;}.cls-3,.cls-4{fill:#47bcff;}.cls-5{stroke-width:11px;}.cls-6{fill:#d3f0ff;}.cls-7,.cls-8{stroke:#fff;}.cls-7{stroke-width:3px;}</style></defs><g id="Capa_6" data-name="Capa 6"><path class="cls-1" d="M226.92,317.05a5.1,5.1,0,0,0,5,5c2.57,0,5.18-2.29,5-5l.57-.13h.07l.74-.11a22.78,22.78,0,0,1,2.74,0c2.7.16,5-2.42,5-5a5.09,5.09,0,0,0-5-5C234.53,306.45,226.37,309,226.92,317.05Zm-6.49,3.17c6.44,0,6.45-10,0-10S214,320.22,220.43,320.22Zm99-286.9c137,7.4,242.86,111.25,236.35,232S432.9,477.9,295.86,470.51,53,359.25,59.52,238.53,182.4,25.93,319.45,33.32Zm23,288.3a5,5,0,0,0,1.79-6.84,5.12,5.12,0,0,0-6.84-1.8,16.38,16.38,0,0,0-3.37,2.54l-1.07,1a2.79,2.79,0,0,1-.31.24,2.26,2.26,0,0,1-.2.13,5,5,0,1,0,5,8.63,18,18,0,0,0,3.18-2.53l1-.93C341.92,321.93,342.17,321.76,342.44,321.62Z"/><path class="cls-1" d="M237.49,316.92h0Z"/><path class="cls-2" d="M555.8,265.3C549.28,386,432.9,477.9,295.86,470.51S53,359.25,59.52,238.53,182.4,25.93,319.45,33.32,562.31,144.57,555.8,265.3Z"/><rect class="cls-3" x="33.5" y="193.01" width="33" height="99" rx="16.5"/><rect class="cls-3" x="547.5" y="193.01" width="33" height="99" rx="16.5"/><path class="cls-4" d="M325.48,122.18c.93,5.42-2.29,7.77-7.16,5.21l-7.89-4.13c-4.87-2.55-12.84-2.55-17.71,0l-7.89,4.13c-4.87,2.56-8.09.21-7.16-5.21l1.5-8.7c.93-5.42-1.53-13-5.48-16.82l-6.37-6.19c-3.94-3.83-2.71-7.61,2.73-8.4l8.83-1.28c5.44-.79,11.89-5.46,14.33-10.39l3.93-7.93c2.44-4.92,6.43-4.92,8.87,0l3.93,7.93c2.44,4.93,8.89,9.6,14.33,10.39l8.83,1.28c5.45.79,6.67,4.57,2.73,8.4l-6.37,6.19c-3.94,3.83-6.41,11.4-5.48,16.82Z"/><path class="cls-5" d="M325.48,122.18c.93,5.42-2.29,7.77-7.16,5.21l-7.89-4.13c-4.87-2.55-12.84-2.55-17.71,0l-7.89,4.13c-4.87,2.56-8.09.21-7.16-5.21l1.5-8.7c.93-5.42-1.53-13-5.48-16.82l-6.37-6.19c-3.94-3.83-2.71-7.61,2.73-8.4l8.83-1.28c5.44-.79,11.89-5.46,14.33-10.39l3.93-7.93c2.44-4.92,6.43-4.92,8.87,0l3.93,7.93c2.44,4.93,8.89,9.6,14.33,10.39l8.83,1.28c5.45.79,6.67,4.57,2.73,8.4l-6.37,6.19c-3.94,3.83-6.41,11.4-5.48,16.82Z"/><path class="cls-6" d="M481.09,146.08c4.7,0,9.21-4.14,9-9a9.16,9.16,0,0,0-9-9c-4.71,0-9.22,4.14-9,9a9.16,9.16,0,0,0,9,9Z"/><path class="cls-6" d="M488.31,163.32a170.64,170.64,0,0,1,14.74,27.42l-.91-2.15q2.63,6.25,4.76,12.69a9.54,9.54,0,0,0,4.14,5.37,9.19,9.19,0,0,0,6.94.91c4.44-1.44,7.87-6.28,6.28-11.07a177.41,177.41,0,0,0-20.41-42.25,9.51,9.51,0,0,0-5.38-4.14,9.17,9.17,0,0,0-6.93.91c-3.91,2.52-6,8.11-3.23,12.31Z"/><path class="cls-7" d="M473.23,291.88a7.16,7.16,0,0,0,1.18-5.42c-4.07-24.42-8.56-48.76-13.19-73.08C445.36,51.46,372.39,116.44,329.81,222c-21.35-5.14-44.48-6.43-65.94,1.06C225,32.92,151.06,150.69,144.54,270.87,107,301.92,103,355.57,125.6,394.73c32.08,26.06,68.94,48.42,110.92,52.35,5,.47,6.11,6.82,3.17,9.16,53,10.29,107.36,7.48,162.4-5.28a5.18,5.18,0,0,1,3.32-4.49,173.92,173.92,0,0,1,19.53-6.21c5.19-3.85,11.42-6.55,17.19-9.11,12.79-5.67,24.92-13.57,34.25-24.09a4.94,4.94,0,0,1,1.31-1.07C500.6,371.6,498,324.15,473.23,291.88Zm-252.8,28.34c-6.44,0-6.43-10,0-10S226.87,320.22,220.43,320.22ZM241,316.83a20.88,20.88,0,0,0-2.74,0c-.19,0-.68.09-.79.11s-.4.07-.6.13c.18,2.7-2.43,5-5,5a5.12,5.12,0,0,1-5-5c-.54-8,7.63-10.6,14.13-10.21a5,5,0,1,1,0,10Zm101.4,4.79c-.27.14-.52.31-.78.46l-1,.92a18.41,18.41,0,0,1-3.18,2.53,5,5,0,1,1-5.05-8.63l.21-.13c.11-.08.22-.16.31-.24l1.07-1a15.65,15.65,0,0,1,3.37-2.53,5.11,5.11,0,0,1,6.84,1.79A5,5,0,0,1,342.44,321.62Z"/><path class="cls-1" d="M459.15,285.92c-13,10.47,38.16,38.34,12.41,100.28a6.69,6.69,0,0,0-6.56,3.15c-8.26,13.72-19.8,25-29.65,37.27-2.12.75-4.15,1.46-6,2.16-80.1,28-269.29,39.26-302.24-61.34-9.29-32.26,1.92-66.41,27.37-87.81a5.67,5.67,0,0,0,1.84-6.84c10.33-97,56.16-221.66,92.77-47.5-8.52,5.74.55,22.26,9.32,14.84,21.36-10.48,47.77-10.34,70.47-3.51,1.72.26,2,1.6,1.29-.37,4.57,10.47,19.26,1.8,11.77-6.86a7.33,7.33,0,0,0,.76-5.26C435.49,31.45,436.54,170.6,459.15,285.92Z"/><path class="cls-8" d="M429.35,428.78c-80.1,28-269.29,39.26-302.24-61.34-9.29-32.26,1.92-66.41,27.37-87.81a5.67,5.67,0,0,0,1.84-6.84c10.33-97,56.16-221.66,92.77-47.5-8.52,5.74.55,22.26,9.32,14.84,21.36-10.48,47.77-10.34,70.47-3.51,1.72.26,2,1.6,1.29-.37,4.57,10.47,19.26,1.8,11.77-6.86a7.33,7.33,0,0,0,.76-5.26c92.79-192.68,93.84-53.53,116.45,61.79-13,10.47,38.16,38.34,12.41,100.28a6.69,6.69,0,0,0-6.56,3.15c-8.26,13.72-19.8,25-29.65,37.27C433.23,427.37,431.2,428.08,429.35,428.78Z"/><path class="cls-4" d="M490.89,318.31a4.13,4.13,0,0,0-5.09-3.57c-2.62-9.38-5.32-20.21-12.76-26.63-2.08-6.58-1.08-14.55-4.35-20.73.76-14.27-1.6-28.39-2.26-42.61a5.2,5.2,0,0,0-6.09-4.81c-2.44-11.13,2-61.26-12.45-60.31a177.91,177.91,0,0,0-3.22-20.9c5.12-6-5.84-13.67-4.64-20.48-.31-8.87-18-5.73-14.4,3.43,14.34,42.33,14.72,93.21-19,126.47a6.34,6.34,0,0,0-1.15,8c27.53,24,44.17,59.24,42.47,96.78-.32,29.54-8.56,67.35-34.05,85.31a7,7,0,0,0-3.05,6.24c4.63-1.6,9.36-3,14.12-4.23a73.19,73.19,0,0,1,13.6-7.51l.41-.54c.12.08.24.13.36.2l2.83-1.26a113.32,113.32,0,0,0,19-10.62c1.16-3.37,2-6.69,2.6-9,6.89,1.72,8.57-6.82,9.58-12.17a4.94,4.94,0,0,0,3.92-2.24c4.84-2.23,4.21-9.83,5.68-14.43a63.53,63.53,0,0,0,6.81-22.08C499.3,349.05,493.09,331.53,490.89,318.31Z"/><path class="cls-4" d="M261,210.44c1.35-36.71-11.33-85.37-46.46-100.87-7.45-2.86-10.65,10.62-3.24,13.46,15.72,6,25.81,24.81,31.43,41.7a124.81,124.81,0,0,1,4.76,59.08c-1.13,6.87,5.47,11.55,10.17,6.78a94.3,94.3,0,0,1,7.86-7.14C271.37,218.75,266.78,208.23,261,210.44Z"/><path class="cls-6" d="M151.91,278.61c-15.7,16.75-26.66,38.95-21.75,62.19a7.34,7.34,0,0,0,7.28,9.48c13.76-1,.74-20.33,7.41-34.87,3.17-10.32,9.55-19.18,16.81-26.93C167.77,282,158,272.07,151.91,278.61Z"/><path class="cls-6" d="M151.51,367.17c-1.36-10.61-15.7-7.34-15.56,2.27C136.78,380.76,153.11,378,151.51,367.17Z"/><path class="cls-6" d="M206.14,337.31c-13.79-4.52-19.62,16.8-5.52,20.17C212.83,360.32,218.17,341.19,206.14,337.31Z"/><path class="cls-6" d="M385.46,338c-6.73-7-18.42,1.65-16.39,10.12C373.94,363.76,396,349.49,385.46,338Z"/><path d="M151.55,265.75c3-18.39,6.31-36.74,10.91-54.8,2.28-8.92,4.86-17.76,7.85-26.47q2.26-6.6,4.86-13.09c.41-1,.82-2,1.24-3a6.32,6.32,0,0,0,.25-.6c-.34,1.22-.24.57-.1.23l.78-1.8c.92-2.13,1.88-4.24,2.87-6.35a205.82,205.82,0,0,1,13.37-24.2c.59-.89,1.18-1.78,1.79-2.66.28-.41.57-.81.87-1.22.16-.23.34-.45.5-.69.66-.91-.49.61,0,0a49.38,49.38,0,0,1,4.57-5l1.11-1a3.46,3.46,0,0,1,.66-.54c-.88.35-.63.46-.22.17a30.71,30.71,0,0,1,2.75-1.78c.48-.27,1-.53,1.46-.76a5.06,5.06,0,0,0,.74-.35c-.12.1-1.29.49-.29.14a28.06,28.06,0,0,1,3.12-1l.79-.16c.95-.2-.4.1-.39,0a10,10,0,0,1,1.4-.12c.54,0,1.07,0,1.61,0,.27,0,.54,0,.81,0,.76,0-1.5-.3-.2,0a23.72,23.72,0,0,1,3,.81c.2.08,1.06.39.23.08s-.12,0,0,0c.62.31,1.23.62,1.82,1,.83.5,1.63,1,2.42,1.61s-.14-.06-.23-.18a4.94,4.94,0,0,0,.65.52c.48.4.95.81,1.42,1.22a62.87,62.87,0,0,1,4.75,4.77c.7.79,1.38,1.59,2,2.41l.53.66c.26.32.39.81-.16-.22a11.86,11.86,0,0,0,1,1.35c1.32,1.82,2.57,3.7,3.75,5.62a121.33,121.33,0,0,1,6.34,11.92c.49,1,1,2.09,1.43,3.15.25.56.49,1.12.73,1.69.44,1,0,0-.07-.16.16.35.3.71.44,1.06.94,2.27,1.82,4.57,2.66,6.87,1.66,4.55,3.15,9.16,4.51,13.81,2.74,9.32,5,18.77,7.11,28.25l1.59,7.22a6,6,0,0,0,7.38,4.19,6.14,6.14,0,0,0,4.19-7.38C267.77,191,263.11,171,255.08,152c-3.65-8.63-7.93-17.09-13.62-24.58a68.08,68.08,0,0,0-10-10.86c-3.92-3.34-8.48-6.43-13.66-7.34-10.8-1.89-21,3.4-28,11.42C183.45,128,178.53,136.8,174,145.4a275.9,275.9,0,0,0-20.86,53.87,539.05,539.05,0,0,0-12,56.36q-.57,3.47-1.13,6.93a6.51,6.51,0,0,0,.61,4.62,6.12,6.12,0,0,0,3.58,2.76c2.88.65,6.85-.88,7.38-4.19Z"/><path d="M262.22,227.33q1.65-.87,3.33-1.68l1.7-.77a6.64,6.64,0,0,1,.95-.41l-.67.28.76-.31q3.56-1.44,7.23-2.52T283,220.1c1.22-.23,2.44-.45,3.67-.63a4.38,4.38,0,0,1,.82-.12c-1.17-.09-.86.11-.36.06.76-.09,1.51-.18,2.27-.25a82.85,82.85,0,0,1,15.51,0l1.65.16,1,.12c.63.08,1-.21-.16,0a6.2,6.2,0,0,1,1.64.24q1,.16,2,.36c2.57.48,5.13,1.09,7.65,1.82,1.32.38,2.64.8,3.94,1.25a23.89,23.89,0,0,1,4.25,1.62c-.12-.07-1.26-.55-.28-.12l1.13.51a9.61,9.61,0,0,0,4.08,1.14c4.49,0,7.15-4.49,6.22-8.57a6.06,6.06,0,0,0-7.38-4.19,6.14,6.14,0,0,0-4.2,7.38l.07.29v-3.19l.36-.9,2.15-2.16-.25.16,3-.82-.3,0,3,.82a89,89,0,0,0-61.64-4.85A86.43,86.43,0,0,0,256.17,217a6.05,6.05,0,0,0-2.16,8.21,6.14,6.14,0,0,0,8.21,2.15Z"/><path d="M334.87,218.78c.88-2.63,1.83-5.23,2.83-7.81.5-1.29,1-2.57,1.54-3.85.11-.29.23-.57.35-.85.42-1,0,0-.07.16.24-.72.61-1.43.91-2.12,2.22-5.07,4.63-10.06,7.18-15,5.1-9.86,10.74-19.42,16.54-28.88,2.67-4.35,5.38-8.69,8.23-12.93q2.13-3.17,4.38-6.26l1-1.36c.22-.28.43-.57.64-.85l.18-.23c-.61.78.26-.33.31-.39l.53-.66c.44-.55.88-1.1,1.33-1.64a97.45,97.45,0,0,1,10.46-10.94c.89-.8,1.8-1.57,2.72-2.32.31-.25,1.79-1.59.61-.5a16.69,16.69,0,0,1,1.67-1.23,53.1,53.1,0,0,1,6.36-3.9c.49-.26,1-.51,1.49-.75l.75-.35c.1,0,1.36-.58.43-.19s0,0,.24-.09l1-.37c.64-.23,1.29-.45,1.95-.65,1.1-.34,2.22-.63,3.35-.86.14,0,1.79-.33,1.79-.31s-1.57.15-.4.06l1.2-.1a27.23,27.23,0,0,1,3.38,0c.27,0,.53,0,.79.06,1.25.12-.18.11-.21,0,0,.06,1.83.36,2,.39a27.47,27.47,0,0,1,3.19,1c.74.27-1.12-.52-.42-.17.28.13.56.25.83.39q.81.41,1.59.87t1.23.78l.6.41c.12.08,1.1.79.26.18s-.08-.05.1.1.47.39.69.59c.46.4.91.82,1.34,1.25.7.69,1.36,1.41,2,2.16.2.23.4.47.59.71.45.55.2.79-.13-.19a8.37,8.37,0,0,0,1.11,1.51,67.37,67.37,0,0,1,6.35,11.8c.36.82-.65-1.6-.06-.14l.36.88c.24.59.47,1.17.7,1.76.54,1.4,1.07,2.81,1.57,4.23,1,2.68,1.84,5.38,2.67,8.1,1.67,5.46,3.1,11,4.42,16.52,2.68,11.33,5,22.75,7.17,34.19s4.15,23,5.91,34.54q.66,4.35,1.29,8.72c.21,1.46.41,2.91.61,4.37l.27,1.94s.22,1.63.09.66.06.49.09.66q1.15,8.75,2.16,17.51.51,4.38,1,8.77a6.49,6.49,0,0,0,1.75,4.24,6.1,6.1,0,0,0,4.25,1.76c3-.13,6.35-2.66,6-6q-3.87-36.61-10.43-72.89-3.25-17.88-7.18-35.64a245.59,245.59,0,0,0-9.61-33.76c-3.62-9.5-8.07-19.45-15.91-26.27a31,31,0,0,0-14.21-7.34,35.65,35.65,0,0,0-17.07,1c-10.61,3.19-19.75,10.14-27.38,18S364.12,138,358.29,147.17c-12.27,19.29-23.88,39.25-32.17,60.61q-1.5,3.87-2.82,7.8a6,6,0,0,0,4.19,7.39,6.16,6.16,0,0,0,7.38-4.19Z"/><path d="M104.91,359.61a101.52,101.52,0,0,0,26.53,46.85c5.46,5.48,13.94-3,8.48-8.48a89.48,89.48,0,0,1-23.44-41.56c-1.89-7.48-13.47-4.31-11.57,3.19Z"/><path d="M141.2,260.87c-18.37,15.06-32.08,35.76-36.92,59.17-1.56,7.53,10,10.76,11.57,3.19,4.48-21.62,16.89-40,33.84-53.87,6-4.9-2.56-13.35-8.49-8.49Z"/><path d="M100.75,339.36v.25a5.66,5.66,0,0,0,.65,2.89,6.75,6.75,0,0,0,4,4,5.66,5.66,0,0,0,2.89.65l2-.27a7.44,7.44,0,0,0,3.31-1.93l1.18-1.52a7.4,7.4,0,0,0,1-3.78v-.25a5.61,5.61,0,0,0-.65-2.89,5.54,5.54,0,0,0-1.55-2.42,8.28,8.28,0,0,0-5.3-2.19l-2,.26a7.5,7.5,0,0,0-3.31,1.93l-1.18,1.52a7.61,7.61,0,0,0-1,3.79Z"/><path d="M266.43,346.3A43.28,43.28,0,0,0,288,332.76c5-5.84-3.45-14.36-8.49-8.49a32.2,32.2,0,0,1-16.31,10.46c-7.44,2-4.29,13.61,3.19,11.57Z"/><path d="M278.76,332c5.45,7.59,13.23,13,22.54,14.59,3.2.55,6.47-.84,7.39-4.19.79-2.88-1-6.83-4.2-7.38-6.12-1-11.69-3.95-15.37-9.08-1.89-2.63-5.23-3.9-8.21-2.15-2.6,1.52-4.05,5.56-2.15,8.21Z"/><path class="cls-1" d="M318.16,304.57v.17a4.61,4.61,0,0,0,.52,2.31,4.52,4.52,0,0,0,1.24,1.93,4.58,4.58,0,0,0,1.93,1.24,4.51,4.51,0,0,0,2.31.52l1.6-.22a6,6,0,0,0,2.65-1.54l.94-1.22a5.92,5.92,0,0,0,.81-3v-.17a5.78,5.78,0,0,0-3.68-5.48,4.52,4.52,0,0,0-2.32-.52l-1.59.21a6,6,0,0,0-2.65,1.55l-.94,1.21a6.09,6.09,0,0,0-.82,3Z"/><path class="cls-1" d="M212.11,301v.17a5.8,5.8,0,0,0,3.69,5.48,4.61,4.61,0,0,0,2.31.52l1.6-.22a6,6,0,0,0,2.65-1.54l.93-1.22a5.83,5.83,0,0,0,.82-3V301a6.62,6.62,0,0,0-1.75-4.24,6.7,6.7,0,0,0-4.25-1.76l-1.59.21a6,6,0,0,0-2.65,1.55l-.94,1.21a6.09,6.09,0,0,0-.82,3Z"/><path d="M128.91,403.86c21.15,24.53,52.35,37.13,83,45.05a428.7,428.7,0,0,0,112.16,13.77c35.38-.42,71.71-4.92,104.6-18.61,28.12-11.7,53.27-32.4,65.58-60.81,12.91-29.79,11.2-65.86-7.3-93a93,93,0,0,0-8.43-10.63,6,6,0,0,0-8.49,0,6.13,6.13,0,0,0,0,8.48,63.7,63.7,0,0,1,7.23,9.21,84.53,84.53,0,0,1,5.62,9.94c.41.86.8,1.72,1.19,2.59.48,1.09.16.37.06.13.18.44.36.88.53,1.32q1.1,2.78,2,5.61a88.54,88.54,0,0,1,2.74,11c.16.83.3,1.67.43,2.51l.21,1.4c-.15-1.09,0-.11,0,.09.23,2.07.43,4.13.54,6.21a94.74,94.74,0,0,1-.06,11.05c-.12,1.79-.3,3.58-.5,5.37s.12-.71-.05.37c-.08.47-.14.94-.21,1.41-.17,1-.35,2.05-.54,3.07a94.41,94.41,0,0,1-2.74,10.74c-.58,1.81-1.21,3.61-1.9,5.38-.13.35-.27.7-.42,1.06,0,.07-.76,1.8-.27.67-.38.86-.76,1.73-1.16,2.58a99.67,99.67,0,0,1-5.18,9.6c-.94,1.54-1.93,3.05-3,4.54l-1.25,1.77-1,1.3c-.15.2-1.11,1.45-.37.5a105.31,105.31,0,0,1-7.06,8.16c-2.48,2.59-5.1,5.07-7.82,7.42q-1.85,1.59-3.75,3.1c-.09.07-1.51,1.16-.49.39l-.86.65c-.8.6-1.6,1.18-2.41,1.76a128.61,128.61,0,0,1-18.41,10.9q-2.44,1.19-4.93,2.28l-1,.43c1.21-.52-.45.18-.57.23-1,.4-1.93.78-2.91,1.16-4,1.57-8.1,3-12.21,4.32a237,237,0,0,1-25.13,6.5,301.09,301.09,0,0,1-50.06,5.64,411.79,411.79,0,0,1-54.07-1.55,412.35,412.35,0,0,1-52.57-8.47c-15.62-3.55-31.22-7.77-46-14,.9.38,0,0-.15-.07l-1.58-.69-2.35-1.06c-1.81-.84-3.62-1.71-5.4-2.62-3.39-1.72-6.72-3.57-10-5.56s-6.22-4-9.19-6.21l-1.13-.86-.14-.11c-.74-.59-1.48-1.18-2.21-1.79q-2.29-1.92-4.49-4a102.16,102.16,0,0,1-7.77-8.08c-2.06-2.39-6.4-2.27-8.48,0a6.13,6.13,0,0,0,0,8.48Z"/><path d="M222.82,459.41a539.7,539.7,0,0,0,58.56,10.15,508,508,0,0,0,58.08,3.6c11,0,22.18-.61,32.73-3.87,3-.93,5.21-4.23,4.19-7.38s-4.17-5.19-7.38-4.19q-3.36,1-6.81,1.74c-1.07.22-2.14.41-3.22.58l-1.62.25c-.88.13,1.08-.13.2,0l-1.16.14a136.61,136.61,0,0,1-13.86.75c-9.49.09-19-.24-28.45-.76q-14.44-.79-28.83-2.39c-2.34-.25-4.67-.53-7-.82l-3.62-.46-.73-.1c-.89-.11,1.05.15.15,0l-1.92-.26q-7.11-1-14.18-2.17-16.06-2.68-31.94-6.38c-3.06-.7-6.65.95-7.39,4.2-.69,3.06.93,6.62,4.2,7.38Z"/><path d="M218.09,311.77l32.35.29a12.38,12.38,0,0,0,8.48-3.52,12.21,12.21,0,0,0,3.52-8.48c-.3-6.55-5.28-11.94-12-12l-32.35-.29a12.38,12.38,0,0,0-8.49,3.52,12,12,0,0,0,8.49,20.48Z"/><path d="M320.61,314.19q17.34.8,34.69.47a12.51,12.51,0,0,0,8.49-3.51,12,12,0,0,0-8.49-20.49q-17.34.33-34.69-.47a12,12,0,0,0,0,24Z"/></g></svg>