<svg xmlns="http://www.w3.org/2000/svg" viewBox="0 0 512 512"><defs><style>.cls-1{fill:#54befd;}.cls-1,.cls-2,.cls-3,.cls-6{fill-rule:evenodd;}.cls-2{fill:#396c9d;}.cls-3{fill:#7befe5;}.cls-4{fill:#074785;}.cls-5,.cls-6{fill:#fff;}</style></defs><g id="_03" data-name="03"><path class="cls-1" d="M453.36,417.34C367.14,526,209.48,543.71,100.27,457-7.86,371.15-25.82,213.49,60.19,105.12A251,251,0,0,1,453.36,417.34Z"/><path class="cls-2" d="M146.55,399.88C69.87,339,57.21,227,118.3,150.27c60.54-76.08,172.47-88.56,248.93-27.76,76.67,61,89.12,172.62,27.84,249.54C334.59,447.94,222.79,460.47,146.55,399.88Z"/><path class="cls-3" d="M201.54,167c10-7.93,21.56-12.3,34.08-14.15,15-2.2,29.87-2.05,44.45,2.69,31.72,10.3,50.67,40,48,72.63-2,23.86-13.42,42.42-33.3,55.67a128.73,128.73,0,0,1-13.15,7.09,2.3,2.3,0,0,0-1.59,2.43c.1,5.3.1,10.61.1,15.9,0,11.88-7.7,20.56-19.51,21.84-8.11.88-15.19-1.26-20.45-7.83A19.93,19.93,0,0,1,236,310.68c-.12-10.68-.26-21.34-.12-32,.12-9.75,4.9-16.5,13.92-20.3,5.72-2.43,11.53-4.71,17-7.56,11.92-6.19,17.73-16.21,17.27-29.66-.36-10.15-5.9-17.09-14.26-22.09-7.69-4.59-16.06-5.08-24.7-3.86-12.12,1.71-21,8.14-27.36,18.44-3.77,6.15-9.11,9.82-16.49,9.86-14.09.09-28.28-14.95-21.06-30.6,2.13-4.62,5.45-8.79,8.69-12.79,3.83-4.72,8.16-9,12.27-13.51Z"/><path class="cls-3" d="M243.7,354.46c10.09-8,26.47-6.25,34.11,3.6a17.08,17.08,0,0,1,3.78,9.48,74.19,74.19,0,0,1,.05,11.45c-.68,7.24-4.62,12.42-11.09,15.71-9.28,4.71-21.26,3.15-28.57-3.82a16.25,16.25,0,0,1-5.3-10.51,81.65,81.65,0,0,1-.05-13.81C237.09,361.49,239.71,357.61,243.7,354.46Z"/><path class="cls-4" d="M162.06.42c-22.24.67-35.34,17.81-35.67,39.14-.18,10.92,16.78,11.92,17,1,.18-12,4.6-21.23,17.18-23.07,13.81-2,21.19,7.78,19.81,20.62-1.18,10.91,15.78,11.81,16.94,1C199.68,16.88,184.47-.27,162.06.42Z"/><path class="cls-4" d="M345.76,0C323.51,0,309.93,16.77,309,38.09c-.5,10.91,16.42,12.4,16.91,1.45.54-11.95,5.22-21.09,17.85-22.57,13.86-1.62,20.95,8.4,19.2,21.19-1.49,10.87,15.44,12.26,16.92,1.45C382.89,17.54,368.18,0,345.76,0Z"/><path class="cls-4" d="M279.63,49.38c.43-4.07-1.18-8-5.56-9.05-3.59-.85-8.64,1.49-9.06,5.57-.6,5.88-1.7,16.1-8.41,18.3-9.49,3.11-14-8.38-14.66-15.54-.89-9.6-15.93-9.16-15,.53,1.48,16,11,30.73,28.58,30.22C271.33,79,278.24,63,279.63,49.38Z"/><path class="cls-5" d="M59.72,205.09c15.4-44.43,45.6-85.42,82.67-114.22,10.1-7.85-3.56-22.22-13.57-14.45-39.69,30.85-71.57,75.32-88,122.82-4.19,12.11,14.77,17.88,18.93,5.85Z"/><path class="cls-6" d="M42.1,228c-12.37-.38-13,18.79-.6,19.18S54.47,228.42,42.1,228Z"/><path class="cls-6" d="M163.17,55.7c-12.37-.38-13,18.79-.6,19.18S175.53,56.09,163.17,55.7Z"/><path class="cls-5" d="M435.34,369.67c-26.42,38.9-66.23,70.63-109.52,88.8-11.79,4.95-2.34,22.38,9.35,17.48,46.35-19.47,88.69-54.12,116.93-95.7,7.2-10.61-9.6-21.12-16.76-10.58Z"/><path class="cls-6" d="M458.33,352.09c11.84,3.59,17.4-14.77,5.56-18.36S446.49,348.5,458.33,352.09Z"/><path class="cls-6" d="M296.62,487c11.84,3.59,17.4-14.77,5.56-18.36S284.77,483.44,296.62,487Z"/><path class="cls-5" d="M355.84,324.22a8.23,8.23,0,1,1-8.23-8.22A8.23,8.23,0,0,1,355.84,324.22Z"/><path class="cls-5" d="M132.48,231.8a8.23,8.23,0,1,1-8.23-8.22A8.22,8.22,0,0,1,132.48,231.8Z"/><path class="cls-5" d="M261.51,120a8.23,8.23,0,1,1-8.23-8.23A8.23,8.23,0,0,1,261.51,120Z"/><path class="cls-5" d="M322.45,397.48a8.23,8.23,0,1,1-8.23-8.23A8.23,8.23,0,0,1,322.45,397.48Z"/><path class="cls-5" d="M146.71,428.74a8.23,8.23,0,1,1-8.23-8.23A8.24,8.24,0,0,1,146.71,428.74Z"/><path class="cls-5" d="M466.47,187.91a8.23,8.23,0,1,1-8.23-8.23A8.23,8.23,0,0,1,466.47,187.91Z"/><path class="cls-5" d="M226.92,477.84a8.23,8.23,0,1,1-8.23-8.22A8.22,8.22,0,0,1,226.92,477.84Z"/><path class="cls-5" d="M67.54,356.52a8.23,8.23,0,1,1-8.23-8.23A8.24,8.24,0,0,1,67.54,356.52Z"/><path class="cls-5" d="M474.7,273.44a8.23,8.23,0,1,1-8.23-8.23A8.22,8.22,0,0,1,474.7,273.44Z"/><path class="cls-5" d="M377.46,226.39c-1.2-1.16-3.61-17.46-5.8-17.33s-4.1,16.3-5.13,17.36c-2,2.14-17.08,3.65-17,5.72s14.89,3.05,17,5.07c1.16,1.12,3.61,17.47,5.8,17.34s4.07-16.25,5.13-17.35c2-2.07,17.13-3.66,17-5.74S379.47,228.34,377.46,226.39Z"/><path class="cls-5" d="M166.37,290.77c-1.2-1.16-3.61-17.46-5.8-17.33s-4.11,16.3-5.13,17.36c-2.05,2.14-17.08,3.65-17,5.72s14.88,3.05,17,5.07c1.16,1.12,3.61,17.47,5.8,17.34s4.06-16.25,5.13-17.35c2-2.06,17.13-3.66,17-5.74S168.37,292.72,166.37,290.77Z"/><path class="cls-4" d="M404.81,96.3c-1.2-1.16-3.61-17.47-5.8-17.34s-4.1,16.3-5.12,17.37c-2.06,2.13-17.09,3.65-17,5.72s14.89,3,17,5.06c1.16,1.13,3.61,17.47,5.8,17.35s4.07-16.25,5.13-17.36c2-2.06,17.13-3.65,17-5.73S406.82,98.25,404.81,96.3Z"/></g></svg>