<?xml version="1.0" encoding="utf-8"?>
<!-- Generator: Adobe Illustrator 26.0.3, SVG Export Plug-In . SVG Version: 6.00 Build 0)  -->
<svg version="1.1" xmlns="http://www.w3.org/2000/svg" xmlns:xlink="http://www.w3.org/1999/xlink" x="0px" y="0px"
	 viewBox="0 0 500 500" style="enable-background:new 0 0 500 500;" xml:space="preserve">
<style type="text/css">
	.st0{fill-rule:evenodd;clip-rule:evenodd;fill:#FFFFFF;}
	.st1{fill:#54BEFD;}
	.st2{fill:#FD809D;}
	.st3{fill:#FFB6BD;}
	.st4{fill-rule:evenodd;clip-rule:evenodd;fill:#FADD77;}
	.st5{fill:#074785;}
	.st6{fill:#FD6085;}
	.st7{fill-rule:evenodd;clip-rule:evenodd;fill:#074785;}
	.st8{fill:#FFFFFF;}
</style>
<g id="BACKGROUND">
	<rect class="st0" width="500" height="0"/>
</g>
<g id="OBJECTS">
	<g>
		<g>
			<g>
				<path class="st1" d="M252.7,244.6c-9.7,2.3-19.2,5.1-28.7,8.5c-9.4,3.4-18.7,7.4-27.7,11.8l-3.4,1.7l-3.3,1.8l-3.3,1.8l-1.7,0.9
					l-1.6,1l-6.6,3.9c-2.2,1.3-4.3,2.7-6.5,4.1c-1.1,0.7-2.2,1.4-3.2,2.1l-3.1,2.2l-3.1,2.2c-1,0.7-2.1,1.5-3.1,2.2l-6.1,4.7
					l-1.5,1.2c-0.5,0.4-1,0.8-1.5,1.2l-3,2.5C113.4,324.5,87.6,359,70.7,398l-52.2-18.3c12.5-22.5,27.4-43.2,44.3-61.5
					c16.9-18.3,35.6-34.3,55.6-47.5l3.7-2.5c0.6-0.4,1.2-0.8,1.9-1.2l1.9-1.2l7.6-4.6c1.3-0.8,2.6-1.5,3.9-2.2l3.9-2.1l3.9-2.1
					c1.3-0.7,2.6-1.3,3.9-2c2.6-1.3,5.2-2.6,7.9-3.8l8-3.5l2-0.9l2-0.8l4-1.6l4-1.6l4-1.4c10.8-3.9,21.6-7,32.5-9.6
					c10.9-2.5,21.8-4.3,32.7-5.5L252.7,244.6z"/>
			</g>
			<g>
				<path class="st2" d="M259.3,265.1c-8.5,3.4-16.7,7.2-24.7,11.5c-8,4.3-15.6,9-23,14.1l-2.8,1.9l-2.7,2l-2.7,2l-1.3,1l-1.3,1
					l-5.2,4.2c-1.7,1.4-3.4,2.9-5,4.4c-0.8,0.7-1.7,1.4-2.5,2.2l-2.4,2.3l-2.4,2.3c-0.8,0.8-1.6,1.5-2.4,2.3l-4.6,4.7l-1.2,1.2
					c-0.4,0.4-0.7,0.8-1.1,1.2l-2.2,2.5c-23.5,26.2-40.1,57.5-48.9,90.4L70.7,398c16.9-39,42.7-73.5,74.4-99.7l3-2.5
					c0.5-0.4,1-0.8,1.5-1.2l1.5-1.2l6.1-4.7c1-0.8,2.1-1.5,3.1-2.2l3.1-2.2l3.1-2.2c1-0.7,2.1-1.4,3.2-2.1c2.2-1.4,4.3-2.8,6.5-4.1
					l6.6-3.9l1.6-1l1.7-0.9l3.3-1.8l3.3-1.8l3.4-1.7c9-4.5,18.3-8.5,27.7-11.8c9.4-3.4,19-6.2,28.7-8.5L259.3,265.1z"/>
			</g>
			<g>
				<path class="st3" d="M265.8,285.7c-7.3,4.5-14.1,9.3-20.6,14.5c-6.5,5.2-12.6,10.7-18.2,16.4l-2.1,2.1l-2,2.2l-2,2.2l-1,1.1
					l-1,1.1l-3.8,4.5c-1.2,1.5-2.4,3.1-3.6,4.6c-0.6,0.8-1.2,1.5-1.8,2.3l-1.7,2.4l-1.7,2.4c-0.6,0.8-1.1,1.5-1.6,2.4l-3.1,4.8
					l-0.8,1.2c-0.3,0.4-0.5,0.8-0.7,1.2l-1.4,2.5c-7.6,13-13.3,26.6-17.1,40.2c-3.9,13.7-5.9,27.5-6.3,40.8l-52.2-18.3
					c8.8-32.9,25.4-64.3,48.9-90.4l2.2-2.5c0.4-0.4,0.7-0.8,1.1-1.2l1.2-1.2l4.6-4.7c0.8-0.8,1.6-1.5,2.4-2.3l2.4-2.3l2.4-2.3
					c0.8-0.8,1.7-1.5,2.5-2.2c1.7-1.4,3.3-2.9,5-4.4l5.2-4.2l1.3-1l1.3-1l2.7-2l2.7-2l2.8-1.9c7.4-5.1,15-9.9,23-14.1
					c8-4.3,16.2-8.1,24.7-11.5L265.8,285.7z"/>
			</g>
			<path class="st4" d="M467.7,130.4c-5.5-8.4-14.3-9.5-23.6-8.5c-21.5,2.3-43.1,4.1-64.5,6.9c-17.9,2.4-32.3,0.1-43.8-16.6
				c-13.1-19-29.1-36.1-43.8-54c-5.9-7.1-12.3-12.2-22.7-10.2c-0.3,0.1-0.5,0.1-0.8,0.2c-0.3,0.1-0.5,0.1-0.8,0.2
				c-10.2,2.8-13.6,10.2-15.7,19.2c-5.1,22.6-11.7,45-14.9,67.9c-2.8,20.1-14.6,28.6-31.7,34.5c-20.4,7.1-40.5,15.1-60.7,22.8
				c-8.7,3.3-16.1,8.3-17.2,18.2c-1.2,10.5,4.8,16.9,13.6,22c22.9,13.3,45.3,27.3,68.1,40.7c8.7,5.1,13.1,11.7,13.4,22.2
				c0.9,25.6,2.7,51.2,4.8,76.7c0.8,9.5,1.6,20.1,12.5,24.3c10.4,4,18.4-1.7,25.9-8.4c18.8-16.8,37.9-33.4,56.8-50.1
				c4.2-3.7,8.4-6,12.9-7c4.5-1.2,9.3-1,14.7,0.5c24.4,6.5,48.9,12.7,73.3,19.3c9.8,2.6,19.4,4.1,26.9-4.1
				c7.9-8.6,3.8-18.5,0.3-27.3c-9.6-23.8-19.5-47.4-30.2-70.7c-4.4-9.6-3.4-17.4,2-25.9c14.4-22.2,28.2-44.8,42.6-66.9
				C470.9,147.7,473.4,139.2,467.7,130.4z"/>
			<g>
				<path class="st5" d="M335.6,245c0,0-23.8,7.4-40.5,8.6c0,0,5.6,52.1,32.7,44.8C352.5,291.7,335.6,245,335.6,245z"/>
				<g>
					<path class="st6" d="M313.7,280.1c10.8-1.7,19.8,2.4,24.3,10.3c-2.1,3.8-5.3,6.7-10.2,8c-11.5,3.1-19.2-4.6-24.1-14.4
						C306.2,282.2,309.5,280.8,313.7,280.1z"/>
				</g>
				<g>
					<g>
						<g>
							<g>
								<path class="st0" d="M293.7,205.7c9.4,18.9,1.5,41.8-17.6,51.1c-19.1,9.4-42.2,1.6-51.6-17.2c-9.4-18.9-1.5-41.8,17.6-51.1
									C261.2,179.1,284.3,186.8,293.7,205.7z"/>
								<path class="st7" d="M258.4,184.5c-10,6.3-16.6,17.5-16.5,30.2c0.2,19.2,16.1,34.5,35.4,34c4.2-0.1,8.3-0.9,12-2.4
									c9-11.2,11.2-27,4.4-40.6C286.9,192,272.9,184.1,258.4,184.5z"/>
							</g>
							<g>
								<path class="st0" d="M385.2,186.2c8.4,19.3-0.6,41.8-20.2,50.2c-19.6,8.4-42.3-0.5-50.7-19.9c-8.4-19.3,0.6-41.8,20.2-50.2
									C354.1,157.9,376.7,166.8,385.2,186.2z"/>
								<path class="st7" d="M350.9,163.2c-10.3,5.8-17.5,16.7-18,29.3c-0.8,19.2,14.3,35.3,33.6,35.8c4.2,0.1,8.3-0.5,12.1-1.8
									c9.5-10.7,12.6-26.3,6.5-40.3C379,172.1,365.4,163.6,350.9,163.2z"/>
							</g>
							<path class="st7" d="M378.9,151.1c-7.2-6.9-16.8-9.5-26.5-6.6c-4.8,1.5-2.2,8.8,2.6,7.4c7-2.1,13.6,0.2,18.7,5.2
								C377.5,160.5,382.6,154.5,378.9,151.1z"/>
							<path class="st7" d="M236,168.1c-9.8,2.1-17.3,8.6-20.3,18.2c-1.5,4.8,6.1,6.8,7.6,2c2.2-7,7.8-11.1,14.8-12.6
								C243,174.6,240.9,167.1,236,168.1z"/>
						</g>
					</g>
					<path class="st6" d="M274.5,273.5c1.1,5.9-4.8,11.9-13.2,13.5c-8.4,1.6-16.1-1.9-17.2-7.8c-1.1-5.9,4.8-11.9,13.2-13.5
						C265.7,264.1,273.4,267.6,274.5,273.5z"/>
					<path class="st6" d="M393.9,245.4c1.1,5.9-4.8,11.9-13.2,13.5c-8.4,1.6-16.1-1.9-17.2-7.8c-1.1-5.9,4.8-11.9,13.2-13.5
						C385,236,392.7,239.5,393.9,245.4z"/>
					<g>
						<path class="st8" d="M283.4,200.3c-4.1-3.9-8.7-6.8-14.3-7.7c-2.5-0.4-2.9,3.5-0.4,3.9c4.5,0.7,8.4,3.2,11.6,6.3
							C282.2,204.5,285.2,202,283.4,200.3z"/>
						<path class="st8" d="M262.5,191.3c-0.6,0-1.3-0.1-1.9-0.1c-1.1,0-2,0.6-2.2,1.8c-0.1,1,0.7,2.1,1.8,2.2c0.6,0,1.3,0.1,1.9,0.1
							c1.1,0,2.1-0.6,2.2-1.8C264.4,192.4,263.6,191.3,262.5,191.3z"/>
						<g>
							<path class="st8" d="M287.4,206.5c-0.6-0.9-2-0.9-2.8-0.2c-0.9,0.7-0.9,1.9-0.2,2.8c0,0,0,0,0-0.1c0.2,1,1.2,1.8,2.3,1.6
								c1-0.2,1.9-1.2,1.6-2.3C288.1,207.6,287.8,207.1,287.4,206.5z"/>
							<path class="st8" d="M284.3,209.1C284.3,209.1,284.4,209.1,284.3,209.1C284.4,209.1,284.4,209.1,284.3,209.1
								C284,208.6,284.3,208.9,284.3,209.1z"/>
							<path class="st8" d="M284.4,209.1C284.4,209.4,284.4,209.3,284.4,209.1L284.4,209.1z"/>
							<path class="st8" d="M284.4,209.1L284.4,209.1C284.3,209.1,284.3,209.1,284.4,209.1C284.4,209.1,284.4,209.1,284.4,209.1z"/>
						</g>
					</g>
					<g>
						<path class="st8" d="M372.1,176.9c-4.1-3.9-8.7-6.8-14.3-7.7c-2.5-0.4-2.9,3.5-0.4,3.9c4.5,0.7,8.4,3.2,11.6,6.3
							C370.9,181.1,373.9,178.6,372.1,176.9z"/>
						<path class="st8" d="M351.2,167.9c-0.6,0-1.3-0.1-1.9-0.1c-1.1,0-2,0.6-2.2,1.8c-0.1,1,0.7,2.1,1.8,2.2c0.6,0,1.3,0.1,1.9,0.1
							c1.1,0,2-0.6,2.2-1.8C353,169.1,352.3,167.9,351.2,167.9z"/>
						<g>
							<path class="st8" d="M376.1,183.1c-0.6-0.9-2-0.9-2.8-0.2c-0.9,0.7-0.9,1.9-0.2,2.8c0,0,0,0,0-0.1c0.2,1,1.2,1.8,2.3,1.6
								c1-0.2,1.9-1.2,1.6-2.3C376.8,184.2,376.5,183.7,376.1,183.1z"/>
							<path class="st8" d="M373,185.7C373,185.7,373.1,185.7,373,185.7C373.1,185.7,373,185.7,373,185.7
								C372.7,185.2,373,185.5,373,185.7z"/>
							<path class="st8" d="M373.1,185.8C373.1,186,373.1,185.9,373.1,185.8L373.1,185.8z"/>
							<path class="st8" d="M373,185.7L373,185.7C373,185.7,373,185.7,373,185.7C373,185.7,373,185.7,373,185.7z"/>
						</g>
					</g>
				</g>
			</g>
			<path class="st8" d="M179.5,292.4c-0.6-0.6-1.9-9.1-3-9c-1.1,0.1-2.1,8.4-2.7,9c-1.1,1.1-8.9,1.9-8.8,3c0.1,1.1,7.7,1.6,8.8,2.6
				c0.6,0.6,1.9,9.1,3,9c1.1-0.1,2.1-8.4,2.7-9c1-1.1,8.9-1.9,8.8-3C188.2,293.9,180.5,293.4,179.5,292.4z"/>
			<path class="st8" d="M79,329.1c-0.6-0.6-1.9-9.1-3-9c-1.1,0.1-2.1,8.5-2.7,9c-1.1,1.1-8.9,1.9-8.8,3c0.1,1.1,7.7,1.6,8.8,2.6
				c0.6,0.6,1.9,9.1,3,9c1.1-0.1,2.1-8.4,2.7-9c1-1.1,8.9-1.9,8.8-3C87.8,330.7,80.1,330.1,79,329.1z"/>
			<path class="st8" d="M164.3,383.6c-0.6-0.6-1.9-9.1-3-9c-1.1,0.1-2.1,8.5-2.7,9c-1.1,1.1-8.9,1.9-8.8,3c0.1,1.1,7.7,1.6,8.8,2.6
				c0.6,0.6,1.9,9.1,3,9c1.1-0.1,2.1-8.4,2.7-9c1-1.1,8.9-1.9,8.8-3C173,385.2,165.3,384.6,164.3,383.6z"/>
			<path class="st8" d="M113.2,359.9c-6.9,0-6.9,10.7,0,10.7C120.2,370.6,120.2,359.9,113.2,359.9z"/>
			<path class="st8" d="M127.4,284.1c-6.9,0-6.9,10.7,0,10.7C134.3,294.8,134.3,284.1,127.4,284.1z"/>
			<path class="st8" d="M183.1,338.4c-6.9,0-6.9,10.7,0,10.7C190,349.1,190,338.4,183.1,338.4z"/>
			<g>
				<path class="st8" d="M403.6,290.2c-1.3-1.3-4-19.5-6.5-19.3c-2.4,0.2-4.6,18.2-5.7,19.4c-2.3,2.4-19.1,4.1-18.9,6.4
					c0.1,2.3,16.6,3.4,18.9,5.7c1.3,1.3,4,19.5,6.5,19.4c2.4-0.1,4.5-18.1,5.7-19.4c2.2-2.3,19.1-4.1,19-6.4
					C422.4,293.5,405.8,292.3,403.6,290.2z"/>
				<path class="st8" d="M291.3,127.5c-0.6-0.6-1.9-9.1-3-9c-1.1,0.1-2.1,8.5-2.7,9c-1.1,1.1-8.9,1.9-8.8,3c0.1,1.1,7.7,1.6,8.8,2.6
					c0.6,0.6,1.9,9.1,3,9c1.1-0.1,2.1-8.4,2.7-9c1-1.1,8.9-1.9,8.8-3C300,129,292.3,128.5,291.3,127.5z"/>
				<path class="st8" d="M431.9,186.1c3.9-6.5-6.1-12.5-10-6.1c-4.7,7.8-9,15.7-13.7,23.5c-3.9,6.5,6.1,12.5,10,6.1
					C422.9,201.8,427.2,193.8,431.9,186.1z"/>
				<path class="st8" d="M437.6,163.2c-6.5-3.9-12.5,6.1-6.1,10C438,177.1,444.1,167.1,437.6,163.2z"/>
				<path class="st8" d="M183.1,198.8c7.2-2.2,3.9-13.4-3.4-11.2c-8.7,2.6-17.2,5.6-25.9,8.2c-7.2,2.2-3.9,13.4,3.4,11.2
					C165.9,204.4,174.4,201.4,183.1,198.8z"/>
				<path class="st8" d="M202.7,185.7c-2.2-7.2-13.4-3.9-11.2,3.4C193.6,196.3,204.8,192.9,202.7,185.7z"/>
				<path class="st8" d="M286.5,351.1c5.6-5-2.1-13.8-7.8-8.8c-6.8,6-13.3,12.4-20,18.4c-5.6,5,2.1,13.8,7.8,8.8
					C273.2,363.5,279.7,357.1,286.5,351.1z"/>
				<path class="st8" d="M298.7,330.9c-5-5.7-13.8,2.1-8.8,7.8C295,344.4,303.7,336.6,298.7,330.9z"/>
				<path class="st8" d="M257.6,76.5c-1.8,6.7-3.9,13.3-5,20.1c-1,6.8,9.6,8.2,10.6,1.3c0.9-5.9,2.7-11.6,4.2-17.3
					c0.8-2.8,0.1-5.8-2.9-7C262.1,72.6,258.3,73.7,257.6,76.5z"/>
				<path class="st8" d="M248,114.1c-2.7,6.4,7.2,10.5,9.9,4.1C260.6,111.8,250.7,107.7,248,114.1z"/>
				<path class="st8" d="M247.6,316.4c-6.9,0-6.9,10.7,0,10.7C254.5,327.1,254.5,316.4,247.6,316.4z"/>
				<path class="st8" d="M396.4,146.2c-6.9,0-6.9,10.7,0,10.7C403.4,157,403.4,146.2,396.4,146.2z"/>
			</g>
		</g>
	</g>
</g>
</svg>
