<?xml version="1.0" encoding="utf-8"?>
<!-- Generator: Adobe Illustrator 26.0.3, SVG Export Plug-In . SVG Version: 6.00 Build 0)  -->
<svg version="1.1" xmlns="http://www.w3.org/2000/svg" xmlns:xlink="http://www.w3.org/1999/xlink" x="0px" y="0px"
	 viewBox="0 0 500 500" style="enable-background:new 0 0 500 500;" xml:space="preserve">
<style type="text/css">
	.st0{fill-rule:evenodd;clip-rule:evenodd;fill:#FFFFFF;}
	.st1{fill-rule:evenodd;clip-rule:evenodd;fill:#FCC883;}
	.st2{fill:#FD6085;}
	.st3{fill:#C779D3;}
	.st4{fill:#F9D555;}
	.st5{fill:#074785;}
	.st6{fill:#29AEFD;}
	.st7{fill:#FFA4AC;}
	.st8{fill:#FFFFFF;}
	.st9{fill:#A089E4;}
</style>
<g id="BACKGROUND">
</g>
<g id="OBJECTS">
	<path class="st0" d="M240.5,367.7c-0.8,0-0.8,1.3,0,1.3C241.3,369,241.3,367.7,240.5,367.7z"/>
	<g>
		<g>
			<g>
				<path class="st1" d="M487,199c-18.2,0-61.9,4.2-82.6-14c-20.6-18.1-48.5-26.3-76-32.9c-20.9-5-59.1-9.6-60.3,18.4
					c-0.3,6.7-7.7,9.8-13.3,18c-4.4,7.1,1.7,5.8-0.8,15.1c-1.3,6.5,3.8,9.8,5,15.8c1.3,8.2-5.6,10.9-8.2,17.4
					c-1.3,5.4,0.6,11.4,0,16.3c-1.3,16.9-16,23.1,0.3,35c6.6,4.8,15.1,9.5,21.7,15c7.2,6.1,10.6,15.7,18.3,21
					c30.7,21.1,74.3,12.5,108.3,3.2c16.3-4.5,32-11.7,48.4-15.4c18.5-4.2,33.5,0.9,52.3-1.2"/>
			</g>
			<g>
				<path class="st2" d="M267.9,172.1c-1.3,5.7-8,8.9-13.1,16.4c-4.4,7.1,1.7,5.8-0.8,15.1c-1.3,6.5,3.8,9.8,5,15.8
					c1.3,8.2-5.6,10.9-8.2,17.4c-1.3,5.4,0.6,11.4,0,16.3c-1.3,16.9-16,23.1,0.3,35.1c3.5,2.7,7.2,4.6,10.8,6.1
					c0.5-3.1-0.2-6.6-2.6-10.7c-3.8-6.5-5.6-1.6-0.6-8.2c1.9-2.7,6.3-3.8,7.5-7.6c3.1-8.2-3.1-10.9-4.4-18c-1.3-6.5-1.3-2.2,3.8-8.2
					c2.5-2.7,5.6-4.9,6.3-8.2c3.1-8.7-2.5-13.1-4.4-20.2c-1.9-6-0.6-4.4,3.8-10.9c1.9-2.7,3.1-4.4,3.8-8.2c1.3-6-0.6-13.6-4.4-18.5
					C269.8,174.5,268.9,173.3,267.9,172.1z"/>
			</g>
			<path class="st3" d="M267.8,191.6c10.7-39.6-94.6-69.7-125.5-51.8c-15,8.7-27.6,22.9-43.3,32.7c-17.6,11-32.9,19.9-55.4,18.2
				c-14.5-1.1-29.1-3.1-43.6-4.5l3.7,127l53.9,1.1c16.9,0,36.4-1.6,53.9,0.5c26.3,4.4,47.7,13.1,75.9,12.5
				c15.7-0.5,28.2-6.5,41.4-13.6c15.7-8.7,32.6-16.3,23.2-32.7c-3.8-6.5-5.6-1.6-0.6-8.2c1.9-2.7,6.3-3.8,7.5-7.6
				c3.1-8.2-3.1-10.9-4.4-18c-1.3-6.5-1.3-2.2,3.8-8.2c2.5-2.7,5.6-4.9,6.3-8.2c3.1-8.7-2.5-13.1-4.4-20.2c-1.9-6-0.6-4.4,3.8-10.9
				C265.8,197,267,194.3,267.8,191.6z"/>
			<path class="st4" d="M62,314.2c0.1,3.7-3.1,6.8-7.3,6.9l-12.2,0.3c-4.2,0.1-7.6-2.8-7.8-6.5l-4.7-128.4c-0.1-3.7,3.1-6.8,7.3-6.9
				l12.2-0.3c4.2-0.1,7.6,2.8,7.8,6.5L62,314.2z"/>
			<path class="st2" d="M44.6,223.4c-4.8,0.1-9.3,2-13.1,5.1l2.3,64.2c4,2.9,8.6,4.6,13.5,4.4c5.1-0.1,9.8-2.2,13.8-5.7l-2.3-63
				C54.7,225.1,49.8,223.2,44.6,223.4z"/>
			<g>
				<path class="st5" d="M284.5,232.3c-4.6,3.4-9.7,6.4-13.1,10.9c-4.3,5.5-1.4,11,4.5,14.3c3.2,1.8,6.2-2.7,3-4.4
					c-1.9-1-3.8-2.3-3.8-4.4c0-1.6,1.7-3.3,2.8-4.5c3.1-3.1,7.1-5.5,10.7-8.1C291.6,233.8,287.4,230.2,284.5,232.3L284.5,232.3z"/>
			</g>
			<g>
				<path class="st5" d="M274.7,265.8c-0.1,1.7-2.1,3.3-3.3,4.5c-1.9,1.9-3.8,3.7-5.4,5.8c-3.5,4.6-2.4,9.6,2.5,12.9
					c3,2,7.2-1.6,4.2-3.6c-1.6-1.1-3.4-2.4-2.9-4.4c0.5-1.9,2.3-3.6,3.8-5.1c2.9-3,6.8-6,7.1-10.2
					C280.8,262.4,274.9,262.5,274.7,265.8L274.7,265.8z"/>
			</g>
			<g>
				<path class="st5" d="M270.8,206.1c-0.7,7.3,6.3,12.8,13.5,15.2c3.6,1.2,5.1-3.8,1.6-5c-4.9-1.6-9.6-5.4-9.1-10.2
					C277.1,202.8,271.1,202.8,270.8,206.1L270.8,206.1z"/>
			</g>
			<g>
				<path class="st5" d="M275.2,181.8c10.5,0.3,20.8-1.7,31.3-2.1c10.9-0.5,21.8,1.4,32.7,0.7c3.8-0.3,3.8-5.4,0-5.1
					c-10.5,0.7-21-0.9-31.5-0.7c-10.9,0.2-21.5,2.4-32.4,2.2C271.4,176.6,271.4,181.7,275.2,181.8L275.2,181.8z"/>
			</g>
			<path class="st6" d="M173.6,361.5c-1.2-1-3.7-15.7-6-15.6c-2.3,0.1-4.3,14.7-5.3,15.6c-2.1,1.9-17.7,3.3-17.6,5.2
				c0.1,1.9,15.4,2.7,17.6,4.6c1.2,1,3.7,15.7,6,15.6c2.3-0.1,4.2-14.6,5.3-15.6c2.1-1.9,17.7-3.3,17.6-5.2
				C191.1,364.2,175.7,363.2,173.6,361.5z"/>
			<path class="st2" d="M327.5,111.5c-1.4-1.2-4.2-17.6-6.7-17.4c-2.5,0.1-4.7,16.4-5.9,17.5c-2.4,2.2-19.8,3.7-19.6,5.8
				c0.1,2.1,17.2,3.1,19.6,5.1c1.4,1.1,4.2,17.6,6.7,17.4c2.5-0.1,4.7-16.3,5.9-17.5c2.3-2.1,19.8-3.7,19.7-5.8
				C347.1,114.5,329.9,113.5,327.5,111.5z"/>
			<path class="st4" d="M362.8,106.4c0.5-0.8,1.2-1.9,1.7-2.7c1.8-2.6,2.8-4.2,2.8-5.3c0-0.6-0.5-1.2-2.5-3.6
				c-1-1.2-2.5-3.1-3.3-4.3c1.4,0.5,3.6,1.7,5,2.3c2.9,1.4,3.9,1.9,4.6,1.9l0.1,0c1.2,0,2.8-1,5.6-2.8c0.9-0.6,2.1-1.3,3-1.8
				c-0.5,0.9-1.3,2-1.8,2.8c-1.7,2.6-2.8,4.2-2.8,5.2c0,0.6,0.5,1.2,2.5,3.7c0.9,1.1,2.5,3,3.2,4.2c-1.4-0.6-3.7-1.7-5.1-2.4
				c-3-1.5-3.8-1.9-4.5-1.9h-0.1c-1.2,0.1-3,1.1-5.7,2.9C364.8,105.2,363.7,105.9,362.8,106.4z"/>
			<path class="st4" d="M208.4,356.7c0.5-0.8,1.2-1.9,1.7-2.7c1.8-2.6,2.8-4.2,2.8-5.3c0-0.6-0.5-1.2-2.5-3.6
				c-1-1.2-2.5-3.1-3.3-4.3c1.4,0.5,3.6,1.7,5,2.3c2.9,1.4,3.9,1.9,4.6,1.9h0.1c1.2,0,2.8-1,5.6-2.8c0.9-0.6,2.1-1.3,3-1.8
				c-0.5,0.9-1.2,2-1.8,2.8c-1.7,2.6-2.8,4.2-2.8,5.2c0,0.6,0.5,1.2,2.5,3.7c0.9,1.1,2.5,3,3.2,4.2c-1.4-0.5-3.7-1.7-5.1-2.4
				c-3-1.5-3.8-1.9-4.5-1.9H217c-1.2,0.1-3,1.1-5.7,2.9C210.4,355.5,209.3,356.2,208.4,356.7z"/>
			<path class="st7" d="M126,339.6c-1.2-1.1-3.7-15.7-6-15.6c-2.3,0.1-4.2,14.7-5.3,15.6c-2.1,1.9-17.7,3.3-17.6,5.1
				c0.1,1.9,15.4,2.7,17.6,4.6c1.2,1,3.7,15.7,6,15.6c2.3-0.1,4.2-14.6,5.3-15.6c2.1-1.9,17.7-3.3,17.6-5.2
				C143.5,342.2,128.1,341.3,126,339.6z"/>
			<g>
				<path class="st5" d="M82.5,262.2c11.8,3.2,24.7,3,36.7,0.9c12.3-2.1,24.7-6.7,33.4-14.7c9-8.2,12-19.9,12.1-30.9
					c0.1-11.3-2.9-23.4-10.4-32.8c-0.3-0.3-0.5-0.7-0.8-1c-2.3-2.6-7.4-0.1-5.1,2.6c7.3,8.4,10.2,19.3,10.4,29.7
					c0.3,10.2-2.2,21.1-10.4,28.7c-8,7.5-19.6,11.3-30.8,13.4c-11,2-22.9,2-33.6-0.9C80.5,256.2,78.9,261.2,82.5,262.2L82.5,262.2z"
					/>
			</g>
			<g>
				<path class="st5" d="M186.3,173.1c0.1,13.1,5.9,24.8,16.2,34.3c3.7,3.4,8.7,5.8,13.5,7.8c5.5,2.2,11.5,3.8,17.6,3.8
					c5,0,10.7-1.7,13.4-5.6c2.6-3.8,2.5-9.1,2.6-13.4c0.1-11.3-1.5-22.4-6.2-33c-1.9-4.4-4.3-8.6-7-12.6c-1.9-2.8-7.1-0.3-5.1,2.6
					c6.9,10.2,11.1,21.3,12,33.1c0.4,4.8,0.6,9.5,0.2,14.3c-0.3,3.9-0.9,7.4-5.6,8.8c-4.9,1.5-10.7,0.2-15.4-1.3
					c-5.1-1.5-10.1-3.9-14.3-6.9c-4.9-3.6-8.8-8.9-11.6-13.9c-3.2-5.6-4.4-11.8-4.4-18C192.2,169.7,186.3,169.7,186.3,173.1
					L186.3,173.1z"/>
			</g>
			<g>
				<path class="st5" d="M181.7,182.1c-9.2,4.2-16,14-9.8,22.6c6.6,9.1,21,8.3,31.8,9.1c3.8,0.3,3.8-4.9,0-5.1
					c-8.4-0.7-18.8,0.2-25.4-5.3c-7-5.8-0.3-13.8,6.4-16.8C188.1,185,185.1,180.6,181.7,182.1L181.7,182.1z"/>
			</g>
			<g>
				<path class="st5" d="M176.5,206.8c-5.4,5.9-10.4,11-10.3,18.9c0.1,7.5,4,14.3,11.4,18.4c8.4,4.7,19.9,5.2,29.6,5.3
					c11.7,0.2,23.3-0.8,35-0.8c3.8,0,3.8-5.2,0-5.1c-9.9,0-19.7,0.7-29.6,0.8c-9.3,0.1-19-0.1-27.9-2.9c-6.9-2.1-11.1-7-12.3-13.2
					c-1.4-7.5,3.3-12.3,8.3-17.8C183.1,207.9,178.9,204.2,176.5,206.8L176.5,206.8z"/>
			</g>
			<g>
				<path class="st5" d="M178.4,240.5c-8.5,1.6-14.8,8.4-16.4,15.6c-1.6,7.2,2,14.6,8.9,18.8c7.4,4.4,17.7,4.5,26.3,4.9
					c13,0.6,26,0.1,39,0.1c3.8,0,3.8-5.1,0-5.1c-10.7,0-21.4,0.3-32.2,0.1c-8.6-0.1-17.9-0.1-26.2-2.6c-6.6-2-10.2-6.9-10.4-12.9
					c-0.2-6.2,5.5-12.6,12.4-13.9C183.7,244.8,182.2,239.8,178.4,240.5L178.4,240.5z"/>
			</g>
			<g>
				<path class="st5" d="M177.7,274.3c-5.5,2.1-8.9,7.7-9.6,12.7c-0.9,6.2,2.8,11.2,8.6,14.5c2.8,1.6,6,2.6,9,3.8
					c4.1,1.6,8.2,2.9,12.4,3.9c8.8,2.1,18.1,2.7,27.2,2.8c3.8,0,3.8-5.1,0-5.1c-7.2,0-14.4-0.5-21.5-1.7c-6.6-1.2-12.8-3.3-19-5.7
					c-4.9-1.9-10.4-4.5-11-9.7c-0.4-4.2,2.3-9.2,6.8-10.9C184.2,277.4,181.2,273,177.7,274.3L177.7,274.3z"/>
			</g>
			<path class="st2" d="M468.7,317c0.5,4-2.5,7.5-6.7,7.8l-10.3,0.9c-4.1,0.4-7.9-2.6-8.3-6.5l-14.5-125.8c-0.5-4,2.5-7.5,6.7-7.8
				l10.3-0.9c4.1-0.4,7.9,2.6,8.3,6.5L468.7,317z"/>
			<g>
				<path class="st8" d="M227.7,179.8c-12.2,0.8-8.9,12-5.3,18.8c2.7,4.6,8.2,13.5,15.2,15c1.4-0.5,2.6-1.3,3.7-2.3
					c4.4-4.4,2.5-22.3,1.9-28.3c0-0.1,0-0.2-0.1-0.3C238.2,181,232.6,179.3,227.7,179.8z"/>
			</g>
			<path class="st5" d="M458.7,229.8c-3.9-2.2-8.1-3.3-12.5-3c-4.8,0.4-9.2,2.6-12.7,6l7.6,65.6c4.1,2.6,8.7,3.9,13.4,3.5
				c4.5-0.4,8.5-2.3,12-5.3L458.7,229.8z"/>
			<path class="st7" d="M72.7,249.6c0.8,20.4-10.7,37.2-25.5,37.6c-14.9,0.4-27.6-15.7-28.3-36.1c-0.8-20.4,10.7-37.2,25.5-37.7
				C59.3,213.1,72,229.3,72.7,249.6z"/>
			<g>
				<path class="st5" d="M56.5,229.1c0-5.4-4.9-8.7-11.2-8.9c-3.2-0.1-3.7,4-0.4,4.1c3.5,0.1,6.2,1.2,6.6,4.3
					c0.5,3.4-2.5,5.1-6.3,4.7c-3.2-0.3-3.6,3.8-0.4,4.1C51.3,238.1,56.5,234.5,56.5,229.1z"/>
				<path class="st5" d="M57.1,271.9c-0.2-5.4-5.2-8.5-11.5-8.6c-3.2,0-3.5,4.1-0.3,4.1c3.5,0,6.3,1.1,6.8,4.1
					c0.6,3.3-2.3,5.2-6.1,4.8c-3.2-0.3-3.5,3.8-0.3,4.1C52.2,281.1,57.3,277.4,57.1,271.9z"/>
				<path class="st5" d="M42,257.6c1.4,0.1,2.7-0.4,2.9-1.6c0.2-1-0.6-2.3-2-2.4c-2-0.1-5.4-0.3-6.2-2.1c-1.2-2.6,2.6-3.9,5-4.2
					c3.2-0.4,2.8-4.5-0.4-4.1c-5.3,0.6-10.1,3.4-9.7,8.2C32.1,255.7,37.5,257.4,42,257.6z"/>
			</g>
			<path class="st6" d="M401.7,134.6c-1.4-1.2-4.2-17.8-6.8-17.7c-2.6,0.1-4.8,16.6-6,17.7c-2.4,2.2-20,3.7-19.9,5.8
				c0.1,2.1,17.5,3.1,19.9,5.2c1.4,1.1,4.2,17.8,6.8,17.7c2.6-0.1,4.8-16.6,6-17.7c2.3-2.1,20.1-3.7,19.9-5.8
				C421.6,137.7,404.1,136.6,401.7,134.6z"/>
			<g>
				<path class="st0" d="M420.8,300.6c-4-4.6-12.2,0.7-8.3,5.3C416.5,310.5,424.7,305.2,420.8,300.6z"/>
				<path class="st0" d="M327.4,316.4c-4-4.6-12.2,0.7-8.2,5.3C323.1,326.3,331.4,321,327.4,316.4z"/>
				<path class="st0" d="M401.6,308.5c-18.2,9.4-40.9,15.6-62,10.5c-4.9-1.2-6.8,5.4-1.9,6.6c23,5.6,48-0.9,67.9-11.2
					C410,312.1,406,306.3,401.6,308.5z"/>
			</g>
			<path class="st0" d="M140.9,158.6c-2.1-1.8-6.4-2.2-8.4,0c-9.8,10.9-21.6,20.7-35.9,27c-6.8,3-0.8,11.9,6,8.9
				c15.1-6.7,27.9-17.1,38.3-28.6C142.9,163.7,143.4,160.7,140.9,158.6z"/>
			<path class="st0" d="M147.8,144.4c-7.6,0-7.6,10.3,0,10.3C155.4,154.7,155.4,144.4,147.8,144.4z"/>
			<path class="st0" d="M78.3,193.2c-7.6,0-7.6,10.3,0,10.3C85.9,203.4,85.9,193.2,78.3,193.2z"/>
			<path class="st0" d="M458.5,227.1c-1.9,0-1.9,2.6,0,2.6C460.4,229.7,460.4,227.1,458.5,227.1z"/>
			<path class="st0" d="M65.4,242c0.9,7.3,1.2,14.5-0.9,21.7c-0.5,1.6,2.5,2,2.9,0.4c2.2-7.4,1.8-14.8,0.9-22.4
				C68.1,240,65.2,240.3,65.4,242z"/>
			<path class="st0" d="M65.3,235.4c-1.9,0.2-1.6,2.7,0.3,2.6C67.5,237.8,67.2,235.2,65.3,235.4z"/>
			<path class="st0" d="M64.4,267.2c-1.9,0.2-1.6,2.7,0.3,2.6C66.6,269.6,66.3,267,64.4,267.2z"/>
			<path class="st0" d="M151.7,309.7c-10.7-3.1-21.7-5.5-32.3-8.9c-5.4-1.7-7.7,5.7-2.4,7.4c10.6,3.4,21.6,5.8,32.4,8.9
				C154.8,318.7,157.2,311.2,151.7,309.7z"/>
			<path class="st0" d="M167.5,312.3c-5.7,0-5.7,7.7,0,7.7C173.3,320,173.3,312.3,167.5,312.3z"/>
			<path class="st0" d="M398.7,192.4c-8.8-7.6-17.9-15.8-30.8-17.2c-2.4-0.3-4.4,2-4.4,3.9c0,2.3,2,3.6,4.4,3.9
				c10,1.1,17.8,9.2,24.5,15C396.5,201.4,402.7,195.9,398.7,192.4z"/>
			<path class="st0" d="M405.8,198.5c-5.7,0-5.7,7.7,0,7.7C411.5,206.2,411.5,198.5,405.8,198.5z"/>
			<path class="st9" d="M475.7,254.2c2.3,20.8-7.9,38.6-22.7,39.8c-14.8,1.2-28.7-14.6-30.9-35.4c-2.3-20.7,7.9-38.6,22.7-39.8
				C459.6,217.6,473.4,233.4,475.7,254.2z"/>
			<g>
				<path class="st5" d="M441.5,278.9c0.9,5.3,6.4,7.9,12.6,7.3c3.2-0.3,2.9-4.4-0.3-4.1c-3.5,0.3-6.4-0.4-7.3-3.4
					c-1-3.3,1.6-5.4,5.4-5.4c3.2-0.1,2.9-4.2-0.3-4.1C445.1,269.3,440.6,273.5,441.5,278.9z"/>
				<path class="st5" d="M433.6,236.6c1.1,5.3,6.6,7.8,12.9,7c3.2-0.4,2.8-4.5-0.4-4.1c-3.5,0.4-6.4-0.3-7.4-3.2
					c-1.2-3.2,1.4-5.4,5.2-5.6c3.2-0.1,2.8-4.3-0.4-4.1C436.9,226.9,432.5,231.2,433.6,236.6z"/>
				<path class="st5" d="M451,248.8c-1.4,0.1-2.6,0.8-2.6,2c-0.1,1,1,2.2,2.4,2.1c2-0.2,5.4-0.4,6.5,1.2c1.6,2.4-1.9,4.2-4.2,4.8
					c-3.1,0.8-2.1,4.8,1.1,4c5.1-1.3,9.4-4.7,8.2-9.4C461.2,249.4,455.5,248.4,451,248.8z"/>
			</g>
			<path class="st0" d="M463.9,232.4c-1-1.4-3.5-0.1-2.6,1.3c4.8,7,8,14.7,7.8,23c0,1.7,2.9,1.7,3,0
				C472.3,248,469,239.8,463.9,232.4z"/>
		</g>
	</g>
</g>
</svg>
